<?xml version="1.0" encoding="utf-8"?><!DOCTYPE svg PUBLIC "-//W3C//DTD SVG 1.1//EN" "http://www.w3.org/Graphics/SVG/1.1/DTD/svg11.dtd"><svg version="1.1" baseProfile="full" xmlns="http://www.w3.org/2000/svg" xmlns:xlink="http://www.w3.org/1999/xlink" xmlns:ev="http://www.w3.org/2001/xml-events"   height="12px"   width="9px" ><path fill="rgb( 174, 174, 174 )" d="M7.5,12 C7.5,12 1.5,12 1.5,12 C0.67200000000003,12 0,11.328 0,10.5 C0,10.5 0,6.75 0,6.75 C0,5.92200000000003 0.67200000000003,5.25 1.5,5.25 C1.5,5.25 7.5,5.25 7.5,5.25 C8.32799999999997,5.25 9,5.92200000000003 9,6.75 C9,6.75 9,10.5 9,10.5 C9,11.328 8.32799999999997,12 7.5,12 ZM6,3 C6,2.173 5.327,1.5 4.5,1.5 C3.673,1.5 3,2.17200000000003 3,3 C3,3 3,4.93299999999999 3,4.93299999999999 C3,4.93299999999999 1.5,4.93299999999999 1.5,4.93299999999999 C1.5,4.93299999999999 1.5,3 1.5,3 C1.5,1.346 2.846,0 4.5,0 C6.15499999999997,0 7.5,1.346 7.5,3 C7.5,3 7.5,4.93299999999999 7.5,4.93299999999999 C7.5,4.93299999999999 6,4.93299999999999 6,4.93299999999999 C6,4.93299999999999 6,3 6,3 Z "/></svg>