<?xml version="1.0" encoding="utf-8"?>
<!-- Generator: Adobe Illustrator 18.0.0, SVG Export Plug-In . SVG Version: 6.00 Build 0)  -->
<!DOCTYPE svg PUBLIC "-//W3C//DTD SVG 1.1//EN" "http://www.w3.org/Graphics/SVG/1.1/DTD/svg11.dtd">
<svg version="1.1" id="Layer_1" xmlns="http://www.w3.org/2000/svg" xmlns:xlink="http://www.w3.org/1999/xlink" x="0px" y="0px"
	 viewBox="0 0 612 792" enable-background="new 0 0 612 792" xml:space="preserve">
<g>
	<path fill="#FFFFFF" d="M491.4,338c32.8,5,55.5,20.2,68.1,40.4c12.6,20.2,20.2,55.5,20.2,100.9c0,90.8-27.7,166.5-83.2,224.5
		c-55.5,58-126.1,88.3-211.9,88.3c-32.8,0-65.6-5-98.4-17.7c-32.8-12.6-58-30.3-80.7-50.4c-25.2-22.7-45.4-50.4-58-75.7
		c-10.1-27.7-17.7-55.5-17.7-83.2c0-30.3,7.6-55.5,20.2-73.1c12.6-17.7,35.3-27.7,63.1-35.3c-5-12.6-10.1-22.7-12.6-32.8
		c-2.5-7.6-5-15.1-5-20.2c0-15.1,7.6-32.8,25.2-50.4c17.7-17.7,32.8-25.2,47.9-25.2c7.6,0,12.6,0,20.2,2.5c7.6,2.5,15.1,5,25.2,12.6
		c-22.7-75.7-45.4-138.7-58-181.6s-17.7-70.6-17.7-88.3c0-22.7,5-40.4,17.7-53C166,7.6,183.7,0,203.8,0
		c32.8,0,75.7,75.7,128.6,229.5c10.1,25.2,15.1,45.4,20.2,60.5c5-10.1,10.1-27.7,17.7-47.9c53-151.3,98.4-227,133.7-227
		c17.7,0,32.8,5,45.4,17.7c10.1,12.6,17.7,30.3,17.7,50.4c0,15.1-5,45.4-17.7,88.3C534.3,214.4,516.6,269.9,491.4,338z M103,559.9
		c5,5,12.6,15.1,20.2,27.7c22.7,32.8,45.4,50.4,65.6,50.4c7.6,0,12.6-2.5,17.7-7.6c5-5,7.6-10.1,7.6-12.6c0-5-2.5-15.1-10.1-27.7
		s-17.7-27.7-30.3-42.9c-15.1-17.7-27.7-32.8-35.3-40.4c-10.1-7.6-17.7-12.6-22.7-12.6c-12.6,0-25.2,7.6-35.3,20.2
		c-10.1,12.6-15.1,30.3-15.1,47.9c0,15.1,2.5,30.3,10.1,50.4c7.6,17.7,17.7,37.8,32.8,55.5c22.7,25.2,47.9,47.9,80.7,63.1
		c32.8,15.1,65.6,22.7,105.9,22.7c70.6,0,128.6-25.2,176.6-78.2c47.9-53,70.6-118.5,70.6-199.3c0-25.2-2.5-42.9-5-58
		c-2.5-15.1-10.1-25.2-17.7-30.3c-15.1-12.6-42.9-22.7-85.8-32.8s-88.3-15.1-133.7-15.1c-12.6,0-22.7,2.5-27.7,7.6
		c-5,5-7.6,12.6-7.6,22.7c0,25.2,12.6,42.9,40.4,53c27.7,10.1,73.1,17.7,133.7,17.7h22.7c5,0,10.1,2.5,12.6,5c2.5,5,5,10.1,5,17.7
		c-5,5-17.7,12.6-37.8,20.2s-32.8,15.1-42.9,22.7c-22.7,15.1-40.4,35.3-53,58c-12.6,22.7-20.2,42.9-20.2,63.1
		c0,12.6,2.5,25.2,7.6,42.9c5,17.7,7.6,27.7,7.6,30.3v5v5c-15.1,0-27.7-10.1-37.8-27.7c-10.1-17.7-12.6-40.4-12.6-70.6v-5
		c-2.5,2.5-5,5-7.6,5c-2.5,0-5,2.5-10.1,2.5c-2.5,0-7.6,0-10.1,0c-2.5,0-5-2.5-10.1-2.5c0,5,2.5,7.6,2.5,12.6s0,7.6,0,10.1
		c0,12.6-5,25.2-15.1,35.3c-10.1,10.1-22.7,15.1-37.8,15.1c-22.7,0-45.4-10.1-70.6-32.8c-22.7-22.7-35.3-42.9-35.3-65.6
		c0-5,0-7.6,2.5-10.1C97.9,565,100.4,562.5,103,559.9z M266.9,572.6c5,0,12.6-2.5,17.7-7.6c5-5,7.6-12.6,7.6-17.7
		c0-7.6-5-22.7-15.1-47.9c-10.1-25.2-22.7-50.4-37.8-73.1c-10.1-17.7-22.7-32.8-32.8-40.4c-10.1-10.1-20.2-12.6-30.3-12.6
		c-7.6,0-15.1,5-25.2,15.1s-12.6,17.7-12.6,27.7c0,7.6,5,22.7,12.6,40.4c10.1,17.7,20.2,35.3,35.3,55.5
		c15.1,20.2,30.3,37.8,45.4,50.4C246.7,567.5,256.8,572.6,266.9,572.6z M319.9,310.2l-60.5-169c-15.1-42.9-25.2-73.1-35.3-85.8
		c-7.6-12.6-15.1-20.2-25.2-20.2c-7.6,0-12.6,2.5-17.7,7.6c-7.6,7.6-10.1,15.1-10.1,25.2c0,17.7,7.6,45.4,20.2,85.8
		s32.8,95.8,58,161.4c2.5-5,5-7.6,10.1-7.6c5-2.5,10.1-2.5,15.1-2.5c2.5,0,7.6,0,12.6,0C294.6,307.7,304.7,307.7,319.9,310.2z
		 M380.4,474.2c-15.1,0-30.3-2.5-45.4-5s-27.7-5-40.4-10.1c5,12.6,10.1,22.7,15.1,35.3c5,12.6,7.6,22.7,10.1,35.3
		c7.6-10.1,17.7-20.2,27.7-30.3C360.2,489.3,370.3,481.8,380.4,474.2z M453.6,327.9c25.2-65.6,42.9-121.1,58-163.9
		c12.6-42.9,20.2-68.1,20.2-78.2s-2.5-17.7-7.6-25.2c-5-5-10.1-7.6-17.7-7.6c-10.1,0-20.2,7.6-30.3,25.2
		c-10.1,17.7-22.7,42.9-35.3,80.7l-55.5,156.4L453.6,327.9z"/>
</g>
</svg>
