<?xml version="1.0" encoding="utf-8"?>
<!-- Generator: Adobe Illustrator 15.1.0, SVG Export Plug-In  -->
<!DOCTYPE svg PUBLIC "-//W3C//DTD SVG 1.1//EN" "http://www.w3.org/Graphics/SVG/1.1/DTD/svg11.dtd" [
	<!ENTITY ns_flows "http://ns.adobe.com/Flows/1.0/">
]>
<svg version="1.1"
	 xmlns="http://www.w3.org/2000/svg" xmlns:xlink="http://www.w3.org/1999/xlink" xmlns:a="http://ns.adobe.com/AdobeSVGViewerExtensions/3.0/"
	 x="0px" y="0px" width="785px" height="122px" viewBox="-0.87 -0.967 785 122" enable-background="new -0.87 -0.967 785 122"
	 xml:space="preserve">
<defs>
</defs>
<path id="docker_1_" fill-rule="evenodd" clip-rule="evenodd" fill="#E6E6E6" d="M374.431,93.576
	c11.391-9.763,22.772-19.532,34.126-29.336c3.879-3.344,8.134-6.812,11.987-10.336c-3.091-3.887-8.25-6.696-12.636-8.368
	c-8.848-3.371-17.569-2.235-25.687,2.446c-10.619,6.13-15.15,15.9-14.751,28.054c0.159,4.784,1.445,9.395,3.988,13.47
	C372.351,90.94,373.354,92.29,374.431,93.576 M387.607,102.827c5.58,1.951,11.945,1.673,17.675,0.675
	c2.925-1.245,10.42-4.512,13.176-4.038l0.435,0.075l0.392,0.194c1.682,0.817,3.288,1.972,4.148,3.682
	c2.012,4.015,1.042,8.048-2.897,10.323l-1.315,0.764c-14.55,8.399-30.026,7.233-44.534-0.611
	c-6.935-3.748-12.237-9.317-16.153-16.103l-0.915-1.583c-9.343-16.176-8.08-33.196,2.456-48.581
	c3.635-5.317,8.386-9.427,13.944-12.638l2.104-1.214c13.708-7.91,28.393-7.371,42.47-0.427c7.564,3.734,13.694,9.301,17.918,16.617
	l0.762,1.315c3.068,5.326-0.907,9.957-5.012,13.126c-4.764,3.67-9.572,8.094-14.138,12.033
	C407.942,85.226,397.782,94.034,387.607,102.827z M496.64,29.228h1.521c4.601,0,7.675,3.103,7.675,7.678
	c0,6.352-6.069,7.978-11.321,7.978c-6.895,0-13.467,4.168-18.222,8.843c-5.923,5.844-8.514,13.316-8.514,21.54v37.136
	c0,4.26-2.661,7.677-7.062,7.677h-1.21c-4.412,0-7.069-3.417-7.069-7.677V73.133c0-15.081,7.341-27.385,19.578-36.025
	C479.327,31.95,487.69,29.228,496.64,29.228z M305.441,55.586c5.957-5.968,11.939-11.921,17.988-17.792
	c1.683-1.636,8.063-8.566,10.574-8.566h2.752l0.309,0.066c3.503,0.726,6.126,2.941,6.126,6.7v1.523c0,2.563-3.008,5.546-4.663,7.301
	c-3.526,3.735-7.234,7.348-10.844,11.01l-18.529,18.81c7.975,8,15.948,16.005,23.865,24.064c2.188,2.229,4.379,4.462,6.537,6.724
	c0.757,0.797,1.887,1.798,2.525,2.908c0.686,1.044,1.108,2.219,1.108,3.474v1.579l-0.092,0.367c-0.861,3.5-3.083,6.325-6.962,6.325
	h-1.22c-2.538,0-5.405-2.875-7.141-4.513c-3.582-3.378-7.046-6.931-10.56-10.379l-11.775-11.562v18.481
	c0,4.25-2.665,7.671-7.066,7.671h-1.212c-4.402,0-7.06-3.421-7.06-7.671V7.977c0-4.258,2.657-7.666,7.06-7.666h1.212
	c4.401,0,7.066,3.408,7.066,7.666V55.586z M255.675,45.196c-2.307-1.083-6.646-1.442-9.147-1.538
	c-12.817-0.483-22.091,6.734-27.534,18.04c-1.876,3.898-2.729,8.029-2.729,12.344c0,13.141,6.895,22.34,18.627,27.949
	c4.282,2.043,9.812,2.433,14.494,2.433c4.119,0,9.94-2.521,13.595-4.258l0.633-0.297h2.833l0.314,0.061
	c3.494,0.728,6.124,2.938,6.124,6.69v1.521c0,9.336-17.071,11.48-23.586,11.929c-22.982,1.593-40.17-11.03-46.729-32.952
	c-1.139-3.81-1.65-7.59-1.65-11.555v-3.04c0-16.633,8.251-29.811,22.521-38.286c6.643-3.94,13.975-5.918,21.683-5.918h3.041
	c8.175,0,15.708,2.321,22.457,6.934l0.56,0.383l0.344,0.574c0.729,1.21,1.359,2.609,1.359,4.048v1.519
	c0,3.917-2.931,6.02-6.468,6.702l-0.292,0.048h-0.905C262.929,48.525,257.726,46.16,255.675,45.196z M115.797,74.355
	c0,11.659,5.728,20.236,15.579,26.268c4.619,2.833,9.713,4.114,15.121,4.114c11.518,0,20.031-5.839,25.964-15.567
	c2.827-4.634,4.104-9.728,4.104-15.127c0-10.848-5.221-19.124-14.15-25.128c-4.893-3.293-10.337-4.942-16.229-4.942
	c-12.855,0-22.104,6.491-27.65,18.028C116.655,65.898,115.797,70.037,115.797,74.355z M144.666,28.619h2.126
	c17.775,0,31.29,8.623,39.857,24.141c3.425,6.206,5.258,12.98,5.258,20.074v3.044c0,16.628-8.2,29.882-22.534,38.294
	c-6.643,3.893-13.979,5.907-21.669,5.907h-3.038c-16.633,0-29.85-8.223-38.292-22.531c-3.918-6.642-5.913-13.969-5.913-21.67v-3.044
	c0-16.63,8.254-29.815,22.517-38.299C129.617,30.593,136.955,28.619,144.666,28.619z M15.337,74.355
	c0,12.016,5.824,21.04,16.353,26.806c4.254,2.325,8.876,3.576,13.735,3.576c11.789,0,20.535-5.561,26.567-15.555
	c2.802-4.647,4.114-9.733,4.114-15.14c0-10.413-4.933-18.54-13.324-24.571c-5.085-3.666-10.813-5.499-17.061-5.499
	c-12.852,0-22.102,6.491-27.655,18.028C16.193,65.898,15.337,70.037,15.337,74.355z M76.106,40.073V7.681
	C76.106,3.424,78.764,0,83.171,0h1.219c4.407,0,7.055,3.424,7.055,7.681v68.197c0,16.628-8.217,29.861-22.531,38.294
	c-6.639,3.9-13.978,5.907-21.674,5.907h-3.041c-16.63,0-29.847-8.223-38.287-22.531C1.992,90.906,0,83.579,0,75.878v-3.044
	c0-16.63,8.218-29.855,22.526-38.301c6.645-3.922,13.97-5.914,21.672-5.914h3.041C58.497,28.619,68.051,32.981,76.106,40.073z"/>
<path fill="#E6E6E6" d="M569.769,119.69c-2.094,0-3.893-0.739-5.35-2.196c-1.456-1.457-2.196-3.256-2.196-5.349V36.028
	c0-2.093,0.74-3.893,2.196-5.35c1.457-1.457,3.256-2.195,5.35-2.195c2.093,0,3.892,0.738,5.349,2.195
	c1.459,1.458,2.196,3.257,2.196,5.35v76.117c0,2.092-0.737,3.891-2.196,5.349C573.66,118.952,571.861,119.69,569.769,119.69z
	 M569.769,20.359c-2.571,0-4.795-0.92-6.609-2.735s-2.735-4.038-2.735-6.609c0-2.572,0.921-4.795,2.735-6.61
	c1.814-1.814,4.038-2.734,6.609-2.734c2.57,0,4.795,0.92,6.608,2.735c1.815,1.814,2.736,4.038,2.736,6.609
	c0,2.571-0.921,4.794-2.737,6.609C574.563,19.439,572.339,20.359,569.769,20.359z"/>
<path fill="#E6E6E6" d="M670.718,119.69c-2.094,0-3.895-0.739-5.35-2.196c-1.457-1.458-2.196-3.257-2.196-5.349V73.636
	c0-4.146-0.793-8.092-2.357-11.729c-1.576-3.649-3.768-6.895-6.515-9.644c-2.748-2.747-5.994-4.937-9.644-6.512
	c-3.636-1.565-7.582-2.358-11.728-2.358c-4.148,0-8.096,0.793-11.729,2.359c-3.653,1.575-6.898,3.766-9.644,6.512
	c-2.749,2.749-4.939,5.994-6.514,9.644c-1.564,3.632-2.357,7.578-2.357,11.729v38.509c0,2.092-0.739,3.891-2.196,5.349
	c-1.457,1.457-3.256,2.196-5.35,2.196c-2.092,0-3.892-0.738-5.349-2.195c-1.458-1.458-2.196-3.257-2.196-5.35V73.636
	c0-6.24,1.204-12.193,3.581-17.694c2.363-5.479,5.621-10.317,9.683-14.376c4.056-4.058,8.893-7.315,14.376-9.682
	c5.506-2.376,11.458-3.581,17.694-3.581c6.233,0,12.186,1.204,17.693,3.58c5.483,2.369,10.318,5.625,14.377,9.682
	c4.058,4.06,7.315,8.897,9.683,14.376c2.376,5.509,3.581,11.462,3.581,17.695v38.509c0,2.093-0.74,3.893-2.196,5.35
	C674.609,118.952,672.809,119.69,670.718,119.69z"/>
<path fill-rule="evenodd" clip-rule="evenodd" fill="#E6E6E6" d="M743.675,45.196c-2.307-1.083-6.646-1.442-9.147-1.538
	c-12.817-0.483-22.091,6.734-27.534,18.04c-1.876,3.898-2.729,8.029-2.729,12.344c0,13.141,6.895,22.34,18.627,27.949
	c4.282,2.043,9.812,2.433,14.494,2.433c4.119,0,9.94-2.521,13.595-4.258l0.633-0.297h2.833l0.314,0.061
	c3.494,0.728,6.124,2.938,6.124,6.69v1.521c0,9.336-17.071,11.48-23.586,11.929c-22.982,1.593-40.17-11.03-46.729-32.952
	c-1.139-3.81-1.65-7.59-1.65-11.555v-3.04c0-16.633,8.251-29.811,22.521-38.286c6.643-3.94,13.975-5.918,21.683-5.918h3.041
	c8.175,0,15.708,2.321,22.457,6.934l0.56,0.383l0.344,0.574c0.729,1.21,1.359,2.609,1.359,4.048v1.519
	c0,3.917-2.931,6.02-6.468,6.702l-0.292,0.048h-0.905C750.929,48.525,745.726,46.16,743.675,45.196z"/>
<path fill="#E6E6E6" d="M768.339,112.19c0-2.073,0.732-3.843,2.196-5.307s3.23-2.196,5.307-2.196c2.073,0,3.843,0.732,5.307,2.196
	c1.465,1.464,2.196,3.234,2.196,5.307c0,2.076-0.731,3.843-2.196,5.307c-1.464,1.464-3.233,2.196-5.307,2.196
	c-2.076,0-3.843-0.732-5.307-2.196C769.071,116.033,768.339,114.266,768.339,112.19z"/>
</svg>
