<?xml version="1.0" encoding="utf-8"?>
<!-- Generator: Adobe Illustrator 15.1.0, SVG Export Plug-In  -->
<!DOCTYPE svg PUBLIC "-//W3C//DTD SVG 1.1//EN" "http://www.w3.org/Graphics/SVG/1.1/DTD/svg11.dtd" [
	<!ENTITY ns_flows "http://ns.adobe.com/Flows/1.0/">
]>
<svg version="1.1"
	 xmlns="http://www.w3.org/2000/svg" xmlns:xlink="http://www.w3.org/1999/xlink" xmlns:a="http://ns.adobe.com/AdobeSVGViewerExtensions/3.0/"
	 x="0px" y="0px" width="110px" height="110px" viewBox="8 12 110 110" overflow="visible" enable-background="new 8 12 110 110"
	 xml:space="preserve">
<defs>
</defs>
<rect x="0.5" y="0.5" display="none" fill="#004B95" stroke="#000000" stroke-miterlimit="10" width="300" height="140"/>
<path fill-rule="evenodd" clip-rule="evenodd" fill="none" d="M9.138,23.852h43.307v43.307H9.138V23.852z"/>
<path fill-rule="evenodd" clip-rule="evenodd" fill="#FFFFFF" d="M44.871,26.241h3.296v34.747h-3.296V26.241z M38.555,26.241h3.425
	v34.747h-3.425V26.241z M32.239,26.241h3.422v34.747h-3.422V26.241z M25.923,26.241h3.42v34.747h-3.42V26.241z M19.607,26.241h3.422
	v34.747h-3.422V26.241z M13.417,26.241h3.294v34.747h-3.294V26.241z M9.945,22.772h41.692v41.691H9.945V22.772z"/>
<path fill-rule="evenodd" clip-rule="evenodd" fill="none" d="M8.856,67.693h43.306V111H8.856V67.693z"/>
<path fill-rule="evenodd" clip-rule="evenodd" fill="#FFFFFF" d="M44.589,71.97h3.296v34.747h-3.296V71.97z M38.273,71.97h3.425
	v34.747h-3.425V71.97z M31.957,71.97h3.422v34.747h-3.422V71.97z M25.641,71.97h3.42v34.747h-3.42V71.97z M19.326,71.97h3.421
	v34.747h-3.421V71.97z M13.135,71.97h3.294v34.747h-3.294V71.97z M9.664,68.5h41.691v41.692H9.664V68.5z"/>
<path fill-rule="evenodd" clip-rule="evenodd" fill="none" d="M52.529,67.777h43.307v43.306H52.529V67.777z"/>
<path fill-rule="evenodd" clip-rule="evenodd" fill="#FFFFFF" d="M90.15,72.054h3.296v34.747H90.15V72.054z M83.834,72.054h3.425
	v34.747h-3.425V72.054z M77.519,72.054h3.421v34.747h-3.421V72.054z M71.202,72.054h3.42v34.747h-3.42V72.054z M64.886,72.054h3.422
	v34.747h-3.422V72.054z M58.696,72.054h3.294v34.747h-3.294V72.054z M55.225,68.584h41.691v41.691H55.225V68.584z"/>
<rect id="_x3C_Slice_x3E__3_" x="8" y="12" fill-rule="evenodd" clip-rule="evenodd" fill="none" width="110" height="110"/>
</svg>
