<?xml version="1.0" encoding="utf-8"?>
<!-- Generator: Adobe Illustrator 15.1.0, SVG Export Plug-In  -->
<!DOCTYPE svg PUBLIC "-//W3C//DTD SVG 1.1//EN" "http://www.w3.org/Graphics/SVG/1.1/DTD/svg11.dtd" [
	<!ENTITY ns_flows "http://ns.adobe.com/Flows/1.0/">
]>
<svg version="1.1"
	 xmlns="http://www.w3.org/2000/svg" xmlns:xlink="http://www.w3.org/1999/xlink" xmlns:a="http://ns.adobe.com/AdobeSVGViewerExtensions/3.0/"
	 x="0px" y="0px" width="110px" height="110px" viewBox="11 12 110 110" overflow="visible" enable-background="new 11 12 110 110"
	 xml:space="preserve">
<defs>
</defs>
<rect x="0.5" y="0.5" display="none" fill="#004B95" stroke="#000000" stroke-miterlimit="10" width="300" height="140"/>
<path fill-rule="evenodd" clip-rule="evenodd" fill="#FFFFFF" stroke="#FFFFFF" stroke-width="0.0476" stroke-miterlimit="22.9256" d="
	M41.574,50.073H43.4l1.185,1.004l0.184,1.917l-2.009-0.274L41.574,51.9V50.073L41.574,50.073z M76.12,41.057l-1.456,1.455v1.591
	l-0.27,0.864l-0.047,3.636l0.5,0.819l1.545,0.818l0.455-0.908l-1.682-2.091l-0.136-1.819l0.41-0.272l-0.091-2.364l1-0.728
	L76.12,41.057L76.12,41.057z M73.438,32.782l1.181-0.045l0.864,0.818l3.773,0.183l0.138,0.863l-0.729,0.818l-0.317-0.955
	l-1.408-0.227l-0.227,0.455l-0.728-0.183l-0.59-0.499l-1.412-0.045L73.438,32.782L73.438,32.782z M61.639,37.802l1.161,0.181
	l1.022-1.138l0.658,0.091l0.318,0.524v0.798l-0.796,0.636l-0.659-0.204l0.182,0.547l0.159,0.91l-1.455,1.274l-0.159,1.503h-0.569
	l-0.021-2.847l-0.228-0.636L61.639,37.802L61.639,37.802z M43.675,64.132l0.09-0.866L43.034,62.9l-1.323,0.684l-0.593,1.599
	l1.368,0.045L43.675,64.132L43.675,64.132z M46.502,60.572l-0.91-0.274l-1.007,0.547l0.046,2.556l0.502,0.183l0.184,0.914
	l-0.503,1.095l-0.639,1.598l0.73,0.457l0.639,0.867l1.323-0.684l0.915-0.915l-1.233-2.28l-0.365-1.553l-0.137-1.324L46.502,60.572
	L46.502,60.572z M32.992,47.517v-2.282L35,43.134l1.461-2.646l4.199-2.191l1.733-2.1l4.84-2.83l1.643-2.375l0.913,0.548l1.279-1.096
	l4.291,0.183h3.012l2.008,0.913l-0.273,1.186l-1.278,0.729l-0.456,1.188l-1.553,1.278l-1.276-0.09l-2.009,1.733l-0.183,1.37
	l-1.552,0.091l-0.549,1.552l-1.826,1.276l-1.186,0.549l-1.188-0.549l-0.821,1.279l-0.457,2.283L44.859,43.5l-0.912,1.187
	l0.638,1.186l-0.455,1.005l-1.097-1.187l-1.553,0.366l-0.546-0.914l-1.279,0.914l-1.369,0.09l-1.095-0.729l-1.917,2.009
	l-1.278,0.548L32.992,47.517L32.992,47.517z M69.729,111.151c10.419-0.97,19.778-5.622,26.775-12.645
	c4.926-4.951,8.682-11.078,10.81-17.926l-1.315-1.195l-2.03,2.319l-0.291,1.353l-0.675,1.209l-0.096,1.354l-1.307,1.352
	l-1.258,1.646l-0.723,1.931l0.193,1.693l-0.726,0.917l-0.868-0.146l-0.532-1.16l-0.823-1.789l0.097-2.175l-1.403-0.434l-0.675-0.723
	l-0.871-0.098l-0.53,0.434l-0.438-0.82h-1.012l-1.063,0.531l-0.921-0.531l-1.257,1.256l-1.256-0.049l-0.288-0.484l-0.582,0.484
	l-2.369-0.097l-1.256-0.58l-1.16-1.063l-0.579,0.533l-0.919-0.097l0.145,1.304l0.484,0.097l0.242,0.434l0.771,2.272l1.597,0.387
	l0.386-0.771l1.594-0.726l0.678-0.482l1.498,1.063l0.725,0.384l-0.484,1.161l-1.11,1.353l-1.789,1.499l-1.79,1.353l-1.498,1.352
	l-1.208,0.242l-1.353,0.098l-1.16,1.304l-0.484-0.29l-0.966-0.046l-0.145-1.258l-0.389-0.87L75.5,94.898l-0.145-1.208l-0.437,0.436
	l-0.916,0.337l-0.243-1.836l-0.725-1.45l-0.967-0.918l-0.966-1.015l-1.498-0.096l-0.049,0.965l0.338,0.581l1.354,1.403l1.403,1.835
	l0.772,2.127l0.628,0.967l1.931,1.691l1.257,1.354l1.498-0.676l1.79-0.05l0.434-0.821l1.064,0.096l-0.482,1.208l-1.257,1.597
	l-1.738,1.499l-0.774,1.159l-2.031,1.063l-1.739,1.159l-0.967,0.92l-0.096,1.836l-1.305,1.21L69.729,111.151L69.729,111.151z
	 M27.944,45.445c-3.773,6.484-5.938,14.028-5.938,22.077h0.001l0,0v0h-0.001c0,12.1,4.886,23.053,12.783,30.983
	c6.267,6.293,14.43,10.681,23.552,12.225l-0.29-1.425l-0.87-0.485l-1.016-0.82l-0.916-0.677l-0.968-1.885l-0.532-0.146l-1.016-0.919
	l-0.046-2.367l-0.822-0.966l-1.112-0.243l-1.402,0.243l-0.918-0.967l-1.451-0.775l-0.771-0.046l-1.5,0.096l-2.031-0.531
	l-1.739-1.063l-1.692-1.255l-1.401-1.355l-1.064-1.69l-1.498-1.017l-0.386-1.062l-0.049-5.896l0.29-1.888l1.499-1.399l0.965,0.097
	l1.258-0.822l1.305-0.774l0.677-1.547l0.533-0.049l1.256,0.727l0.434,0.338l1.498,0.049l0.533,0.24l6.281,0.098l1.354,1.401
	l0.244,2.224l2.609,0.918l0.098,0.918l0.725,0.146l2.125,1.208l0.677-0.049l1.208-1.98l0.871-0.049l1.788,1.208l1.307,0.387
	l2.222,0.145l3.432-0.097l1.014-0.869l0.291-1.305l0.532-0.58l-0.532-0.918l-0.917-0.34l-1.257,0.146l-1.112-0.482l-0.677,0.386
	l-1.016-0.049l-0.868-1.256l-1.112-1.16l-0.389-0.772l-0.82-0.097l-0.773,0.918l-0.29,1.691L61,81.801l-0.192-1.256l-0.725-0.533
	l-0.146-0.87l-0.629-0.773l-1.982-1.74l-0.821-0.821l-0.194-0.726H55.25l0.145,0.822l0.434,1.643h0.726l1.209,0.871l0.772,0.674
	v0.534l-0.532-0.048l-0.24,1.208l-0.822,0.191v-1.739l-1.887-0.917l-0.966-1.112l-0.917-2.079l-4.012-0.049l-1.353,0.531
	l-1.79,1.355l-0.675,1.062l-1.016,0.388l-1.69-0.049l-2.176-1.449l-0.098-1.208l0.485-1.209l0.146-2.61l0.628-0.386l0.435,0.338
	l1.933,1.595l1.693,0.096l0.434-0.627l0.048-1.789l-1.644-1.788L44.325,68.8l0.629-0.097l2.078,1.063L48,68.655l1.98-0.194
	l1.354-1.159h0.579l0.725-0.484h1.208l0.243-1.594l0.966-1.062l0.436,0.772l-0.068,0.714L54.9,66.167l-0.179,1.267l1.717,0.631
	l1.805-0.452l1.355-0.091l2.169-0.361v-1.536l1.538-0.453l0.721-1.626l2.53-0.091l-0.091-1.263l-0.902-0.362l-1.537,0.454
	l-1.175,0.269v-2.078l0.724-1.355l0.904-0.452l0.181-1.535l-1.809,0.09l-1.175,1.897l-1.535,0.902v1.447l0.904,0.815v1.084
	l-1.627,0.088l-1.264,2.802l-1.716-0.271l0.27-2.619l-0.723-0.724l-2.169,0.994l-0.812-0.724l0.271-3.795l4.246-1.534l2.351-3.074
	l1.535-1.083l1.899-1.538l6.233,0.181l1.718,1.717l1.988,2.169l-4.429,0.543v1.446l0.815,0.721l1.896,0.362l4.518-4.155l1.625-0.453
	l2.532-1.084l0.453-1.625l0.812-1.176l2.26,0.271v-1.083l-2.439-2.169l-0.093-1.176l1.625-0.36l0.363,1.715l3.073,2.667l0.091-1.49
	l-1.448-1.177l-0.723-1.626l1.446-1.896l-1.716-1.084l1.356-1.447l-1.448-0.271l0.272-3.612l-1.897-1.899l2.801-1.175l1.447,1.164
	l3.253-1.447l0.327-3.267c-6.958-4.716-15.347-7.468-24.372-7.468l0,0h-0.001l0,0l0,0c-9.982,0-19.183,3.366-26.536,9.031
	l1.852-0.276l1.891-1.413l1.051-0.797l1.596-0.434l1.161-0.501l-0.136,0.409l-3.099,1.527l-1.459,1.184l0.044,1.642l-2.302,0.98
	l-1.617,0.957l-1.229,1.208l-0.184,1.051l-0.592,0.432l-0.366-0.502l0.616-0.798l0.479-1.026l-0.274-1.207l-1.276,1.89l-2.119,3.146
	l-0.071,2.099l-2.552,3.373l-0.114,1.322l-0.296,1.004l-0.319,1.161h-1.071l-0.068-1.139l-0.273-0.435l-0.114-1.8L27.944,45.445
	L27.944,45.445z M65.657,23.401c-24.309,0-44.024,19.79-44.024,44.192c0,24.403,19.715,44.192,44.024,44.192
	c24.31,0,44.025-19.789,44.025-44.192C109.682,43.191,89.966,23.401,65.657,23.401z"/>
<circle fill="none" stroke="#FFFFFF" stroke-width="1.6526" stroke-miterlimit="10" cx="65.662" cy="67.348" r="44.307"/>
<rect id="_x3C_Slice_x3E__3_" x="11" y="12" fill-rule="evenodd" clip-rule="evenodd" fill="none" width="110" height="110"/>
</svg>
