<svg version="1.1" xmlns="http://www.w3.org/2000/svg" xmlns:xlink="http://www.w3.org/1999/xlink" width="728" height="623.3749955289159"><style xmlns="http://www.w3.org/1999/xhtml"></style><defs/><g transform="translate(0,0)"><g><rect fill="#ffffff" stroke="none" x="0" y="0" width="728" height="623.3749955289159"/></g><g transform="translate(0,0) matrix(1,0,0,1,341.08744707104813,362.83333333333337)"><g><g transform="translate(0,0) scale(1.2,0.7)"><g><path fill="#d1eefd" stroke="none" d="M 0 0 L 100 0 Q 100 0 100 0 L 100 100 Q 100 100 100 100 L 0 100 Q 0 100 0 100 L 0 0 Q 0 0 0 0 Z"/><g transform="scale(0.8333333333333334,1.4285714285714286)"><path fill="none" stroke="none" d="M 0 0 L 120 0 Q 120 0 120 0 L 120 70 Q 120 70 120 70 L 0 70 Q 0 70 0 70 L 0 0 Q 0 0 0 0 Z"/><path fill="none" stroke="#1488c6" d="M 0 0 M 0 0 L 120 0 Q 120 0 120 0 L 120 70 Q 120 70 120 70 L 0 70 Q 0 70 0 70 L 0 0 Q 0 0 0 0 Z" stroke-miterlimit="10" stroke-width="2"/></g></g></g></g></g><g transform="matrix(1,0,0,1,351,378)"><g transform="translate(28,0) matrix(1,0,0,1,0,0) translate(-28,0)"><g><rect fill="rgb(0,0,0)" stroke="none" x="0" y="0" width="101" height="40" fill-opacity="0"/></g></g><g transform="translate(28,0) matrix(1,0,0,1,0,0) translate(-28,0)"><g><rect fill="rgb(0,0,0)" stroke="none" x="0" y="0" width="101" height="40" fill-opacity="0"/></g></g><g transform="translate(28,0) matrix(1,0,0,1,0,0) translate(-28,0)"><g><rect fill="rgb(0,0,0)" stroke="none" x="14" y="0" width="72" height="40" fill-opacity="0"/></g></g><g transform="translate(28,0) matrix(1,0,0,1,0,0) translate(-28,0)"><g><rect fill="rgb(0,0,0)" stroke="none" x="14" y="0" width="72" height="40" fill-opacity="0"/></g><text fill="rgb(37, 67, 86)" stroke="none" font-family="Arial" font-size="18px" font-style="normal" font-weight="normal" text-decoration="" line-height="20.5px" x="14" y="16">manager</text><text fill="rgb(37, 67, 86)" stroke="none" font-family="Arial" font-size="18px" font-style="normal" font-weight="normal" text-decoration="" line-height="20.5px" x="30" y="36">node</text></g></g><g transform="translate(0,0) matrix(1,0,0,1,521.3384756337732,270.8572012650878)"><g><g transform="translate(0,0) scale(1.2,0.7)"><g><path fill="#ccf4f4" stroke="none" d="M 0 0 L 100 0 Q 100 0 100 0 L 100 100 Q 100 100 100 100 L 0 100 Q 0 100 0 100 L 0 0 Q 0 0 0 0 Z"/><g transform="scale(0.8333333333333334,1.4285714285714286)"><path fill="none" stroke="none" d="M 0 0 L 120 0 Q 120 0 120 0 L 120 70 Q 120 70 120 70 L 0 70 Q 0 70 0 70 L 0 0 Q 0 0 0 0 Z"/><path fill="none" stroke="#00a2a2" d="M 0 0 M 0 0 L 120 0 Q 120 0 120 0 L 120 70 Q 120 70 120 70 L 0 70 Q 0 70 0 70 L 0 0 Q 0 0 0 0 Z" stroke-miterlimit="10" stroke-width="2"/></g></g></g></g></g><g transform="matrix(1,0,0,1,532,296)"><g transform="translate(2,0) matrix(1,0,0,1,0,0) translate(-2,0)"><g><rect fill="rgb(0,0,0)" stroke="none" x="0" y="0" width="101" height="20" fill-opacity="0"/></g></g><g transform="translate(2,0) matrix(1,0,0,1,0,0) translate(-2,0)"><g><rect fill="rgb(0,0,0)" stroke="none" x="0" y="0" width="101" height="20" fill-opacity="0"/></g></g><g transform="translate(2,0) matrix(1,0,0,1,0,0) translate(-2,0)"><g><rect fill="rgb(0,0,0)" stroke="none" x="1" y="0" width="100" height="20" fill-opacity="0"/></g></g><g transform="translate(2,0) matrix(1,0,0,1,0,0) translate(-2,0)"><g><rect fill="rgb(0,0,0)" stroke="none" x="1" y="0" width="100" height="20" fill-opacity="0"/></g><text fill="rgb(37, 67, 86)" stroke="none" font-family="Arial" font-size="18px" font-style="normal" font-weight="normal" text-decoration="" line-height="20.5px" x="1" y="16">worker</text><text fill="rgb(37, 67, 86)" stroke="none" font-family="Arial" font-size="18px" font-style="normal" font-weight="normal" text-decoration="" line-height="20.5px" x="60" y="16">node</text></g></g><g transform="translate(0,0) matrix(1,0,0,1,522.3384756337732,454.8572012650878)"><g><g transform="translate(0,0) scale(1.2,0.7)"><g><path fill="#ccf4f4" stroke="none" d="M 0 0 L 100 0 Q 100 0 100 0 L 100 100 Q 100 100 100 100 L 0 100 Q 0 100 0 100 L 0 0 Q 0 0 0 0 Z"/><g transform="scale(0.8333333333333334,1.4285714285714286)"><path fill="none" stroke="none" d="M 0 0 L 120 0 Q 120 0 120 0 L 120 70 Q 120 70 120 70 L 0 70 Q 0 70 0 70 L 0 0 Q 0 0 0 0 Z"/><path fill="none" stroke="#00a2a2" d="M 0 0 M 0 0 L 120 0 Q 120 0 120 0 L 120 70 Q 120 70 120 70 L 0 70 Q 0 70 0 70 L 0 0 Q 0 0 0 0 Z" stroke-miterlimit="10" stroke-width="2"/></g></g></g></g></g><g transform="matrix(1,0,0,1,533,480)"><g transform="translate(2,0) matrix(1,0,0,1,0,0) translate(-2,0)"><g><rect fill="rgb(0,0,0)" stroke="none" x="0" y="0" width="101" height="20" fill-opacity="0"/></g></g><g transform="translate(2,0) matrix(1,0,0,1,0,0) translate(-2,0)"><g><rect fill="rgb(0,0,0)" stroke="none" x="0" y="0" width="101" height="20" fill-opacity="0"/></g></g><g transform="translate(2,0) matrix(1,0,0,1,0,0) translate(-2,0)"><g><rect fill="rgb(0,0,0)" stroke="none" x="1" y="0" width="100" height="20" fill-opacity="0"/></g></g><g transform="translate(2,0) matrix(1,0,0,1,0,0) translate(-2,0)"><g><rect fill="rgb(0,0,0)" stroke="none" x="1" y="0" width="100" height="20" fill-opacity="0"/></g><text fill="rgb(37, 67, 86)" stroke="none" font-family="Arial" font-size="18px" font-style="normal" font-weight="normal" text-decoration="" line-height="20.5px" x="1" y="16">worker</text><text fill="rgb(37, 67, 86)" stroke="none" font-family="Arial" font-size="18px" font-style="normal" font-weight="normal" text-decoration="" line-height="20.5px" x="60" y="16">node</text></g></g><g transform="translate(0,0) matrix(1,0,0,1,161.83641850832305,452.80946540157896)"><g><g transform="translate(0,0) scale(1.2,0.7)"><g><path fill="#ccf4f4" stroke="none" d="M 0 0 L 100 0 Q 100 0 100 0 L 100 100 Q 100 100 100 100 L 0 100 Q 0 100 0 100 L 0 0 Q 0 0 0 0 Z"/><g transform="scale(0.8333333333333334,1.4285714285714286)"><path fill="none" stroke="none" d="M 0 0 L 120 0 Q 120 0 120 0 L 120 70 Q 120 70 120 70 L 0 70 Q 0 70 0 70 L 0 0 Q 0 0 0 0 Z"/><path fill="none" stroke="#00a2a2" d="M 0 0 M 0 0 L 120 0 Q 120 0 120 0 L 120 70 Q 120 70 120 70 L 0 70 Q 0 70 0 70 L 0 0 Q 0 0 0 0 Z" stroke-miterlimit="10" stroke-width="2"/></g></g></g></g></g><g transform="matrix(1,0,0,1,172,478)"><g transform="translate(2,0) matrix(1,0,0,1,0,0) translate(-2,0)"><g><rect fill="rgb(0,0,0)" stroke="none" x="0" y="0" width="101" height="20" fill-opacity="0"/></g></g><g transform="translate(2,0) matrix(1,0,0,1,0,0) translate(-2,0)"><g><rect fill="rgb(0,0,0)" stroke="none" x="0" y="0" width="101" height="20" fill-opacity="0"/></g></g><g transform="translate(2,0) matrix(1,0,0,1,0,0) translate(-2,0)"><g><rect fill="rgb(0,0,0)" stroke="none" x="1" y="0" width="100" height="20" fill-opacity="0"/></g></g><g transform="translate(2,0) matrix(1,0,0,1,0,0) translate(-2,0)"><g><rect fill="rgb(0,0,0)" stroke="none" x="1" y="0" width="100" height="20" fill-opacity="0"/></g><text fill="rgb(37, 67, 86)" stroke="none" font-family="Arial" font-size="18px" font-style="normal" font-weight="normal" text-decoration="" line-height="20.5px" x="1" y="16">worker</text><text fill="rgb(37, 67, 86)" stroke="none" font-family="Arial" font-size="18px" font-style="normal" font-weight="normal" text-decoration="" line-height="20.5px" x="60" y="16">node</text></g></g><g transform="translate(0,0) matrix(1,0,0,1,161,270.78559746982455)"><g><g transform="translate(0,0) scale(1.2,0.7)"><g><path fill="#ccf4f4" stroke="none" d="M 0 0 L 100 0 Q 100 0 100 0 L 100 100 Q 100 100 100 100 L 0 100 Q 0 100 0 100 L 0 0 Q 0 0 0 0 Z"/><g transform="scale(0.8333333333333334,1.4285714285714286)"><path fill="none" stroke="none" d="M 0 0 L 120 0 Q 120 0 120 0 L 120 70 Q 120 70 120 70 L 0 70 Q 0 70 0 70 L 0 0 Q 0 0 0 0 Z"/><path fill="none" stroke="#00a2a2" d="M 0 0 M 0 0 L 120 0 Q 120 0 120 0 L 120 70 Q 120 70 120 70 L 0 70 Q 0 70 0 70 L 0 0 Q 0 0 0 0 Z" stroke-miterlimit="10" stroke-width="2"/></g></g></g></g></g><g transform="matrix(1,0,0,1,171,296)"><g transform="translate(2,0) matrix(1,0,0,1,0,0) translate(-2,0)"><g><rect fill="rgb(0,0,0)" stroke="none" x="0" y="0" width="101" height="20" fill-opacity="0"/></g></g><g transform="translate(2,0) matrix(1,0,0,1,0,0) translate(-2,0)"><g><rect fill="rgb(0,0,0)" stroke="none" x="0" y="0" width="101" height="20" fill-opacity="0"/></g></g><g transform="translate(2,0) matrix(1,0,0,1,0,0) translate(-2,0)"><g><rect fill="rgb(0,0,0)" stroke="none" x="1" y="0" width="100" height="20" fill-opacity="0"/></g></g><g transform="translate(2,0) matrix(1,0,0,1,0,0) translate(-2,0)"><g><rect fill="rgb(0,0,0)" stroke="none" x="1" y="0" width="100" height="20" fill-opacity="0"/></g><text fill="rgb(37, 67, 86)" stroke="none" font-family="Arial" font-size="18px" font-style="normal" font-weight="normal" text-decoration="" line-height="20.5px" x="1" y="16">worker</text><text fill="rgb(37, 67, 86)" stroke="none" font-family="Arial" font-size="18px" font-style="normal" font-weight="normal" text-decoration="" line-height="20.5px" x="60" y="16">node</text></g></g><g transform="translate(0,0) matrix(1,0,0,1,521.4999923706055,402.13194106831963)"><g><g transform="translate(0,0) scale(0.49,0.41)"><g><path fill="none" stroke="none" d="M 10 0 L 90 0 Q 100 0 100 10 L 100 90 Q 100 100 90 100 L 10 100 Q 0 100 0 90 L 0 10 Q 0 0 10 0 Z"/><g transform="scale(2.0408163265306123,2.4390243902439024)"><path fill="#ffc400" stroke="none" d="M 10 0 L 39 0 Q 49 0 49 10 L 49 31 Q 49 41 39 41 L 10 41 Q 0 41 0 31 L 0 10 Q 0 0 10 0 Z" opacity="0.5"/><path fill="none" stroke="#ffc400" d="M 10 0 M 10 0 L 39 0 Q 49 0 49 10 L 49 31 Q 49 41 39 41 L 10 41 Q 0 41 0 31 L 0 10 Q 0 0 10 0 Z" stroke-miterlimit="10" stroke-width="2" opacity="0.5"/></g></g></g></g></g><g transform="translate(0,0) matrix(1,0,0,1,160.49999237060547,399.13194106831963)"><g><g transform="translate(0,0) scale(0.49,0.41)"><g><path fill="none" stroke="none" d="M 10 0 L 90 0 Q 100 0 100 10 L 100 90 Q 100 100 90 100 L 10 100 Q 0 100 0 90 L 0 10 Q 0 0 10 0 Z"/><g transform="scale(2.0408163265306123,2.4390243902439024)"><path fill="#ffc400" stroke="none" d="M 10 0 L 39 0 Q 49 0 49 10 L 49 31 Q 49 41 39 41 L 10 41 Q 0 41 0 31 L 0 10 Q 0 0 10 0 Z" opacity="0.5"/><path fill="none" stroke="#ffc400" d="M 10 0 M 10 0 L 39 0 Q 49 0 49 10 L 49 31 Q 49 41 39 41 L 10 41 Q 0 41 0 31 L 0 10 Q 0 0 10 0 Z" stroke-miterlimit="10" stroke-width="2" opacity="0.5"/></g></g></g></g></g><g transform="translate(0,0) matrix(1,0,0,1,160,217.13194106831963)"><g><g transform="translate(0,0) scale(0.49,0.41)"><g><path fill="none" stroke="none" d="M 10 0 L 90 0 Q 100 0 100 10 L 100 90 Q 100 100 90 100 L 10 100 Q 0 100 0 90 L 0 10 Q 0 0 10 0 Z"/><g transform="scale(2.0408163265306123,2.4390243902439024)"><path fill="#ffc400" stroke="none" d="M 10 0 L 39 0 Q 49 0 49 10 L 49 31 Q 49 41 39 41 L 10 41 Q 0 41 0 31 L 0 10 Q 0 0 10 0 Z" opacity="0.5"/><path fill="none" stroke="#ffc400" d="M 10 0 M 10 0 L 39 0 Q 49 0 49 10 L 49 31 Q 49 41 39 41 L 10 41 Q 0 41 0 31 L 0 10 Q 0 0 10 0 Z" stroke-miterlimit="10" stroke-width="2" opacity="0.5"/></g></g></g></g></g><g transform="translate(0,0) matrix(1,0,0,1,231.50000762939453,218.13194106831963)"><g><g transform="translate(0,0) scale(0.49,0.41)"><g><path fill="none" stroke="none" d="M 10 0 L 90 0 Q 100 0 100 10 L 100 90 Q 100 100 90 100 L 10 100 Q 0 100 0 90 L 0 10 Q 0 0 10 0 Z"/><g transform="scale(2.0408163265306123,2.4390243902439024)"><path fill="#254356" stroke="none" d="M 10 0 L 39 0 Q 49 0 49 10 L 49 31 Q 49 41 39 41 L 10 41 Q 0 41 0 31 L 0 10 Q 0 0 10 0 Z" opacity="0.5"/><path fill="none" stroke="#254356" d="M 10 0 M 10 0 L 39 0 Q 49 0 49 10 L 49 31 Q 49 41 39 41 L 10 41 Q 0 41 0 31 L 0 10 Q 0 0 10 0 Z" stroke-miterlimit="10" stroke-width="2" opacity="0.5"/></g></g></g></g></g><g transform="translate(0,0) matrix(1,0,0,1,593.5000076293945,218.13194106831963)"><g><g transform="translate(0,0) scale(0.49,0.41)"><g><path fill="none" stroke="none" d="M 10 0 L 90 0 Q 100 0 100 10 L 100 90 Q 100 100 90 100 L 10 100 Q 0 100 0 90 L 0 10 Q 0 0 10 0 Z"/><g transform="scale(2.0408163265306123,2.4390243902439024)"><path fill="#254356" stroke="none" d="M 10 0 L 39 0 Q 49 0 49 10 L 49 31 Q 49 41 39 41 L 10 41 Q 0 41 0 31 L 0 10 Q 0 0 10 0 Z" opacity="0.5"/><path fill="none" stroke="#254356" d="M 10 0 M 10 0 L 39 0 Q 49 0 49 10 L 49 31 Q 49 41 39 41 L 10 41 Q 0 41 0 31 L 0 10 Q 0 0 10 0 Z" stroke-miterlimit="10" stroke-width="2" opacity="0.5"/></g></g></g></g></g><g transform="translate(0,0) matrix(1,0,0,1,339,310.13194106831963)"><g><g transform="translate(0,0) scale(0.49,0.41)"><g><path fill="none" stroke="none" d="M 10 0 L 90 0 Q 100 0 100 10 L 100 90 Q 100 100 90 100 L 10 100 Q 0 100 0 90 L 0 10 Q 0 0 10 0 Z"/><g transform="scale(2.0408163265306123,2.4390243902439024)"><path fill="#254356" stroke="none" d="M 10 0 L 39 0 Q 49 0 49 10 L 49 31 Q 49 41 39 41 L 10 41 Q 0 41 0 31 L 0 10 Q 0 0 10 0 Z" opacity="0.5"/><path fill="none" stroke="#254356" d="M 10 0 M 10 0 L 39 0 Q 49 0 49 10 L 49 31 Q 49 41 39 41 L 10 41 Q 0 41 0 31 L 0 10 Q 0 0 10 0 Z" stroke-miterlimit="10" stroke-width="2" opacity="0.5"/></g></g></g></g></g><g transform="translate(0,0) matrix(1,0,0,1,596,402.13194106831963)"><g><g transform="translate(0,0) scale(0.49,0.41)"><g><path fill="none" stroke="none" d="M 10 0 L 90 0 Q 100 0 100 10 L 100 90 Q 100 100 90 100 L 10 100 Q 0 100 0 90 L 0 10 Q 0 0 10 0 Z"/><g transform="scale(2.0408163265306123,2.4390243902439024)"><path fill="#254356" stroke="none" d="M 10 0 L 39 0 Q 49 0 49 10 L 49 31 Q 49 41 39 41 L 10 41 Q 0 41 0 31 L 0 10 Q 0 0 10 0 Z" opacity="0.5"/><path fill="none" stroke="#254356" d="M 10 0 M 10 0 L 39 0 Q 49 0 49 10 L 49 31 Q 49 41 39 41 L 10 41 Q 0 41 0 31 L 0 10 Q 0 0 10 0 Z" stroke-miterlimit="10" stroke-width="2" opacity="0.5"/></g></g></g></g></g><g transform="translate(0,0) matrix(1,0,0,1,237,399.0208299277741)"><g><g transform="translate(0,0) scale(0.49,0.41)"><g><path fill="none" stroke="none" d="M 10 0 L 90 0 Q 100 0 100 10 L 100 90 Q 100 100 90 100 L 10 100 Q 0 100 0 90 L 0 10 Q 0 0 10 0 Z"/><g transform="scale(2.0408163265306123,2.4390243902439024)"><path fill="#254356" stroke="none" d="M 10 0 L 39 0 Q 49 0 49 10 L 49 31 Q 49 41 39 41 L 10 41 Q 0 41 0 31 L 0 10 Q 0 0 10 0 Z" opacity="0.5"/><path fill="none" stroke="#254356" d="M 10 0 M 10 0 L 39 0 Q 49 0 49 10 L 49 31 Q 49 41 39 41 L 10 41 Q 0 41 0 31 L 0 10 Q 0 0 10 0 Z" stroke-miterlimit="10" stroke-width="2" opacity="0.5"/></g></g></g></g></g><g transform="translate(0,0) matrix(1,0,0,1,161,560.7986081765022)"><g><g transform="translate(0,0) scale(0.49,0.41)"><g><path fill="none" stroke="none" d="M 10 0 L 90 0 Q 100 0 100 10 L 100 90 Q 100 100 90 100 L 10 100 Q 0 100 0 90 L 0 10 Q 0 0 10 0 Z"/><g transform="scale(2.0408163265306123,2.4390243902439024)"><path fill="#ffc400" stroke="none" d="M 10 0 L 39 0 Q 49 0 49 10 L 49 31 Q 49 41 39 41 L 10 41 Q 0 41 0 31 L 0 10 Q 0 0 10 0 Z" opacity="0.5"/><path fill="none" stroke="#ffc400" d="M 10 0 M 10 0 L 39 0 Q 49 0 49 10 L 49 31 Q 49 41 39 41 L 10 41 Q 0 41 0 31 L 0 10 Q 0 0 10 0 Z" stroke-miterlimit="10" stroke-width="2" opacity="0.5"/></g></g></g></g></g><g transform="matrix(1,0,0,1,224,563)"><g transform="translate(0,0) matrix(1,0,0,1,0,0) translate(0,0)"><g><rect fill="rgb(0,0,0)" stroke="none" x="0" y="0" width="153" height="40" fill-opacity="0"/></g></g><g transform="translate(0,0) matrix(1,0,0,1,0,0) translate(0,0)"><g><rect fill="rgb(0,0,0)" stroke="none" x="0" y="0" width="153" height="40" fill-opacity="0"/></g></g><g transform="translate(0,0) matrix(1,0,0,1,0,0) translate(0,0)"><g><rect fill="rgb(0,0,0)" stroke="none" x="0" y="0" width="140" height="40" fill-opacity="0"/></g></g><g transform="translate(0,0) matrix(1,0,0,1,0,0) translate(0,0)"><g><rect fill="rgb(0,0,0)" stroke="none" x="0" y="0" width="140" height="40" fill-opacity="0"/></g><text fill="rgb(37, 67, 86)" stroke="none" font-family="Arial" font-size="18px" font-style="normal" font-weight="normal" text-decoration="" line-height="20.5px" x="0" y="16">replicated</text><text fill="rgb(37, 67, 86)" stroke="none" font-family="Arial" font-size="18px" font-style="normal" font-weight="normal" text-decoration="" line-height="20.5px" x="83" y="16">service</text><text fill="rgb(37, 67, 86)" stroke="none" font-family="Arial" font-size="18px" font-style="normal" font-weight="normal" text-decoration="" line-height="20.5px" x="0" y="36">with</text><text fill="rgb(37, 67, 86)" stroke="none" font-family="Arial" font-size="18px" font-style="normal" font-weight="normal" text-decoration="" line-height="20.5px" x="37" y="36">3</text><text fill="rgb(37, 67, 86)" stroke="none" font-family="Arial" font-size="18px" font-style="normal" font-weight="normal" text-decoration="" line-height="20.5px" x="52" y="36">replicas</text></g></g><g transform="translate(0,0) matrix(1,0,0,1,416,562.2430498246792)"><g><g transform="translate(0,0) scale(0.49,0.41)"><g><path fill="none" stroke="none" d="M 10 0 L 90 0 Q 100 0 100 10 L 100 90 Q 100 100 90 100 L 10 100 Q 0 100 0 90 L 0 10 Q 0 0 10 0 Z"/><g transform="scale(2.0408163265306123,2.4390243902439024)"><path fill="#254356" stroke="none" d="M 10 0 L 39 0 Q 49 0 49 10 L 49 31 Q 49 41 39 41 L 10 41 Q 0 41 0 31 L 0 10 Q 0 0 10 0 Z" opacity="0.5"/><path fill="none" stroke="#254356" d="M 10 0 M 10 0 L 39 0 Q 49 0 49 10 L 49 31 Q 49 41 39 41 L 10 41 Q 0 41 0 31 L 0 10 Q 0 0 10 0 Z" stroke-miterlimit="10" stroke-width="2" opacity="0.5"/></g></g></g></g></g><g transform="matrix(1,0,0,1,479,563)"><g transform="translate(0,0) matrix(1,0,0,1,0,0) translate(0,0)"><g><rect fill="rgb(0,0,0)" stroke="none" x="0" y="0" width="190" height="40" fill-opacity="0"/></g></g><g transform="translate(0,0) matrix(1,0,0,1,0,0) translate(0,0)"><g><rect fill="rgb(0,0,0)" stroke="none" x="0" y="0" width="190" height="40" fill-opacity="0"/></g></g><g transform="translate(0,0) matrix(1,0,0,1,0,0) translate(0,0)"><g><rect fill="rgb(0,0,0)" stroke="none" x="0" y="0" width="181" height="40" fill-opacity="0"/></g></g><g transform="translate(0,0) matrix(1,0,0,1,0,0) translate(0,0)"><g><rect fill="rgb(0,0,0)" stroke="none" x="0" y="0" width="181" height="40" fill-opacity="0"/></g><text fill="rgb(37, 67, 86)" stroke="none" font-family="Arial" font-size="18px" font-style="normal" font-weight="normal" text-decoration="" line-height="20.5px" x="0" y="16">global</text><text fill="rgb(37, 67, 86)" stroke="none" font-family="Arial" font-size="18px" font-style="normal" font-weight="normal" text-decoration="" line-height="20.5px" x="53" y="16">service</text><text fill="rgb(37, 67, 86)" stroke="none" font-family="Arial" font-size="18px" font-style="normal" font-weight="normal" text-decoration="" line-height="20.5px" x="114" y="16">with</text><text fill="rgb(37, 67, 86)" stroke="none" font-family="Arial" font-size="18px" font-style="normal" font-weight="normal" text-decoration="" line-height="20.5px" x="0" y="36">replicas</text><text fill="rgb(37, 67, 86)" stroke="none" font-family="Arial" font-size="18px" font-style="normal" font-weight="normal" text-decoration="" line-height="20.5px" x="67" y="36">on</text><text fill="rgb(37, 67, 86)" stroke="none" font-family="Arial" font-size="18px" font-style="normal" font-weight="normal" text-decoration="" line-height="20.5px" x="92" y="36">every</text><text fill="rgb(37, 67, 86)" stroke="none" font-family="Arial" font-size="18px" font-style="normal" font-weight="normal" text-decoration="" line-height="20.5px" x="141" y="36">node</text></g></g><g transform="translate(0.5,0.5) matrix(1,0,0,1,143,217)"><g><g transform="translate(0,0) scale(5.65,3.1)"><g><path fill="rgb(255,255,255)" stroke="none" d="M 100 50 A 50 50 0 1 0 99.99997500000208 50.04999999166668 Z" fill-opacity="0.008" opacity="0.52"/><g transform="scale(0.17699115044247787,0.3225806451612903)"><path fill="none" stroke="#254356" d="M 282.5 0 M 282.5 0 C 283.16720782103164 0 283.8338754074619 0.0012690915797541457 284.49999517812046 0.0038031151590356025 M 284.49999517812046 0.0038031151590356025 M 286.4999613780848 0.015220620045495941 C 287.167159028968 0.02030108776420326 287.8337976182891 0.026650611605199416 288.4998694899769 0.0342649908922639 M 288.4998694899769 0.0342649908922639 M 290.49969025429846 0.06094902601347695 C 291.16683906044403 0.07112696995836557 291.8334096384709 0.08257399335363703 292.4993942553699 0.09528585330927564 M 292.4993942553699 0.09528585330927564 M 294.49895191454084 0.13728893789524282 C 295.16601278840216 0.15258225342095333 295.83247591531205 0.1691447328320846 296.4983334832009 0.18697208986032424 M 296.4983334832009 0.18697208986032424 M 298.4975090355887 0.2443494721571301 C 299.1644424399939 0.26477698282018947 299.83075821304124 0.28647380526401867 300.49644846138915 0.3094356086286284 M 300.49644846138915 0.3094356086286284 M 302.49512145811417 0.38224539217535536 C 303.16188736742157 0.4078268925210902 303.82801538144275 0.43467791839051195 304.49349752325935 0.4627940930673851 M 304.49349752325935 0.4627940930673851 M 306.49154594622894 0.5510973674054206 C 307.15810380516336 0.5818536672750793 307.82400311072695 0.6138797746819993 308.48923580002224 0.6471712657354909 M 308.48923580002224 0.6471712657354909 M 310.48653593267244 0.7510322418218641 C 311.1528446126887 0.7869852122730225 311.8184736717354 0.8242083430065701 312.4834149584306 0.8626971615829151 M 312.4834149584306 0.8626971615829151 M 314.4798412486856 0.9821833121948191 C 315.145859001692 1.0233559331334499 315.8111756404932 1.0657991403318474 316.4757829226106 1.109508411368072 M 316.4757829226106 1.109508411368072 M 318.47120783752825 1.244690616801984 C 319.1368922467877 1.291107026430119 319.80185360603946 1.3387945240701549 320.46608357898253 1.3877485358224255 M 320.46608357898253 1.3877485358224255 M 322.4603774505084 1.5387012352082503 C 323.1256853785186 1.5903867813969794 323.79024786036786 1.643343995710825 324.454056463089 1.6975682512119696 M 324.454056463089 1.6975682512119696 M 326.44708732428757 1.8643695997803944 C 327.1119748574256 1.9213508934839996 327.7760940692119 1.9796045164191602 328.43943642704426 2.0391257869811232 M 328.43943642704426 2.0391257869811232 M 330.4310698381245 2.2218578196409005 C 331.09549222782005 2.284162790474247 331.7591229222928 2.3477408353187426 332.4219532862061 2.412587216202027 M 332.4219532862061 2.412587216202027 M 334.41205214959336 2.611336017803176 C 335.07596374977476 2.6789939719110385 335.7390597615274 2.7479258312124424 336.40133144354263 2.8181267995911172 M 336.40133144354263 2.8181267995911172 M 338.3897558071858 3.0329826822700223 C 339.0531100077204 3.1060243626238337 339.71562418555834 3.180340868537598 340.3772894900363 3.255927343895199 M 340.3772894900363 3.255927343895199 M 342.36389633806226 3.4869850319182563 C 343.02664549388663 3.5654426811827795 343.68852962882033 3.6451761683922483 344.3495397793101 3.7261805754908837 M 344.3495397793101 3.7261805754908837 M 346.33418280906085 3.973539398034609 C 346.99627816466887 4.05744682415424 347.65748291319613 4.142631195511947 348.3177879745027 4.229087530084051 M 348.3177879745027 4.229087530084051 M 350.3003173588991 4.492851622411382 C 350.9617089678256 4.582244267073176 351.62218377013505 4.67291506212036 352.2817325652343 4.764858959439863 M 352.2817325652343 4.764858959439863 M 354.26199469931515 5.045137472954533 C 354.9226313382192 5.140052483092513 355.5823243309143 5.2362469496212105 356.2410643523079 5.333715756118259 M 356.2410643523079 5.333715756118259 M 358.21890158268747 5.630623077801564 C 358.8787306596028 5.731099380314398 359.5375885825076 5.832856549143973 360.19546589757505 5.935889397234804 M 360.19546589757505 5.935889397234804 M 362.1707162334417 6.24954537899145 C 362.8296836897203 6.355623758853076 363.4876517862883 6.462984522000461 364.14461093614875 6.571622408311377 M 364.14461093614875 6.571622408311377 M 366.1171077403018 6.902152606773253 C 366.77515794573327 7.0138757887233805 367.43217985653314 7.126882981153602 368.0881637478874 7.241168848325239 M 368.0881637478874 7.241168848325239 M 370.05773540616445 7.588704775683422 C 370.7148110467035 7.706117509691916 371.37082869540905 7.824815994842475 372.0257784847791 7.944794817107466 M 372.0257784847791 7.944794817107466 M 373.9922480520704 8.309474203563184 C 374.6482900095507 8.432623354268962 375.3032434808044 8.557060113548193 375.9570984505338 8.682778986281807 M 375.9570984505338 8.682778986281807 M 377.92028327140656 9.064746054725841 C 378.57523049455915 9.193680695056953 379.2290579030201 9.323904921522393 379.88175532833736 9.455413154971517 M 379.88175532833736 9.455413154971517 M 381.8414666301029 9.854818908517919 C 382.4952559961314 9.989590417704495 383.14789334595014 10.12565361413224 383.79936835232843 10.263002831532917 M 383.79936835232843 10.263002831532917 M 385.75541080817226 10.680005354546115 C 386.4079769740626 10.820667520741829 387.05935800795265 10.962623602301619 387.7095434179264 11.105867842598967 M 387.7095434179264 11.105867842598967 M 389.6617146774891 11.540632615862291 C 390.312989920152 11.687241743592175 390.9630459571442 11.83514714534504 391.6118721256588 11.984342970731294 M 391.6118721256588 11.984342970731294 M 393.55996231019805 12.437043201408205 C 394.209876354452 12.58965822406086 394.8585361153303 12.743572013496149 395.50593075261247 12.898778621982409 M 395.50593075261247 12.898778621982409 M 397.44972191158985 13.369595589017928 C 398.0982017448922 13.528278186597666 398.7453911642065 13.68826218142353 399.39127914503814 13.849541524657784 M 399.39127914503814 13.849541524657784 M 401.3305446706602 14.338664940254548 C 401.97751434338625 14.50347966260308 402.6231563668287 14.669598553998389 403.26745952500045 14.837015460536044 M 403.26745952500045 14.837015460536044 M 405.20196352089346 15.344643848314806 C 405.8473439308392 15.515658244001916 406.49135829664857 15.687979725527022 407.13399520324236 15.861602029749335 M 407.13399520324236 15.861602029749335 M 409.06349180305284 16.387943120164696 C 409.7072004627046 16.565227871231794 410.3495034656258 16.74382277357974 410.99038918964027 16.92372145043935 M 410.99038918964027 16.92372145043935 M 412.9146218209287 17.46899259396427 C 413.5565726058921 17.652621656682598 414.1970768420698 17.837564088429794 414.8361226917527 18.023813394179555 M 414.8361226917527 18.023813394179555 M 416.75482328006984 18.588241992692776 C 417.39492615688596 18.778292744467514 418.0335402479045 18.969660238951956 418.67065349098755 19.162337857981964 M 418.67065349098755 19.162337857981964 M 420.58354159850217 19.74616181468509 C 421.2217023298962 19.94271520719612 421.85833062399365 20.14058887561016 422.4934141848434 20.339776073476084 M 422.4934141848434 20.339776073476084 M 424.40019607731193 20.943244261525944 C 425.03631590271704 21.146384980142944 425.6708581510007 21.350849670873902 426.3038102824922 21.55663145354549 M 426.3038102824922 21.55663145354549 M 428.2041779177173 22.180004203404113 C 428.8381532066929 22.389820832845192 429.4705042119561 22.600965297027905 430.1012181396548 22.813430576316556 M 430.1012181396548 22.813430576316556 M 431.9948480698782 23.456980181586836 C 432.62656994579595 23.67356537770279 433.2566191812924 23.891482440860177 433.8849827172795 24.110724205895593 M 433.8849827172795 24.110724205895593 M 435.77153489717347 24.774735447113528 C 436.40088882827126 24.99818611456964 437.0285200235285 25.222972854106207 437.65441514693424 25.44908834861994 M 437.65441514693424 25.44908834861994 M 439.53353163800006 26.133859034100944 C 440.16039699260585 26.364276509590184 440.78548768306075 26.596034437764107 441.4087900840702 26.82912534279739 M 441.4087900840702 26.82912534279739 M 443.28009364531323 27.53496686516718 C 443.9043432077119 27.772457105616457 444.5267642446248 28.01129235744238 445.1473428283931 28.251464978920648 M 445.1473428283931 28.251464978920648 M 447.0104353821135 28.97870288538146 C 447.63193482516965 29.223376660399023 448.25154984191215 29.46940018571835 448.8692661884698 29.716765646118066 M 448.8692661884698 29.716765646118066 M 450.7237271488862 30.465740219782734 C 451.342334459146 30.71771330733089 451.95899928957033 30.97104106602075 452.57370706540854 31.22571549908646 M 452.57370706540854 31.22571549908646 M 454.41909151661014 31.99678234782807 C 455.0346563671762 32.256175731780324 455.64821841134864 32.51692889074502 456.2597627279568 32.77903363788515 M 456.2597627279568 32.77903363788515 M 458.0955994363664 33.57256428606226 C 458.70796250238516 33.839504353905326 459.3182600345128 34.10780948409273 459.92647674868687 34.37747129067872 M 459.92647674868687 34.37747129067872 M 461.7522659938018 35.19385376776364 C 462.36125820490827 35.468472506216244 462.9681196178019 35.744461777410436 463.57283456806425 36.02181298670953 M 463.57283456806425 36.02181298670953 M 465.38804577374265 36.86145240521819 C 465.99348749728824 37.1438875909426 466.59673047719036 37.427698961484026 467.19775865015356 37.71287770335291 M 467.19775865015356 37.71287770335291 M 469.00182779713975 38.57619681648903 C 469.6035279454852 38.86659219834476 470.2029585705585 39.15836959619936 470.80010319054185 39.45151996693154 M 470.80010319054185 39.45151996693154 M 472.59242998929756 40.3389596939418 C 473.1901850438917 40.63746516234833 473.78559679911575 40.93735865305904 474.3786483337898 41.23863088188674 M 474.3786483337898 41.23863088188674 M 476.1585931350549 42.15065078619203 C 476.7521860794605 42.45742252409687 477.34335878014076 42.76558846007574 477.9320938544468 43.075139056746046 M 477.9320938544468 43.075139056746046 M 479.6989742733467 44.01221775836295 C 480.28817342683055 44.32741836701653 480.87487204240205 44.6440195113339 481.4590522524948 44.96201138787158 M 481.4590522524948 44.96201138787158 M 483.21213948051343 45.92464688735035 C 483.796697223323 46.248445478526875 484.378670592663 46.57365109478524 484.9580412111847 46.90025365297834 M 484.9580412111847 46.90025365297834 M 486.6965559890407 47.88896353891772 C 487.27620737007834 48.2215357833414 487.85318679916776 48.5555216813333 488.42747536282155 48.89091085558176 M 488.42747536282155 48.89091085558176 M 490.150583586361 49.90623236157781 C 490.7250448036974 50.24776048105996 491.2967425362451 50.59070900564635 491.8656573064583 50.93506724854187 M 491.8656573064583 50.93506724854187 M 493.57246523731055 51.97755711800405 C 494.1414319819236 52.32822980610371 494.7075395335691 52.68032975404612 495.2707678210909 53.03384594933853 M 495.2707678210909 53.03384594933853 M 496.9603168742784 54.104080057759646 C 497.52346252765943 54.464092310578145 498.0836488746953 54.82553875684442 498.6408552193755 55.188408041225266 M 498.6408552193755 55.188408041225266 M 500.3121163016845 56.286980715000475 C 500.86908997865265 56.656533549932554 501.4229995929949 57.02752756119558 501.9738237908603 57.39995103251737 M 501.9738237908603 57.39995103251737 M 503.625691167015 58.52747399104035 C 504.1761155963926 58.90677402685328 504.7233663199462 59.287522235438225 505.26742129122306 59.66970652051142 M 505.26742129122306 59.66970652051142 M 506.8987059603565 60.82680735380367 C 507.44217519830283 61.2160662202279 507.9823559521481 61.606780226561796 508.51922544628997 61.99893687645718 M 508.51922544628997 61.99893687645718 M 510.1286480196353 63.18625695380536 C 510.66472499369996 63.58569049283454 511.19739332094747 63.98658605845314 511.7266294583103 64.38893073322588 M 511.7266294583103 64.38893073322588 M 513.3128125414215 65.60712241906538 C 513.8410264281141 66.01694963334577 514.3657058742061 66.42824561968318 514.8868265291401 66.84099701759467 M 514.8868265291401 66.84099701759467 M 516.4482866294825 68.09072004914994 C 516.9681300748136 68.5111617452044 517.4843074159362 68.9330787457466 517.9967934531787 69.35645722440815 M 517.9967934531787 69.35645722440815 M 519.5319324581235 70.63837408153337 C 520.0428586596911 71.06965114720356 520.549980999347 71.50240975222192 521.0532733852594 71.93663558071624 M 521.0532733852594 71.93663558071624 M 522.5603696881486 73.25140565241642 C 523.0617893695786 73.69373689903121 523.5592611359142 74.13755552324 524.0527579589544 74.5828466954104 M 524.0527579589544 74.5828466954104 M 525.5299573540717 75.93111902054902 C 526.0212356787163 76.3847185113246 526.5084155716307 76.83981070582016 526.9914690232382 77.29638023594923 M 526.9914690232382 77.29638023594923 M 528.4367755466097 78.67878456918686 C 528.9172290381988 79.14385834687268 529.3934269964249 79.61042950825536 529.8653403850244 80.07848212193373 M 529.8653403850244 80.07848212193373 M 531.2766073494826 81.49561805240262 C 531.7455009137681 81.97236017219026 532.2099751988349 82.45060355483113 532.6700000967691 82.93033168093888 M 532.6700000967691 82.93033168093888 M 534.0449216591182 84.38275551414553 C 534.5014658332427 84.87134328378673 534.953420360277 85.36143521722303 535.4007540168783 85.85301418306271 M 535.4007540168783 85.85301418306271 M 536.7368577242779 87.34122329116335 C 537.1802063202081 87.84181162110353 537.6187884054186 88.34390583554342 538.0525715996025 88.84748816829682 M 538.0525715996025 88.84748816829682 M 539.3472124923716 90.37190252723164 C 539.7764608473489 90.88461730203483 540.2007595887872 91.39883827361258 540.620075141436 91.91454702014587 M 540.620075141436 91.91454702014587 M 541.8704321392682 93.4754876933147 C 542.2846162390946 94.0004180951509 542.693661800041 94.52685334232642 543.0975340190844 95.05477433937719 M 543.0975340190844 95.05477433937719 M 544.3006094827634 96.6524387479569 C 544.6987062807718 97.18962849755619 545.0914704016369 97.72831979501882 545.4788657887855 98.26849285709216 M 545.4788657887855 98.26849285709216 M 546.6314893205348 99.90292680992415 C 547.0124186322727 100.45236434475353 547.3878167530564 101.00329787595128 547.7576463562503 101.55570692341641 M 547.7576463562503 101.55570692341641 M 548.856484062574 103.22677357855207 C 549.2191124669066 103.78838126656672 549.5760078911808 104.35147681505747 549.9271317339663 104.91603904447851 M 549.9271317339663 104.91603904447851 M 550.9687023001259 106.62338525243285 C 551.3118495117931 107.19700784612282 551.6490600748481 107.77210723283562 551.9802941228825 108.34866153896671 M 551.9802941228825 108.34866153896671 M 552.9609931026896 110.0916823819424 C 553.2834412859542 110.67707505261158 553.5997489906702 111.26393016183735 553.9098751127501 111.85222515693457 M 553.9098751127501 111.85222515693457 M 554.8260087758296 113.6300279459405 C 555.1265152272747 114.22684439886444 555.4206792649663 114.82510529692819 555.708458594877 115.42478743455916 M 555.708458594877 115.42478743455916 M 556.5562884435809 117.2361569378822 C 556.8336019663461 117.84393828511203 557.1043754284626 118.45314211201767 557.3685654169199 119.0637445990712 M 557.3685654169199 119.0637445990712 M 558.1443640345861 120.90711180775175 C 558.3972451400375 121.5252770479575 558.6433955343144 122.14483853478576 558.8827707819357 122.76577188770702 M 558.8827707819357 122.76577188770702 M 559.582888963937 124.6391891046436 C 559.8101337603224 125.26702819979764 560.0304671629862 125.89623280440608 560.2438438376311 126.5267780447838 M 560.2438438376311 126.5267780447838 M 560.8647879781307 128.4279034134649 C 561.0652552427991 129.06457402317886 561.2586435515259 129.70257474649756 561.4449068224988 130.34188029959486 M 561.4449068224988 130.34188029959486 M 561.9834243253575 132.2679749465665 C 562.1560648310556 132.91250384184912 562.3214751564448 133.558322746081 562.479608650255 134.20540606299005 M 562.479608650255 134.20540606299005 M 562.9327778121523 136.15334669737612 C 563.076664536288 136.80463669144464 563.2131893315271 137.45717195483306 563.3423051794344 138.11092668981584 M 563.3423051794344 138.11092668981584 M 563.7076247390853 140.077235701 C 563.821982197875 140.73407858849552 563.9288683481421 141.39211758222467 564.0282360265666 142.05132680496735 M 564.0282360265666 142.05132680496735 M 564.3037086228942 144.0322206172563 C 564.38793932326 144.69331611808082 564.4646141814414 145.35555449307924 564.5336861256126 146.01890991523194 M 564.5336861256126 146.01890991523194 M 564.7178895079659 148.01036469292407 C 564.7715954769931 148.67434480407363 564.8176878171678 149.33941098068908 564.8561197914137 150.00553757941879 M 564.8561197914137 150.00553757941879 M 564.9482599704803 152.00336953835534 C 564.9712575546718 152.6688270928332 564.9866116663552 153.33531094133303 564.9942761452805 154.00279575699182 M 564.9942761452805 154.00279575699182 M 564.9942122699886 156.00275157894333 C 564.986505132886 156.67023549610647 564.9711083838185 157.33671836200782 564.9480681840008 158.00217484925525 M 564.9480681840008 158.00217484925525 M 564.8558000723582 160.00000090374502 C 564.8173254633425 160.66612463230564 564.7711905487482 161.33118785810387 564.7174420662848 161.99516493744073 M 564.7174420662848 161.99516493744073 M 564.533111400578 163.98660793826048 C 564.4639971511808 164.64995854988956 564.3872800865613 165.3121920380914 564.30300727884 165.97328257568478 M 564.30300727884 165.97328257568478 M 564.0274089464846 167.954158899597 C 563.9279995854325 168.6133614448596 563.8210718875858 169.2713936899852 563.7066730162252 169.9282297577755 M 563.7066730162252 169.9282297577755 M 563.3412301070982 171.89451584961913 C 563.2120734684509 172.54826215095363 563.0755080506946 173.20078891531745 562.9315808719053 173.85207034518217 M 562.9315808719053 173.85207034518217 M 562.4782914988062 175.79998301189372 C 562.3201183430921 176.44705628039264 562.1546685534089 177.0928650769906 561.9819887803719 177.73738380577487 M 561.9819887803719 177.73738380577487 M 561.4433548476179 179.6634458988684 C 561.257053242282 180.30273995276062 561.0636268219359 180.94072912401558 560.8631216674723 181.5773881293116 M 560.8631216674723 181.5773881293116 M 560.2420654000284 183.47847687443135 C 560.0286518759784 184.1090093428506 559.8082818673074 184.73820112903897 559.5810007071644 185.36602735994123 M 559.5810007071644 185.36602735994123 M 558.8807750971428 187.2394044294006 C 558.64136460085 187.86032392158884 558.3951792174681 188.47987150749336 558.1422633811394 189.09802280731918 M 558.1422633811394 189.09802280731918 M 557.3663623078202 190.94134689652597 C 557.1021387474709 191.55193461679838 556.8313319848896 192.1611236427474 556.5539854315955 192.76889015566334 M 556.5539854315955 192.76889015566334 M 555.7060582594974 194.580214105995 C 555.4182470743868 195.17988074640263 555.1240514607929 195.77812611872872 554.823513711136 196.3749270182824 M 554.823513711136 196.3749270182824 M 553.9072879162377 198.1526823305019 C 553.5971316641026 198.74096126202696 553.2807941129192 199.3278002844054 552.9583163650868 199.91317684587864 M 552.9583163650868 199.91317684587864 M 551.9775304189706 201.65614875836195 C 551.6462679482017 202.2326865842095 551.3090292471728 202.80776947214045 550.9658541805521 203.38137554950487 M 550.9658541805521 203.38137554950487 M 549.9242017180233 205.08867179698126 C 549.5730511209614 205.6532172629407 549.2161292257026 206.21629603376908 548.853474631912 206.777886930889 M 548.853474631912 206.777886930889 M 547.7545599494728 208.44890296972977 C 547.3847052055113 209.00129508740767 547.0092822236069 209.55221167843757 546.6283283286273 210.10163226368846 M 546.6283283286273 210.10163226368846 M 545.4756325513162 211.73601526867273 C 545.0882135703263 212.27617133505163 544.6954261298797 212.81484562979796 544.2973062847975 213.35201837062058 M 544.2973062847975 213.35201837062058 M 543.09416308875 214.94963177589966 C 542.6902687484162 215.47753579616653 542.2812013337028 216.00395406245934 541.8669956459105 216.52886748025912 M 541.8669956459105 216.52886748025912 M 540.616575194301 218.08975732577193 C 540.1972389139406 218.60544918486025 539.7729197045712 219.11965326741358 539.3436511397621 219.63235115253548 M 539.3436511397621 219.63235115253548 M 538.0489508284504 221.15671504957135 C 537.6151482191367 221.6602806416784 537.1765469701219 222.16235811604355 536.7331794600813 222.66292970737595 M 536.7331794600813 222.66292970737595 M 535.3970201239549 224.15108887289185 C 534.9496682837867 224.64265129087562 534.4976958155906 225.13272667884678 534.0411339411332 225.62129790627856 M 534.0411339411332 225.62129790627856 M 532.6661602974933 227.0736724377294 C 532.2061183680228 227.55338424478407 531.7416272846418 228.03161131228595 531.2727171537473 228.50833712168105 M 531.2727171537473 228.50833712168105 M 529.8614014198386 229.92542448506487 C 529.3894720747796 230.39346103594073 528.9132583840337 230.86001613969697 528.4327893824089 231.3250738657308 M 528.4327893824089 231.3250738657308 M 526.9874371752411 232.70743043680451 C 526.504368768626 233.16398418056826 526.0171741353902 233.61906059490724 525.5258812837181 234.072644312499 M 525.5258812837181 234.072644312499 M 524.048639075407 235.42086973076593 C 523.5551282289933 235.86614540710696 523.057642644847 236.30994854252808 522.5562093498392 236.75226430812654 M 522.5562093498392 236.75226430812654 M 521.0490729014632 238.0669883620457 C 520.5457673580702 238.50119899429416 520.0386320575776 238.93394241076842 519.5276930905495 239.3652042962918 M 519.5276930905495 239.3652042962918 M 517.9925164175642 240.64707604485108 C 517.4800180271765 241.07043963174934 516.9638285208941 241.49234174874096 516.4439730971815 241.9127685701199 M 516.4439730971815 241.9127685701199 M 514.8824776286983 243.16244741128116 C 514.3613453675711 243.57518422343895 513.8366544949118 243.9864656326185 513.3084293601297 244.39627827896695 M 513.3084293601297 244.39627827896695 M 511.7222130437319 245.6144266925179 C 511.19296599382324 246.01675708636265 510.66028692562156 246.417638379923 510.1241993811027 246.81705765636272 M 510.1241993811027 246.81705765636272 M 508.5147455563655 248.00433537225447 C 507.9778657939466 248.3964780427108 507.4376749357219 248.78717807865655 506.8941957562563 249.17642298431264 M 506.8941957562563 249.17642298431264 M 505.2628816762009 250.33348235402738 C 504.718817035272 250.7156529561284 504.17155679861736 251.0963874908945 503.62112301170407 251.47567386258265 M 503.62112301170407 251.47567386258265 M 501.9692279345733 252.60315623804846 C 501.41839462355847 252.9755663165464 500.8644760456192 253.3465469441752 500.3074935536704 253.7160864051762 M 500.3074935536704 253.7160864051762 M 498.63620636003174 254.81461935570667 C 498.0789914198783 255.17747553011856 497.5187966202676 255.53890887558612 496.9556426563211 255.89890803726394 M 496.9556426563211 255.89890803726394 M 495.2660689706813 256.96910325906543 C 494.70283256960573 257.3226066192395 494.13671704098766 257.674693741168 493.5677424551387 258.0253536128216 M 493.5677424551387 258.0253536128216 M 491.8609112687853 259.0678054073355 C 491.2919888340261 259.41215108146383 490.7202835675232 259.7550870462832 490.14581494602027 260.09660261543877 M 490.14581494602027 260.09660261543877 M 488.4226847501796 261.11188683201675 C 487.8483889407043 261.44726369502956 487.2714023907092 261.78123729065 486.69174401291923 262.11379724198474 M 486.69174401291923 262.11379724198474 M 484.9532084597451 263.1024705971767 C 484.37383098626543 263.429061092667 483.7918508815103 263.7542546549247 483.20728652210363 264.07804120120056 M 483.20728652210363 264.07804120120056 M 481.45417963646184 265.0406409014 C 480.86999293664053 265.35862095470253 480.28328794579903 265.675210284304 479.6940825308142 265.99039908713917 M 479.6940825308142 265.99039908713917 M 477.92718349906005 266.9274426936993 C 477.33844227666566 267.23698169755994 476.74726353754573 267.5451360490487 476.1536646636933 267.8518962111429 M 476.1536646636933 267.8518962111429 M 474.37370222724934 268.7638816975602 C 473.78064486441275 269.06514255505465 473.18522738612575 269.3650246825388 472.5874667129438 269.66351879616786 M 472.5874667129438 269.66351879616786 M 470.7951231949349 270.5509247557811 C 470.1979730467188 270.8440639678547 469.59853699420995 271.1358302149343 468.99683151863155 271.42621445422475 M 468.99683151863155 271.42621445422475 M 467.1927465114599 272.28950042429346 C 466.5917130917713 272.57466821156515 465.9884649618717 272.85846863516235 465.3830181844903 273.1408928819063 M 465.3830181844903 273.1408928819063 M 463.567791925314 273.98049975613833 C 462.9630719928516 274.2578402065077 462.35620569063724 274.53381872618905 461.74720868254917 274.80842672084214 M 461.74720868254917 274.80842672084214 M 459.9214051423408 275.6247772276019 C 459.3131836948296 275.8944284627729 458.7028815186028 276.1627230287228 458.09051389720764 276.42965253978844 M 458.09051389720764 276.42965253978844 M 456.2546636075758 277.2231517675069 C 455.64311479203843 277.4852461228507 455.02954833472904 277.74598889695505 454.41397915632666 278.0053719032527 M 454.41397915632666 278.0053719032527 M 452.5685817966726 278.77640785810706 C 451.9538697429641 279.03107207136503 451.33720071720035 279.284389616941 450.7185892936625 279.53635249832666 M 450.7185892936625 279.53635249832666 M 448.86411605960444 280.28529668219136 C 448.2463956438999 280.5326520874131 447.6267766374531 280.7786655640066 447.0052732836866 281.02332929699645 M 447.0052732836866 281.02332929699645 M 445.142169056055 281.75053729608067 C 444.52158660045626 281.99070001992465 443.89916176823033 282.22952538032797 443.27490848660733 282.4670057358016 M 443.27490848660733 282.4670057358016 M 441.40359381874134 283.1728178123739 C 440.78028773266277 283.4058989705021 440.1551934308843 283.6376471577443 439.5283245382904 283.8680548985002 M 439.5283245382904 283.8680548985002 M 437.64919747786666 284.5527965797311 C 437.02329884637936 284.7789024715227 436.39566421415856 285.0036796140749 435.7663069168227 285.22712069049965 M 435.7663069168227 285.22712069049965 M 433.8797446770324 285.89110334978255 C 433.2513778008952 286.11033564999576 432.6213252938746 286.32824325383615 431.9896002146828 286.5448189963466 M 431.9896002146828 286.5448189963466 M 430.09596070825967 287.18834042354604 C 429.4652435999455 287.4007963698862 428.83288948032833 287.61193150639684 428.1989111429003 287.82173881363974 M 428.1989111429003 287.82173881363974 M 426.29853439128044 288.44508377160287 C 425.6655792309177 288.6508563474233 425.03103401777975 288.8553118363546 424.39491129119233 289.0584433584128 M 424.39491129119233 289.0584433584128 M 422.488120719965 289.66188412379176 C 421.8530342747556 289.86106223536945 421.2164031581838 290.05892682232593 420.57823966587006 290.2554711383918 M 420.57823966587006 290.2554711383918 M 418.6653432966492 290.83926802541214 C 418.0282273069992 291.0319366734159 417.389610529274 291.22329520148844 416.7495050252938 291.41333699164 M 416.7495050252938 291.41333699164 M 414.8307965732004 291.97773885791077 C 414.1917481084984 292.1639793028206 413.55124131523655 292.34891287813053 412.9092880308191 292.5325330889815 M 412.9092880308191 292.5325330889815 M 410.98504791590835 293.0777778228196 C 410.3441597026144 293.2576677441666 409.70185426651784 293.4362538951974 409.0581432295018 293.6135298993035 M 409.0581432295018 293.6135298993035 M 407.12863950968983 294.1398448883399 C 406.4860002341518 294.3134585377257 405.84198355376003 294.4857713684073 405.1966008833122 294.6567771173984 M 405.1966008833122 294.6567771173984 M 403.26209011565356 295.16437969846925 C 402.6177847038412 295.3317880463947 401.9721404794615 295.49789838297306 401.3251686582307 295.66270455444857 M 401.3251686582307 295.66270455444857 M 399.38589669475425 296.15180244495724 C 398.740006570899 296.3130733215428 398.09281505968477 296.47304885332227 397.4443331853456 296.63172299160095 M 397.4443331853456 296.63172299160095 M 395.500535909083 297.1025147026777 C 394.853139235027 297.2577129324007 394.2044774869932 297.411618346487 393.5545615049515 297.5642249973425 M 393.5545615049515 297.5642249973425 M 391.60646551126314 298.01690022923583 C 390.95763740815295 298.16608775984116 390.3075794847486 298.31398487004395 389.65630240361554 298.4605857095871 M 389.65630240361554 298.4605857095871 M 387.7041256314495 298.89532572980045 C 387.0539383852618 299.03856175556314 386.4025555619725 299.18050962564047 385.7499876532651 299.3211635835335 M 385.7499876532651 299.3211635835335 M 383.7939399705554 299.7381415882789 C 383.14246322280263 299.8754826678148 382.489824177118 300.011537729256 381.83603316050824 300.14630110645726 M 381.83603316050824 300.14630110645726 M 379.876316907532 300.54568256603454 C 379.2236178323745 300.6771827348652 378.5697888183352 300.80739889942095 377.91484003364985 300.9363254806699 M 377.91484003364985 300.9363254806699 M 375.9516505278142 301.31826846940766 C 375.2977939966937 301.443979347491 374.64283900711996 301.568408114664 373.98679557418194 301.69154927592206 M 373.98679557418194 301.69154927592206 M 372.0203215793962 302.0562047873254 C 371.3653703142042 302.1761756817695 370.7093512316097 302.294866241483 370.0522741989132 302.4122710525487 M 370.0522741989132 302.4122710525487 M 368.082698362415 302.75978330030716 C 367.4267130781185 302.87406130348165 366.76968981522145 302.9870606341426 366.11163829834345 303.0987759566581 M 366.11163829834345 303.0987759566581 M 364.13913755759245 303.42928266216194 C 363.4821770951583 303.5379127454206 362.8242077258212 303.64526570759216 362.16523903639035 303.7513362886575 M 362.16523903639035 303.7513362886575 M 360.1899849984068 304.0649689556588 C 359.5321064487891 304.167994058885 358.87324733014304 304.2697434847791 358.213417096114 304.37021204638535 M 358.213417096114 304.37021204638535 M 356.2355763914306 304.6670962234329 C 355.57683521132 304.76455734061153 354.9171410977641 304.86074411960806 354.2565033756798 304.9556514440964 M 354.2565033756798 304.9556514440964 M 352.27623798888345 305.23590697535195 C 351.61668810885556 305.3278432363689 350.956212258561 305.41850639676096 350.2948196384231 305.50789140850816 M 350.2948196384231 305.50789140850816 M 348.3122872170889 305.7716326735351 C 347.65198114273255 305.85808142239625 346.9907754172248 305.94325820955555 346.3286791205412 306.02715805307963 M 346.3286791205412 306.02715805307963 M 344.3440332642072 306.27449419617494 C 343.68302217076433 306.3554910658313 343.02113712810865 306.43521701698035 342.3583870996344 306.5136671316536 M 342.3583870996344 306.5136671316536 M 340.3717776303202 306.74470228127126 C 339.71011145132223 306.8202812652297 339.04759643339196 306.89459028099935 338.3842414270386 306.96762447254855 M 338.3842414270386 306.96762447254855 M 336.3958146426827 307.182457951341 C 335.73354215302885 307.25265147223115 335.0704453672945 307.321575885176 334.40653302663895 307.3892263941412 M 334.40653302663895 307.3892263941412 M 332.4164319387139 307.5879529201239 C 331.75360083259625 307.6527918953858 331.0899694288363 307.7163625356217 330.42554636262616 307.77866010293866 M 330.42554636262616 307.77866010293866 M 328.4339109190822 307.9613699822589 C 327.77056788313075 308.0208838871089 327.10644802543254 308.0791301452293 326.4415598784495 308.1361040750925 M 326.4415598784495 308.1361040750925 M 324.4485271730417 308.3028833868621 C 323.7847179550304 308.3571003146848 323.1201548894161 308.4100502021056 322.45484640903004 308.46172842226133 M 322.45484640903004 308.46172842226133 M 320.4605508779942 308.61265919589204 C 319.7963203514201 308.66160591620235 319.13135846940736 308.70928612307756 318.4656735681249 308.75569524269036 M 318.4656735681249 308.75569524269036 M 316.47024717509026 308.89085562814705 C 315.80563939991316 308.9345576422565 315.1403222982924 308.9769935931004 314.4743041125785 309.01815895832726 M 314.4743041125785 309.01815895832726 M 312.4778765225273 309.1376233896965 C 311.8129348023326 309.1761049842125 311.14730533942117 309.2133208913568 310.4809962850503 309.24926663875806 M 310.4809962850503 309.24926663875806 M 308.48369502807236 309.35310599150694 C 307.8184619638994 309.38639028978804 307.15256231251027 309.41840920479575 306.4860041366815 309.4491583127057 M 306.4860041366815 309.4491583127057 M 304.48795476220835 309.5374400549878 C 303.8224723032655 309.565549066669 303.1563440006097 309.5923929298214 302.48957783104174 309.6179672677933 M 302.48957783104174 309.6179672677933 M 300.4909040531888 309.69075560614056 C 299.8252135446602 309.7137102748399 299.1588975393841 309.7353999628059 298.49196393058793 309.7558203392413 M 298.49196393058793 309.7558203392413 M 296.49278776518355 309.8131763589611 C 295.82692999331437 309.8309966082709 295.16046668985643 309.8475519800631 294.4934056667683 309.86283818813035 M 294.4934056667683 309.86283818813035 M 292.4938475606021 309.9048199887121 C 291.8278627952352 309.917524766573 291.16129209567214 309.9289647078883 290.4941431948139 309.9391355698274 M 290.4941431948139 309.9391355698274 M 288.49432214759275 309.9657983956459 C 287.8282501823158 309.97340571719724 287.1616115258547 309.97974818323576 286.49441383417536 309.984821593143 M 286.49441383417536 309.984821593143 M 284.4944475136362 309.9962179597288 C 283.8301739271663 309.99873794489827 283.1653555832185 310 282.5 310 C 282.49815076101186 310 282.4963015261737 309.99999999025107 282.49445229548564 309.99999997075327 M 282.49445229548564 309.99999997075327 M 280.4944571576184 309.99617575136625 C 279.827249625892 309.99363054351994 279.16059172667843 309.9898162690762 278.4944910784528 309.98473710808327 M 278.4944910784528 309.98473710808327 M 276.49458316831107 309.96567156378813 C 275.82740514825554 309.9580374687061 275.1607957563947 309.9491343132981 274.4947626871156 309.93896631926305 M 274.4947626871156 309.93896631926305 M 272.49505905098835 309.9046082456831 C 271.82794941979165 309.89186781528764 271.16142775835 309.8778582708919 270.49550183904165 309.86258387698666 M 270.49550183904165 309.86258387698666 M 268.496120800367 309.8128794021169 C 267.8291188662955 309.79501428092186 267.1627246024036 309.7758799297696 266.4969458612274 309.7554806571313 M 266.4969458612274 309.7554806571313 M 264.4980071324605 309.6903731171745 C 263.8311526726013 309.66736400022353 263.1649259558299 309.6430854727055 262.4993349170981 309.61754188831077 M 262.4993349170981 309.61754188831077 M 260.50095971821065 309.5369716992117 C 259.8342930184604 309.50879828854045 259.1682745214775 309.47935521963444 258.5029122469824 309.4486468926943 M 258.5029122469824 309.4486468926943 M 256.5052234310264 309.35255141710644 C 255.83878532847487 309.31919237663845 255.1730162901336 309.2845633607682 254.50792442294536 309.2486688175528 M 254.50792442294536 309.2486688175528 M 252.51104660914928 309.1369822269593 C 251.84487853701742 309.09841513573986 251.17940080803862 309.05857767997054 250.51462161893596 309.0174743569684 M 250.51462161893596 309.0174743569684 M 248.5186813338448 308.8901274886624 C 247.85282536915295 308.84632879232976 247.18768146057846 308.8012592677979 246.52325789729338 308.7549234631081 M 246.52325789729338 308.7549234631081 M 244.52838372450577 308.6118436717189 C 243.86288263866126 308.5627886321052 243.19811577327218 308.5124622235771 242.5340915127436 308.46086904642755 M 242.5340915127436 308.46086904642755 M 240.54041425185034 308.30198004966536 C 239.87531156436128 308.24764269241535 239.21096573126977 308.19203334586064 238.5473852351196 308.13515666414037 M 238.5473852351196 308.13515666414037 M 236.55503807049993 307.9603783824108 C 235.89037810604086 307.90073144249834 235.22649811868465 307.8398118105602 234.5634066921473 307.77762419624594 M 234.5634066921473 307.77762419624594 M 232.57252537233842 307.586872585769 C 231.9083533214121 307.5218874507873 231.2449848792 307.4556288360235 230.5824287337582 307.3881015083756 M 230.5824287337582 307.3881015083756 M 228.5931517621754 307.181288387422 C 227.929513745639 307.11093503851464 227.2667034995188 307.03930733427796 226.60472981952014 306.96641010067435 M 226.60472981952014 306.96641010067435 M 224.6171986573788 306.74344296851484 C 223.95414179512483 306.66768991880855 223.29193741736833 306.5906615476274 222.63059443092234 306.51236274189534 M 222.63059443092234 306.51236274189534 M 220.64495371328414 306.2731445900331 C 219.98252619739438 306.19195882042675 219.32097645592262 306.10949666973954 218.66031351040465 306.0257630878407 M 218.66031351040465 306.0257630878407 M 216.67671127636046 305.7701922030813 C 216.01496244907972 305.68353909523745 215.35411728667893 305.5956084503286 214.69418492919746 305.5064052832437 M 214.69418492919746 305.5064052832437 M 212.71277286728682 305.23437504212797 C 212.05175330419522 305.14221830850585 211.3916639230085 305.04878278248174 210.73251398622477 304.95407354613417 M 210.73251398622477 304.95407354613417 M 208.75344769629748 304.6654722002451 C 208.09320929509528 304.5677738110074 207.43392824680842 304.4687952716443 206.77561394053342 304.3685417336956 M 206.77561394053342 304.3685417336956 M 204.79905321336696 304.0632521853198 C 204.1396492887243 303.95997229193625 203.4812305709048 303.85541078522544 202.82380657993772 303.7495728885663 M 202.82380657993772 303.7495728885663 M 200.84991569605077 303.42747245617477 C 200.19140108101806 303.318569311541 199.533900240109 303.20838298174704 198.87742282882567 303.09691876450194 M 198.87742282882567 303.09691876450194 M 196.90637087806095 302.7578789374901 C 196.24880203258132 302.6433088123693 195.59227627409857 302.5274538184118 194.93680339834523 302.4103193302673 M 194.93680339834523 302.4103193302673 M 192.96876462194464 302.05420551237154 C 192.31219974906327 301.933922607963 191.6567080555978 301.8123530359254 191.00229948249918 301.689502250586 M 191.00229948249918 301.689502250586 M 189.03745363956162 301.3161734913793 C 188.3819528099822 301.19012984780886 187.72755606766626 301.0627976193703 187.07427350401488 300.9341823429386 M 187.07427350401488 300.9341823429386 M 185.11280626440453 300.54349105678546 C 184.4584315501078 300.4116364573101 183.8051926842677 300.27849123389194 183.1530999142255 300.144061008966 M 183.1530999142255 300.144061008966 M 181.19520328020366 299.73585268080336 C 180.54201889791165 299.5981345515146 179.89000301870036 299.459123633929 179.23916605161511 299.318825639204 M 179.23916605161511 299.318825639204 M 177.28503881068772 298.89293851650575 C 176.63311127603464 298.74930182131556 175.982385834915 298.6043700446994 175.33287306413214 298.45814898985924 M 175.33287306413214 298.45814898985924 M 173.38272127585142 298.0144137601317 C 172.7321195692081 297.86480089082266 172.08275452724322 297.71389051464064 171.43463690088058 297.5616885303225 M 171.43463690088058 297.5616885303225 M 169.48867442061075 297.0999279834822 C 168.83947016560282 296.9442786446048 168.1915381746061 296.7873292375043 167.5448893793544 296.62908576012313 M 167.5448893793544 296.62908576012313 M 165.60333842231114 296.1491144351139 C 164.95560607817643 295.98736552351755 164.3091826758781 295.8243138428257 163.664079334997 295.65996549404724 M 163.664079334997 295.65996549404724 M 161.72717108420247 295.161589309073 C 161.08098815324863 294.9936747878662 160.43615197375232 294.82445465352436 159.79267386054815 294.65393511418677 M 159.79267386054815 294.65393511418677 M 157.8606491227109 294.13695097996754 C 157.21609637426175 293.96280174671443 156.5729293751939 293.7873439094606 155.93115964339526 293.61058378775516 M 155.93115964339526 293.61058378775516 M 154.00426955713118 293.0747792032621 C 153.36143126949278 292.8943229522416 152.72001897738954 292.71255495586934 152.08004440998053 292.529481649613 M 152.08004440998053 292.529481649613 M 150.15855121124113 291.97463427980585 C 149.5175154333753 291.7877953581865 148.8779472090105 291.59964139573555 148.23985848723967 291.4101789485926 M 148.23985848723967 291.4101789485926 M 146.32403633731155 290.8360561837742 C 145.6848951720783 290.6427554415909 145.04726449760918 290.4481362053612 144.41115649206805 290.2522051569096 M 144.41115649206805 290.2522051569096 M 142.50129237405886 289.6585636534381 C 141.8641422850812 289.4587182873066 141.22854707508313 289.25755081263287 140.5945191609416 289.05506804221653 M 140.5945191609416 289.05506804221653 M 138.69091385127606 288.44165324447533 C 138.05585599569412 288.2351766350381 137.422398934368 288.02737413782535 136.7905553330678 287.8182527021976 M 136.7905553330678 287.8182527021976 M 134.89352445518972 287.1847983459309 C 134.26066504480505 286.9715998891056 133.6294539518759 286.757071597202 132.99990410181988 286.5412205620421 M 132.99990410181988 286.5412205620421 M 131.10977927003745 285.88744815942846 C 130.47922996360793 285.66743309163087 129.85037819169432 285.44608407021565 129.22323715072818 285.2234083357027 M 129.22323715072818 285.2234083357027 M 127.3403672129571 284.5490266428727 C 126.71224554268797 284.3220958605055 126.08587240920555 284.0938268317913 125.46126129197474 283.86422695254277 M 125.46126129197474 283.86422695254277 M 123.58601368103038 283.1689314206638 C 122.96044351662096 282.93498129432044 122.33667477359806 282.6996884520286 121.7147212271758 282.46306045187043 M 121.7147212271758 282.46306045187043 M 119.8474834312505 281.7465326634443 C 119.22459548519971 281.5054548474672 118.6035638307253 281.2630296667245 117.98440255224985 281.01926484895245 M 117.98440255224985 281.01926484895245 M 116.12558371628671 280.2811719416151 C 115.5055160945361 280.03285317988525 114.8873617299353 279.78318222343233 114.27113503036745 279.5321669774666 M 114.27113503036745 279.5321669774666 M 112.42116770121345 278.7721610583796 C 111.80406650361537 278.51648298750837 111.18893774085383 278.2594477094046 110.57579615937053 278.0010633150363 M 110.57579615937053 278.0010633150363 M 108.7351381888595 277.2187808699375 C 108.12115816440011 276.9556198213913 107.50921208865785 276.6910963697624 106.899315062633 276.4252188005555 M 106.899315062633 276.4252188005555 M 105.0684516841152 275.62028010274645 C 104.45775694629744 275.349506905876 103.84916013912348 275.0773659266971 103.24267673511375 274.8038656545572 M 103.24267673511375 274.8038656545572 M 101.42212283040536 273.9758741805732 C 100.81488763870307 273.6973539690602 100.20981696766226 273.4174604135078 99.6069266793093 273.1362022169748 M 99.6069266793093 273.1362022169748 M 97.79722925457575 272.28474407748774 C 97.1936388684041 271.99833610237886 96.59228234965245 271.71054904094956 95.99317596892925 271.42139182043627 M 95.99317596892925 271.42139182043627 M 94.19491685961971 270.5460352171291 C 93.59516847181963 270.2515926704293 92.9977262125869 269.9557651178267 92.40260678134723 269.6585617218379 M 92.40260678134723 269.6585617218379 M 90.61640560793828 268.75885644365354 C 90.02070936533599 268.45622629742326 89.4273945938416 268.15220505319365 88.83647844316405 267.8468021205396 M 88.83647844316405 267.8468021205396 M 87.06299584110276 266.922279095936 C 86.47157596025934 266.6113019630135 85.88261615112377 266.2989274740942 85.2961340364584 265.9851652983044 M 85.2961340364584 265.9851652983044 M 83.53607518525843 265.0353362240497 C 82.94917117204852 264.7158462479453 82.36480927576112 264.39495250071826 81.78300761636115 264.07266492429613 M 81.78300761636115 264.07266492429613 M 80.03712609420987 263.09702199604953 C 79.4549940763276 262.76884677927137 78.87548986175928 262.4392612304389 78.29863209327593 262.10827557832914 M 78.29863209327593 262.10827557832914 M 76.56773408463425 261.10629135391684 C 75.99064826647134 260.7692519360479 75.41627978572855 260.4307954937154 74.84464783511433 260.0909325574318 M 74.84464783511433 260.0909325574318 M 73.12959671946413 259.0620599905174 C 72.55785096897907 258.71597088982986 71.9889161540177 258.36845795865327 71.4228120459559 258.01953204499915 M 71.4228120459559 258.01953204499915 M 69.72453339584712 256.9632047349606 C 69.1584429729571 256.607874070292 68.59526137322607 256.2511126775018 68.03500897709056 255.89293173877644 M 68.03500897709056 255.89293173877644 M 66.35449599265763 254.80856445224197 C 65.79439942822593 254.44379416534358 65.23731409807162 254.0775861879511 64.6832610238041 253.70995205404498 M 64.6832610238041 253.70995205404498 M 63.02158042855984 252.59694158494622 C 62.467841562069054 252.2225277876252 61.917221105552876 251.84666930524273 61.36974075566677 251.46937804215844 M 61.36974075566677 251.46937804215844 M 59.72803917411832 250.3271044905501 C 59.181049356421816 249.94283796573887 58.63729013538493 249.5571197682698 58.096783918366555 249.16996219244604 M 58.096783918366555 249.16996219244604 M 56.476294749160516 247.99779075795138 C 55.936475214038175 247.60345764941908 55.40000372243589 247.20766593446956 54.866903429854794 246.81042831789102 M 54.866903429854794 246.81042831789102 M 53.268954217881756 245.60771172163086 C 52.73675862217461 245.20309445345288 52.208034025574854 244.7970117547295 51.6828043709086 244.38947676223262 M 51.6828043709086 244.38947676223262 M 50.10882466699954 243.15555843158546 C 49.58474179345971 242.74043690572032 49.06425862675144 242.32384330092341 48.54739993786989 241.90579120836028 M 48.54739993786989 241.90579120836028 M 46.998929614048386 240.64000938183787 C 46.483486223223224 240.21416251017783 45.97177723151536 239.78683716492287 45.46382828045299 239.3580474148761 M 45.46382828045299 239.3580474148761 M 43.94252624052882 238.05974034949352 C 43.43629004740468 237.62294798541012 42.93392914421529 237.18467109836584 42.43547008668971 236.74492425876068 M 42.43547008668971 236.74492425876068 M 40.943123274343016 235.41343674889734 C 40.4467060114036 234.96548209230542 39.95431131384343 234.51603731572948 39.465966696254455 234.0651175156713 M 39.465966696254455 234.0651175156713 M 38.00449925342226 232.69980895937496 C 37.51855976343362 232.24048151818243 37.03679664538845 231.7796589368555 36.5592384179715 231.3173568628141 M 36.5592384179715 231.3173568628141 M 35.130720782846495 229.91761113686397 C 34.65596806121217 229.4467103355666 34.185552141683786 228.97431009497112 33.71950259226791 228.50042663823163 M 33.71950259226791 228.50042663823163 M 32.326160246027435 227.06566406408365 C 31.863356323119255 226.5830035960049 31.405056277077172 226.09884027626234 30.951290769717033 225.61319092815322 M 30.951290769717033 225.61319092815322 M 29.595512241930557 224.1428826228055 C 29.14547475968874 223.64829564437105 28.700114802348388 223.15220347822694 28.259464168335835 222.65462357129735 M 28.259464168335835 222.65462357129735 M 26.94380779130236 221.14830847409954 C 26.507412085247346 220.64165373524096 26.07587393732023 220.13349276393012 25.649226322491206 219.62384365262858 M 25.649226322491206 219.62384365262858 M 24.376425084485827 218.08114849303632 C 23.954605532372724 217.56231748429443 23.537829623895817 217.0419807313712 23.126131546184222 216.5201569918066 M 23.126131546184222 216.5201569918066 M 21.899095235311883 214.94081940377183 C 21.49284557833707 214.4097445741355 21.09183119364874 213.877166290525 20.696087510085626 213.34310399177218 M 20.696087510085626 213.34310399177218 M 19.51790117080413 211.72699887549484 C 19.128273455517384 211.18366293107863 18.744077464928814 210.6388279203003 18.365349891015086 210.09251397504084 M 18.365349891015086 210.09251397504084 M 17.23926744697493 208.43968304243742 C 16.86736918111134 207.88412927012294 16.50110295125205 207.32708323621435 16.140506723449278 206.76856577164295 M 16.140506723449278 206.76856577164295 M 15.069938473585392 205.07924997456516 C 14.716927545100978 204.51159344254089 14.369751578170094 203.94245421051127 14.028449810717314 203.37185380724912 M 14.028449810717314 203.37185380724912 M 13.016942410642338 201.64652802670759 C 12.684019297927751 201.06696739291561 12.357135131932207 200.48593673010805 12.036330404242822 199.9034582549079 M 12.036330404242822 199.9034582549079 M 11.0875379424298 198.14286722227132 C 10.775934760019421 197.55169673298784 10.470573682640982 196.95907235046332 10.171496418360674 196.3650169587695 M 10.171496418360674 196.3650169587695 M 9.289141335826828 194.57021089644593 C 9.00010733144148 193.9678319870148 8.717515536900393 193.36401912952914 8.441408817695176 192.75879584310826 M 8.441408817695176 192.75879584310826 M 7.629231754366254 190.93116378320767 C 7.364015017509866 190.31809551560224 7.105434986050776 189.703617371341 6.85353559938877 189.0877534587672 M 6.85353559938877 189.0877534587672 M 6.1152338276026015 187.2290516808711 C 5.875059200887938 186.6059390920998 5.64170731736714 185.9814450930485 5.415223080365323 185.3555943209399 M 5.415223080365323 185.3555943209399 M 4.754378032377208 183.4679669310401 C 4.540421538135685 182.83558625576683 4.333462292473315 182.20185722989115 4.133546025106818 181.5668049440541 M 4.133546025106818 181.5668049440541 M 3.5535415225064546 179.65279340787313 C 3.3669020162311156 179.01205311780177 3.1874195300658803 178.3700022349968 3.015140455193967 177.72666621302773 M 3.015140455193967 177.72666621302773 M 2.519074529101867 175.78920478041977 C 2.3607437326169523 175.1411414912177 2.2097117966600406 174.49181005546026 2.0660255832495458 173.84123618505134 M 2.0660255832495458 173.84123618505134 M 1.6566200882544857 171.88363070273746 C 1.527452579657271 171.22939926421353 1.405704804256089 170.57394667200126 1.2914238819522281 169.91729877949786 M 1.2914238819522281 169.91729877949786 M 0.970937240582152 167.94318743727723 C 0.8716223064201438 167.28404494739434 0.7798243047061924 166.62373256022332 0.6955903830459549 165.96227614436194 M 0.6955903830459549 165.96227614436194 M 0.4657395015149769 163.97557219376142 C 0.3967769059489978 163.31285622998772 0.3354025619614428 162.6490254639263 0.28166340406649953 161.98410564725754 M 0.28166340406649953 161.98410564725754 M 0.14356084416453962 159.98892391611486 C 0.10524247330930836 159.32402588872358 0.07455623199785846 158.65807143664372 0.051548597954095096 157.9910860609274 M 0.051548597954095096 157.9910860609274 M 0.0056603339796423395 155.99165690216114 C 0.001888642526221496 155.6613486755207 0 155.33079535178223 0 155 C 0 154.66364906150469 0.0019526133544641572 154.3275483488641 0.005851959877348687 153.991701088375 M 0.005851959877348687 153.991701088375 M 0.05212395745205912 151.99228077458335 C 0.07525964680934304 151.3253010553809 0.10607382150932913 150.6593525073093 0.14452000142711435 149.99446063273803 M 0.14452000142711435 149.99446063273803 M 0.28300572924238737 147.99930545999462 C 0.3368724103006157 147.3343971842427 0.39837403811794075 146.67057819480013 0.4674636767878599 146.00787424411115 M 0.4674636767878599 146.00787424411115 M 0.6976944154144228 144.02121427516857 C 0.7820544249949894 143.35977512626275 0.8739781628752826 142.69948022740078 0.9734184810708625 142.04035544738832 M 0.9734184810708625 142.04035544738832 M 1.2942790508113393 140.06630484253964 C 1.4086837786127058 139.40967966455128 1.530554903300054 138.75424999179245 1.659845305578067 138.10004167732785 M 1.659845305578067 138.10004167732785 M 2.06961640434042 136.14251268565155 C 2.2134233787278377 135.49196659618482 2.3645755253876914 134.84266312838508 2.5230259838333744 134.19462799331583 M 2.5230259838333744 134.19462799331583 M 3.01944709057005 132.2572575283468 C 3.191843226740685 131.61395389252706 3.371442142020424 130.9719355640396 3.5581974476002225 130.3312279951513 M 3.5581974476002225 130.3312279951513 M 4.138544957563046 128.41732042605113 C 4.338574051752088 127.78230461539314 4.545645423329303 127.14861221365749 4.75971334569336 126.51626830977585 M 4.75971334569336 126.51626830977585 M 5.420887851215182 124.62875628380111 C 5.6474802711021646 124.00294552996385 5.880939581401261 123.37849167908875 6.121220882532348 122.75541936634367 M 6.121220882532348 122.75541936634367 M 6.859837560293029 120.89684269460814 C 7.111840199245514 120.28102179087406 7.37052268494028 119.6665867668853 7.635841082236856 119.05356172864813 M 7.635841082236856 119.05356172864813 M 8.448317854224042 117.22606287496926 C 8.724522722779955 116.62088504852967 9.007211839159988 116.01711774491231 9.296342342533052 115.41478448067936 M 9.296342342533052 115.41478448067936 M 10.178981612997296 113.62011814742851 C 10.478151853025675 113.0261101559387 10.78360506056545 112.43353325113455 11.095299532505708 111.84241031436898 M 11.095299532505708 111.84241031436898 M 12.044360617567799 110.08196406066364 C 12.365253163442452 109.49953445444484 12.692224294020264 108.91855272310065 13.02523352286748 108.33904108042655 M 13.02523352286748 108.33904108042655 M 14.03699416989815 106.61386378614257 C 14.378378684933937 106.04331329548098 14.725636546467639 105.47422402491993 15.078728521841054 104.90661750034266 M 15.078728521841054 104.90661750034266 M 16.149535015828008 103.21745269939967 C 16.51020906310565 102.65898581542346 16.87655226729982 102.1019903988051 17.248526667664972 101.54648727756424 M 17.248526667664972 101.54648727756424 M 18.374832867060853 99.89380880363083 C 18.75363351620015 99.34754578127243 19.137901750577186 98.8027617193299 19.527600883501744 98.2594767467837 M 19.527600883501744 98.2594767467837 M 20.70599710424005 96.64352465212649 C 21.10180933153626 96.10951334112262 21.502891446843787 95.57698606178425 21.909208026541176 95.0459622500807 M 21.909208026541176 95.0459622500807 M 23.13644102645539 93.46677748720157 C 23.54820334750721 92.94500456786872 23.965042708049435 92.42471864354968 24.386924926062555 91.90593846898084 M 24.386924926062555 91.90593846898084 M 25.659910380467032 90.36339530787653 C 26.086618179050724 89.8537966580133 26.518215743855585 89.34568614952121 26.954670104884105 88.83908187213343 M 26.954670104884105 88.83908187213343 M 28.270498961032114 87.33291743294892 C 28.71120596289084 86.83538747405336 29.156621547347267 86.33934525138208 29.60671392078943 85.84480820921773 M 29.60671392078943 85.84480820921773 M 30.962653923745613 84.37464881048085 C 31.416472224351505 83.88904877454351 31.87482435013274 83.40493475741108 32.33767964391479 82.92232357983418 M 32.33767964391479 82.92232357983418 M 33.7311731795216 81.48770783945369 C 34.19727218265176 81.01387296434564 34.66773687014106 80.54152129165456 35.142537678441904 80.070669042088 M 35.142537678441904 80.070669042088 M 36.57119691060322 78.67106783239029 C 37.04880147829745 78.20881353845405 37.53061027871286 77.74803872007485 38.01659479743645 77.28875902232885 M 38.01659479743645 77.28875902232885 M 39.47819490733225 75.92359248515605 C 39.96658296706136 75.47271961266345 40.459020476452466 75.02332174370771 40.955479924996695 74.57541397255031 M 40.955479924996695 74.57541397255031 M 42.44795110162518 73.24406585959122 C 42.94645090655914 72.80436506065614 43.44885195393561 72.36613419210651 43.95512769192128 71.92938782220486 M 43.95512769192128 71.92938782220486 M 45.476546383176 70.63121745163518 C 45.98453357787891 70.20247283475739 46.496280236389296 69.77519259874795 47.01176072089073 69.34939081037342 M 47.01176072089073 69.34939081037342 M 48.560340534769736 68.08374293382087 C 49.077235141913505 67.66573505755535 49.59775367558462 67.24918564379897 50.121871368320505 66.83410828177897 M 50.121871368320505 66.83410828177897 M 51.695953914778315 65.60032114366349 C 52.221217328312264 65.19282945030595 52.749975157078396 64.78679002448582 53.28220346160997 64.38221600113174 M 53.28220346160997 64.38221600113174 M 54.880249345444916 63.179627851599406 C 55.4133813914579 62.78243262397441 55.949884133387535 62.38668327106547 56.48973441892555 61.992392495909 M 56.48973441892555 61.992392495909 M 58.11031453065824 60.82034679320088 C 58.65085063812935 60.43323070884287 59.194639269077065 60.04755397550621 59.74165801917591 59.66332888582967 M 59.74165801917591 59.66332888582967 M 61.3834452215903 58.52117839696882 C 61.93095373051672 58.1439277450059 62.48160188704835 57.768109846207636 63.035367997411065 57.39373660335276 M 63.035367997411065 57.39373660335276 M 64.69712926783713 56.28084658542158 C 65.25120889107038 55.91325220281955 65.80832033164212 55.54708394917246 66.3684425706797 55.18235335695913 M 66.3684425706797 55.18235335695913 M 68.04903163095338 54.098103976149844 C 68.60930907776961 53.73996195194739 69.1725153090866 53.383239446252254 69.7386299470673 53.02794763982459 M 69.7386299470673 53.02794763982459 M 71.43698039246306 51.97173576252098 C 72.0031081558406 51.622847951436825 72.57206622547993 51.27537309566017 73.14383483247467 50.929322041847605 M 73.14383483247467 50.929322041847605 M 74.8589537561282 49.9005625115157 C 75.43060806140586 49.56073689188662 76.00499851366772 49.222317739401284 76.58210592255189 48.885315583284815 M 76.58210592255189 48.885315583284815 M 78.313068021632 47.88344207896063 C 78.88994693126747 47.55249298436461 79.46947192041063 47.22294396668759 80.05162434852086 46.89480525348281 M 80.05162434852086 46.89480525348281 M 81.79756649158271 45.91927081004858 C 82.37938815879541 45.59701905913275 82.96376971199905 45.27616111157276 83.55069303334945 44.956706908132695 M 83.55069303334945 44.956706908132695 M 85.31080926404775 44.00698416518626 C 85.8973103269555 43.693257110085945 86.48628874827295 43.380917716592435 87.07772690725508 43.06997565272511 M 87.07772690725508 43.06997565272511 M 88.85126385724111 42.14555688745285 C 89.4421979644849 41.84018839768148 90.03553037051823 41.53620157169104 90.6312439275519 41.233605818003014 M 90.6312439275519 41.233605818003014 M 92.41749661040063 40.33400280783041 C 93.01263306903947 40.036833203561486 93.61009204691625 39.74103941869017 94.20985684643304 39.446630614730374 M 94.20985684643304 39.446630614730374 M 96.00816480444654 38.571374367419715 C 96.60728734097778 38.282250313599405 97.20865971933453 37.9944963955559 97.81226567064948 37.708121539570385 M 97.81226567064948 37.708121539570385 M 99.62200944705928 36.856761921649 C 100.22491507268782 36.575536292302644 100.83000079667342 36.295675281330425 101.4372507586491 36.0171875908806 M 101.4372507586491 36.0171875908806 M 103.25784866886471 35.18929287962294 C 103.86434664054056 34.91582459999025 104.47295774228044 34.64371559142589 105.0836665031463 34.37297434240914 M 105.0836665031463 34.37297434240914 M 106.91457168010241 33.568130721890064 C 107.52448254932057 33.3022845945885 108.13644220578186 33.037792563694374 108.75043554999574 32.77466291388395 M 108.75043554999574 32.77466291388395 M 110.59113324021456 31.99247393171937 C 111.20428798208766 31.73412045194656 111.8194296528213 31.477116067993546 112.43654350741494 31.22146887003763 M 112.43654350741494 31.22146887003763 M 114.2865485960329 30.461554868203205 C 114.90278781168064 30.210570032007702 115.5209544494642 29.960929465606444 116.14103410287697 29.712641073454403 M 116.14103410287697 29.712641073454403 M 117.99988884752476 28.974638603911952 C 118.61906203335361 28.730903712752166 119.24010536130062 28.488508439626667 119.86300474825872 28.247460511549956 M 119.86300474825872 28.247460511549956 M 121.73027670328753 27.531021745221512 C 122.35224158125224 27.294423209367533 122.97602143047881 27.05915981310327 123.601602477011 26.825239113820636 M 123.601602477011 26.825239113820636 M 125.4768825910977 26.130031249652166 C 126.10150449452827 25.900460392439285 126.72788819696751 25.672220368195315 127.3560202201541 25.445318572072512 M 127.3560202201541 25.445318572072512 M 129.23892109177487 24.771023251456224 C 129.86607240181993 24.54837611595226 130.49493423324594 24.32705567668285 131.12549339077339 24.107069173535862 M 131.12549339077339 24.107069173535862 M 133.01564766740051 23.45338190415649 C 133.64520729557321 23.237559063440234 134.27642796433426 23.0230589498092 134.90929674936953 22.809888654480012 M 134.90929674936953 22.809888654480012 M 136.8063556575131 22.176518246669414 C 137.43820857022982 21.96742461862085 138.07167474759825 21.75964991349697 138.70674152490582 21.553201080078143 M 138.70674152490582 21.553201080078143 M 140.61037351929497 20.939869097965786 C 141.24441030067015 20.73741376522758 141.8800141890891 20.536273713410242 142.51717276868888 20.336455754757132 M 142.51717276868888 20.336455754757132 M 144.4270622899593 19.742895983858585 C 145.06317873946244 19.546992019433794 145.70081767531363 19.35239985306487 146.3399669203217 19.15912616604255 M 146.3399669203217 19.15912616604255 M 148.255813251563 18.585084098407897 C 148.89391001345547 18.39564839720198 149.5334861012854 18.207521167164302 150.1745295668935 18.020708963922093 M 150.1745295668935 18.020708963922093 M 152.09604578030508 17.465941301548455 C 152.73602800206186 17.282894418038207 153.37744777748853 17.101152831516753 154.02029337832272 16.92072297695989 M 154.02029337832272 16.92072297695989 M 155.94720536404418 16.384997153839187 C 156.58898238122356 16.208263145951182 157.23215650000566 16.032831410233946 157.87671620336414 15.858708265763877 M 157.87671620336414 15.858708265763877 M 159.80876177328753 15.341801988672872 C 160.45224681854864 15.17130826787532 161.09708976953465 15.002113940392912 161.74327931223922 14.834225213910509 M 161.74327931223922 14.834225213910509 M 163.68020737228184 14.33592602184289 C 164.3253173064634 14.171603209392913 164.97174714635048 14.008577053934806 165.6194857731589 13.84685365604041 M 165.6194857731589 13.84685365604041 M 167.5610555580835 13.36695849801958 C 168.20771062145087 13.208740287260412 168.85564872947722 13.051816136258823 169.50485895119544 12.896192042536594 M 169.50485895119544 12.896192042536594 M 171.450839316617 12.434506873424652 C 172.09896289856002 12.282329897990966 172.74833374942807 12.131444520727529 173.39894111903544 11.981856639966317 M 173.39894111903544 11.981856639966317 M 175.34910988574956 11.538196033792067 C 175.998628311372 11.391999741554708 176.64935926485808 11.247092718118651 177.30129217011546 11.10348076629566 M 177.30129217011546 11.10348076629566 M 179.25543551633385 10.677667546556767 C 179.90627784851912 10.537394079118828 180.55829895436804 10.398407679926384 181.21148842552049 10.260714059761092 M 181.21148842552049 10.260714059761092 M 183.16940032300676 9.85257894610801 C 183.82149817867383 9.718173023650749 184.4747419955046 9.585052094322437 185.12912152681824 9.453221780195689 M 185.12912152681824 9.453221780195689 M 187.09060321728236 9.062603050873514 C 187.74389059666302 8.93401186214227 188.3982920237295 8.806703713526536 189.0537974077179 8.680684141551673 M 189.0537974077179 8.680684141551673 M 191.01865691616186 8.307427310957658 C 191.67307004403656 8.184600408173234 192.32856616479162 8.063054711300623 192.9851353380909 7.942795674329542 M 192.9851353380909 7.942795674329542 M 194.9531870200966 7.58675318503586 C 195.60866419802198 7.46964238351546 196.26519413452797 7.353811069266185 196.92276703447564 7.239264616612042 M 196.92276703447564 7.239264616612042 M 198.89383115469775 6.900295545203364 C 199.55031262334518 6.7888548274760385 200.20781740066104 6.678691990744937 200.86633583171664 6.569812332404564 M 200.86633583171664 6.569812332404564 M 202.8402381710886 6.247782108486289 C 203.49766598189214 6.141967532690713 204.15608840164384 6.037429340836568 204.81549591086852 5.93417275599875 M 204.81549591086852 5.93417275599875 M 206.79206740025072 5.628952893743019 C 207.45038529563334 5.528722506099689 208.10966981804552 5.42976711147028 208.76991157892627 5.332091861100612 M 208.76991157892627 5.332091861100612 M 210.74898795712798 5.043559702712104 C 211.4081412586394 4.948873453867391 212.06823389236905 4.855460910197125 212.72925659633674 4.763327153495713 M 212.72925659633674 4.763327153495713 M 214.71067809062308 4.491365623996937 C 215.37061359438061 4.402185289042609 216.03146179355224 4.314277471525839 216.69321354859983 4.227647186060487 M 216.69321354859983 4.227647186060487 M 218.67682457596177 3.9721445588159474 C 219.3374904548386 3.888433660794486 219.9990430227318 3.8059941896444047 220.6614732585907 3.7248310949687737 M 220.6614732585907 3.7248310949687737 M 222.64712214620374 3.485680767388372 C 223.30846785825716 3.407404504101504 223.9706748571453 3.3303986714116998 224.6337342365248 3.2546681559852186 M 224.6337342365248 3.2546681559852186 M 226.62127295995904 3.031768434869147 C 227.28324916263384 2.9588936088143223 227.94606182931525 2.88728830854742 228.6097021647528 2.8169573597810884 M 228.6097021647528 2.8169573597810884 M 230.59898610261894 2.6102112557907455 C 231.26154457230157 2.542706207057716 231.9249152389046 2.4764698679930377 232.5890894148128 2.4115070052528407 M 232.5890894148128 2.4115070052528407 M 234.5799771186405 2.220822036014759 C 235.24307067517506 2.158656577981836 235.90695269485263 2.097759099461443 236.5716145943846 2.038134309868577 M 236.5716145943846 2.038134309868577 M 238.56396757263232 1.8634223112406425 C 239.2275500084419 1.80656766891756 239.89189768560453 1.7509803592374666 240.5570021219909 1.6966650361120181 M 240.5570021219909 1.6966650361120181 M 242.55068463717754 1.5378419811632975 C 243.21471065066493 1.4862707320348474 243.87947917542982 1.4359662493354313 244.54498182746934 1.386933133137439 M 244.54498182746934 1.386933133137439 M 246.5398607055021 1.2439189584144397 C 247.20428583842994 1.1976049756461022 247.86943122499122 1.1525572711628564 248.53528857640418 1.1087803927918138 M 248.53528857640418 1.1087803927918138 M 250.53123302725527 0.9814988314650153 C 251.1960136058313 0.9404172293386789 251.8614926344801 0.9006014928813142 252.52766191685754 0.862056119202075 M 252.52766191685754 0.862056119202075 M 254.52454336580985 0.7504345407068873 C 255.1896364452248 0.7145616221613897 255.85540660777104 0.6799542296959804 256.52184574687396 0.646616811165718 M 256.52184574687396 0.646616811165718 M 258.51953767562264 0.5505860669716555 C 259.18490098780956 0.5198992731292859 259.85092043617675 0.4904777363445582 260.51758800136133 0.46232585662186365 M 260.51758800136133 0.46232585662186365 M 262.515965798313 0.3818201317826305 C 263.18155770271466 0.35629799334889445 263.8477852004981 0.3320409110939465 264.51464035705925 0.30905323851734734 M 264.51464035705925 0.30905323851734734 M 266.51358117622726 0.2440099086726742 C 267.17936061337656 0.22363199910252798 267.84575549017234 0.2045190105891816 268.51275795441654 0.18667525141828964 M 268.51275795441654 0.18667525141828964 M 270.5121405823566 0.13703474493573595 C 271.17806703008966 0.12178163526515867 271.84458913841695 0.10779337493381846 272.51169913528906 0.09507422825199957 M 272.51169913528906 0.09507422825199957 M 274.5114038655664 0.060779893213586206 C 275.17743729770325 0.050633108460765554 275.8440469723571 0.04175116241407823 276.511225195461 0.034138276596962974 M 276.511225195461 0.034138276596962974 M 278.5111337101785 0.01513625235136407 C 279.17723455751843 0.010078229396938363 279.84389257720295 0.006285093310717301 280.5111001510685 0.003761023970051562 M 280.5111001510685 0.003761023970051562 Z" stroke-miterlimit="10" opacity="0.52"/></g></g></g></g></g><g transform="matrix(1,0,0,1,371,227)"><g transform="translate(0,0) matrix(1,0,0,1,0,0) translate(0,0)"><g><rect fill="rgb(0,0,0)" stroke="none" x="0" y="0" width="106" height="20" fill-opacity="0"/></g></g><g transform="translate(0,0) matrix(1,0,0,1,0,0) translate(0,0)"><g><rect fill="rgb(0,0,0)" stroke="none" x="0" y="0" width="106" height="20" fill-opacity="0"/></g></g><g transform="translate(0,0) matrix(1,0,0,1,0,0) translate(0,0)"><g><rect fill="rgb(0,0,0)" stroke="none" x="0" y="0" width="93" height="20" fill-opacity="0"/></g></g><g transform="translate(0,0) matrix(1,0,0,1,0,0) translate(0,0)"><g><rect fill="rgb(0,0,0)" stroke="none" x="0" y="0" width="93" height="20" fill-opacity="0"/></g><text fill="rgb(37, 67, 86)" stroke="none" font-family="Arial" font-size="18px" font-style="normal" font-weight="normal" text-decoration="" line-height="20.5px" x="0" y="16">my</text><text fill="rgb(37, 67, 86)" stroke="none" font-family="Arial" font-size="18px" font-style="normal" font-weight="normal" text-decoration="" line-height="20.5px" x="24" y="16">-</text><text fill="rgb(37, 67, 86)" stroke="none" font-family="Arial" font-size="18px" font-style="normal" font-weight="normal" text-decoration="" line-height="20.5px" x="30" y="16">network</text></g></g><g transform="matrix(1,0,0,1,280.99998474121094,428.83333333333337)"><g transform="translate(0,0)"><g transform="translate(-284.99998474121094,-490.8194415481003) translate(4,61.98610821476694) matrix(1,0,0,1,0,0)"><g><path fill="none" stroke="#000000" d="M 284.99998474121094 490.8194415481003 L 376.2346333286624 432.83333333333337" stroke-miterlimit="10"/></g></g></g></g><g transform="matrix(1,0,0,1,421.94026081343384,428.83333333333337)"><g transform="translate(0,0)"><g transform="translate(-294.99998474121094,-500.8194415481003) translate(-126.9402760722229,71.98610821476694) matrix(1,0,0,1,0,0)"><g><path fill="none" stroke="#000000" d="M 522.3384756337732 504.3546759481461 L 425.94026081343384 432.83333333333337" stroke-miterlimit="10"/></g></g></g></g><g transform="matrix(1,0,0,1,419.99998474121094,301.8572012650878)"><g transform="translate(0,0)"><g transform="translate(-423.99998474121094,-359.8194415481003) translate(4,57.962240283012534) matrix(1,0,0,1,0,0)"><g><path fill="none" stroke="#000000" d="M 423.99998474121094 359.8194415481003 L 521.3384756337732 305.8572012650878" stroke-miterlimit="10"/></g></g></g></g><g transform="matrix(1,0,0,1,275.99998474121094,305.8194415481003)"><g transform="translate(0,0)"><g transform="translate(-279.99998474121094,-309.8194415481003) translate(4,4) matrix(1,0,0,1,0,0)"><g><path fill="none" stroke="#000000" d="M 279.99998474121094 309.8194415481003 L 341.08744707104813 383.33585865027504" stroke-miterlimit="10"/></g></g></g></g></g></svg>