<?xml version="1.0" encoding="utf-8"?><!DOCTYPE svg PUBLIC "-//W3C//DTD SVG 1.1//EN" "http://www.w3.org/Graphics/SVG/1.1/DTD/svg11.dtd"><svg version="1.1" baseProfile="full" xmlns="http://www.w3.org/2000/svg" xmlns:xlink="http://www.w3.org/1999/xlink" xmlns:ev="http://www.w3.org/2001/xml-events"   height="28px"   width="31px" ><path fill="rgb( 148, 156, 167 )" d="M23.86,20.961 C23.86,20.961 16.347,20.961 16.347,20.961 C16.347,20.961 16.347,19.801 16.347,19.801 C16.347,19.801 23.861,19.801 23.861,19.801 C27.147,19.801 29.8200000000001,17.171 29.8200000000001,13.937 C29.8200000000001,11.039 27.622,8.54599999999999 24.705,8.13799999999998 C24.514,8.11099999999999 24.348,7.99400000000003 24.2619999999999,7.82400000000001 C23.14,5.63 20.7089999999999,4.39999999999998 18.119,4.98899999999998 C17.833,5.05399999999997 17.544,4.90300000000002 17.437,4.63499999999999 C16.597,2.524 14.566,1.16000000000003 12.268,1.16000000000003 C9.20500000000004,1.16000000000003 6.71400000000006,3.61200000000002 6.71400000000006,6.62599999999998 C6.71400000000006,6.88200000000001 6.73800000000006,7.15899999999999 6.78800000000001,7.47399999999999 C6.81299999999999,7.62700000000001 6.77200000000005,7.78399999999999 6.67899999999997,7.90899999999999 C6.58600000000001,8.03399999999999 6.44500000000005,8.11599999999999 6.28999999999996,8.13799999999998 C3.37599999999998,8.54899999999998 1.17899999999997,11.042 1.17899999999997,13.936 C1.17899999999997,17.17 3.85299999999995,19.801 7.13999999999999,19.801 C7.13999999999999,19.801 12.783,19.801 12.783,19.801 C12.783,19.801 12.783,20.961 12.783,20.961 C12.783,20.961 7.13999999999999,20.961 7.13999999999999,20.961 C3.20299999999997,20.961 0,17.81 0,13.936 C0,10.658 2.35000000000002,7.81200000000001 5.55399999999997,7.09399999999999 C5.54100000000005,6.93200000000002 5.53300000000002,6.77600000000001 5.53300000000002,6.62599999999998 C5.53300000000002,2.97199999999998 8.55499999999995,0 12.2670000000001,0 C14.89,0 17.223,1.46199999999999 18.338,3.76499999999999 C21.177,3.31799999999998 23.826,4.67399999999998 25.172,7.03699999999998 C28.515,7.65100000000001 31,10.565 31,13.937 C31,17.81 27.796,20.961 23.86,20.961 ZM11.477,23.678 C11.477,23.678 13.833,25.996 13.833,25.996 C13.833,25.996 13.833,9.91699999999997 13.833,9.91699999999997 C13.833,9.58999999999997 14.102,9.32400000000001 14.436,9.32400000000001 C14.768,9.32400000000001 15.037,9.58999999999997 15.037,9.91699999999997 C15.037,9.91699999999997 15.037,25.977 15.037,25.977 C15.037,25.977 17.374,23.678 17.374,23.678 C17.607,23.447 17.989,23.447 18.224,23.678 C18.461,23.909 18.461,24.285 18.224,24.517 C18.224,24.517 14.861,27.827 14.861,27.827 C14.746,27.94 14.592,28 14.432,28 C14.432,28 14.429,27.999 14.425,27.999 C14.425,27.999 14.414,28 14.414,28 C14.2619999999999,28 14.107,27.943 13.989,27.827 C13.989,27.827 10.626,24.517 10.626,24.517 C10.39,24.285 10.39,23.909 10.626,23.678 C10.862,23.447 11.2430000000001,23.447 11.477,23.678 Z "/></svg>