<?xml version="1.0" encoding="utf-8"?><!DOCTYPE svg PUBLIC "-//W3C//DTD SVG 1.1//EN" "http://www.w3.org/Graphics/SVG/1.1/DTD/svg11.dtd"><svg version="1.1" baseProfile="full" xmlns="http://www.w3.org/2000/svg" xmlns:xlink="http://www.w3.org/1999/xlink" xmlns:ev="http://www.w3.org/2001/xml-events"   height="14px"   width="14px" ><path fill="rgb( 148, 156, 167 )" d="M13.492,13.492 C12.9849999999999,14 12.1610000000001,14 11.653,13.492 C11.653,13.492 8.47000000000003,10.309 8.47000000000003,10.309 C9.20700000000011,9.83499999999998 9.83500000000004,9.20800000000003 10.309,8.47000000000003 C10.309,8.47000000000003 13.492,11.653 13.492,11.653 C14,12.161 14,12.985 13.492,13.492 ZM5.202,10.405 C2.32899999999995,10.405 0,8.07499999999999 0,5.202 C0,2.32900000000001 2.32899999999995,0 5.202,0 C8.07500000000005,0 10.405,2.32900000000001 10.405,5.202 C10.405,8.07499999999999 8.07500000000005,10.405 5.202,10.405 ZM5.202,1.30099999999999 C3.05099999999993,1.30099999999999 1.30099999999993,3.05099999999999 1.30099999999993,5.202 C1.30099999999993,7.35399999999998 3.05099999999993,9.10399999999998 5.202,9.10399999999998 C7.35400000000004,9.10399999999998 9.10400000000004,7.35399999999998 9.10400000000004,5.202 C9.10400000000004,3.05099999999999 7.35400000000004,1.30099999999999 5.202,1.30099999999999 ZM3.03500000000008,5.202 C3.03500000000008,5.202 2.16799999999989,5.202 2.16799999999989,5.202 C2.16799999999989,3.529 3.529,2.16800000000001 5.202,2.16800000000001 C5.202,2.16800000000001 5.202,3.03500000000003 5.202,3.03500000000003 C4.00700000000006,3.03500000000003 3.03500000000008,4.00700000000001 3.03500000000008,5.202 Z "/></svg>