<?xml version="1.0" encoding="utf-8"?>
<!-- Generator: Adobe Illustrator 15.1.0, SVG Export Plug-In  -->
<!DOCTYPE svg PUBLIC "-//W3C//DTD SVG 1.1//EN" "http://www.w3.org/Graphics/SVG/1.1/DTD/svg11.dtd" [
	<!ENTITY ns_flows "http://ns.adobe.com/Flows/1.0/">
]>
<svg version="1.1"
	 xmlns="http://www.w3.org/2000/svg" xmlns:xlink="http://www.w3.org/1999/xlink" xmlns:a="http://ns.adobe.com/AdobeSVGViewerExtensions/3.0/"
	 x="0px" y="0px" width="80px" height="80px" viewBox="-3.207 -13.122 80 80"
	 overflow="visible" enable-background="new -3.207 -13.122 80 80" xml:space="preserve">
<defs>
</defs>
<path fill="none" stroke="#61594D" stroke-width="2.1617" stroke-miterlimit="10" d="M42.432,17.523
	c-1.643,0.161-3.166,0.732-4.467,1.608c2.182,2.011,3.551,4.888,3.551,8.08c0,6.056-4.926,10.985-10.984,10.985
	c-6.056,0-10.984-4.93-10.984-10.985s4.928-10.984,10.984-10.984c0.138,0,0.275,0.004,0.414,0.008
	c1.267-1.434,2.779-2.651,4.47-3.58c-1.535-0.516-3.178-0.796-4.884-0.796c-8.466,0-15.353,6.887-15.353,15.353
	s6.887,15.353,15.353,15.353c8.465,0,15.353-6.887,15.353-15.353C45.885,23.54,44.589,20.168,42.432,17.523z"/>
<path fill="none" stroke="#61594D" stroke-width="2.1617" stroke-miterlimit="10" d="M43.388,11.859
	c-8.464,0-15.352,6.887-15.352,15.353c0,3.672,1.294,7.044,3.453,9.688c1.643-0.161,3.165-0.731,4.468-1.607
	c-2.183-2.01-3.551-4.888-3.551-8.081c0-6.056,4.925-10.984,10.983-10.984c6.057,0,10.985,4.929,10.985,10.984
	s-4.928,10.985-10.985,10.985c-0.138,0-0.274-0.004-0.413-0.01c-1.269,1.436-2.781,2.652-4.47,3.581
	c1.534,0.518,3.176,0.796,4.883,0.796c8.467,0,15.354-6.887,15.354-15.353S51.855,11.859,43.388,11.859z"/>
<rect x="5.766" y="5.767" fill="none" stroke="#61594D" stroke-width="1.0106" stroke-miterlimit="10" width="61.344" height="43.301"/>
<rect x="0.954" y="0.954" fill="none" stroke="#61594D" stroke-width="1.9073" stroke-miterlimit="10" width="70.969" height="52.925"/>
</svg>
