<?xml version="1.0" encoding="utf-8"?>
<!-- Generator: Adobe Illustrator 15.1.0, SVG Export Plug-In  -->
<!DOCTYPE svg PUBLIC "-//W3C//DTD SVG 1.1//EN" "http://www.w3.org/Graphics/SVG/1.1/DTD/svg11.dtd" [
	<!ENTITY ns_flows "http://ns.adobe.com/Flows/1.0/">
]>
<svg version="1.1"
	 xmlns="http://www.w3.org/2000/svg" xmlns:xlink="http://www.w3.org/1999/xlink" xmlns:a="http://ns.adobe.com/AdobeSVGViewerExtensions/3.0/"
	 x="0px" y="0px" width="80px" height="80px" viewBox="-3.208 -6.686 80 80"
	 overflow="visible" enable-background="new -3.208 -6.686 80 80" xml:space="preserve">
<defs>
</defs>
<rect x="5.766" y="12.203" fill="none" stroke="#61594D" stroke-width="1.0106" stroke-miterlimit="10" width="61.344" height="43.301"/>
<rect x="0.954" y="7.391" fill="none" stroke="#61594D" stroke-width="1.9073" stroke-miterlimit="10" width="70.969" height="52.925"/>
<g>
	<path fill="#FFFFFF" d="M37.043,54.814c-0.42,0-0.829-0.177-1.117-0.499c-4.151-4.631-17.456-19.042-23.918-24.341
		c-0.462-0.38-0.655-0.997-0.491-1.572c0.165-0.575,0.655-0.998,1.248-1.075l11.175-1.459c0.065-0.009,0.13-0.013,0.194-0.013
		c0.45,0,0.88,0.202,1.167,0.558l9.429,11.666c3.822-5.974,15.658-24.065,26.341-36.076c0.285-0.32,0.693-0.503,1.121-0.503
		c0.013,0,0.027,0,0.04,0.001c0.488,0.013,1.225,0.016,2.044,0.019c1.836,0.007,3.918,0.015,4.915,0.131
		c0.585,0.069,1.076,0.474,1.255,1.034c0.179,0.562,0.013,1.175-0.424,1.569c-12.467,11.253-30.379,44.05-31.509,49.372
		c-0.117,0.553-0.535,0.992-1.081,1.138C37.302,54.798,37.172,54.814,37.043,54.814z"/>
	<path fill="#FFFFFF" d="M62.191,3c1.529,0.041,5.474-0.018,6.824,0.141c-12.833,11.583-30.78,44.561-31.972,50.174
		c-3.533-3.941-17.288-18.928-24.084-24.5l11.175-1.459l10.742,13.292C34.876,40.648,49.442,17.334,62.191,3 M62.191,0
		c-0.855,0-1.671,0.365-2.242,1.006c-9.825,11.047-20.731,27.383-25.356,34.518L26.468,25.47c-0.574-0.71-1.434-1.114-2.333-1.114
		c-0.129,0-0.259,0.009-0.389,0.025L12.571,25.84c-1.187,0.154-2.167,1-2.496,2.149c-0.329,1.15,0.057,2.387,0.982,3.146
		c6.39,5.239,19.621,19.573,23.752,24.183c0.577,0.644,1.394,0.997,2.234,0.997c0.258,0,0.518-0.033,0.774-0.102
		c1.091-0.291,1.926-1.171,2.161-2.275c1.109-5.225,18.753-37.474,31.047-48.57c0.874-0.789,1.206-2.017,0.848-3.139
		s-1.339-1.931-2.509-2.067c-1.003-0.117-2.74-0.133-5.083-0.142c-0.805-0.003-1.53-0.006-2.009-0.019C62.245,0,62.218,0,62.191,0
		L62.191,0z"/>
	<path fill="none" stroke="#61594D" stroke-width="2.5" stroke-linecap="round" stroke-linejoin="round" stroke-miterlimit="10" d="
		M12.959,28.814c6.796,5.572,20.551,20.559,24.084,24.5c1.191-5.613,19.139-38.591,31.972-50.174C67.665,2.982,63.72,3.041,62.191,3
		C49.442,17.334,34.876,40.648,34.876,40.647L24.134,27.355L12.959,28.814z"/>
</g>
</svg>
