<?xml version="1.0" encoding="utf-8"?>
<!-- Generator: Adobe Illustrator 15.1.0, SVG Export Plug-In  -->
<!DOCTYPE svg PUBLIC "-//W3C//DTD SVG 1.1//EN" "http://www.w3.org/Graphics/SVG/1.1/DTD/svg11.dtd" [
	<!ENTITY ns_flows "http://ns.adobe.com/Flows/1.0/">
]>
<svg version="1.1"
	 xmlns="http://www.w3.org/2000/svg" xmlns:xlink="http://www.w3.org/1999/xlink" xmlns:a="http://ns.adobe.com/AdobeSVGViewerExtensions/3.0/"
	 x="0px" y="0px" width="80px" height="80px" viewBox="-3.207 -13.122 80 80"
	 overflow="visible" enable-background="new -3.207 -13.122 80 80" xml:space="preserve">
<defs>
</defs>
<rect x="5.766" y="5.767" fill="none" stroke="#61594D" stroke-width="1.0106" stroke-miterlimit="10" width="61.344" height="43.301"/>
<rect x="0.954" y="0.954" fill="none" stroke="#61594D" stroke-width="1.9073" stroke-miterlimit="10" width="70.969" height="52.925"/>
<path fill="#FFFFFF" d="M44.096,24.671v-7.327c0-4.784-3.894-8.677-8.678-8.677c-4.783,0-8.678,3.893-8.678,8.677v7.326l8.885,0.298
	L44.096,24.671z"/>
<path fill="#FFFFFF" d="M35.812,51.088L16.73,51.456V22.442l3.781,0.129v-5.228c0-8.22,6.688-14.906,14.907-14.906
	c8.219,0,14.904,6.687,14.904,14.906v5.223l3.581-0.126v29.021L35.812,51.088z M22.663,45.409l13.154-0.251l12.156,0.248V28.583
	l-12.346,0.43l-12.965-0.434V45.409z M35.625,23.079l6.585-0.23v-5.505c0-3.743-3.046-6.789-6.791-6.789
	c-3.746,0-6.791,3.046-6.791,6.789v5.501L35.625,23.079z"/>
<path fill="#FFFFFF" d="M48.436,24.521v-7.178c0-7.178-5.839-13.02-13.018-13.02c-7.18,0-13.021,5.842-13.021,13.02v7.18
	l-3.781-0.128v25.138l17.234-0.331l16.166,0.334V24.396L48.436,24.521z M26.741,17.344c0-4.784,3.895-8.677,8.678-8.677
	c4.784,0,8.678,3.893,8.678,8.677v7.327l-8.471,0.297l-8.885-0.298V17.344z M49.86,47.332l-14.008-0.287l-15.077,0.288V26.629
	l1.623,0.054l4.343,0.145l8.886,0.298l8.47-0.296l4.34-0.15l1.424-0.048V47.332z"/>
<path fill="none" d="M44.096,24.671v-7.327c0-4.784-3.894-8.677-8.678-8.677c-4.783,0-8.678,3.893-8.678,8.677v7.326l8.885,0.298
	L44.096,24.671z"/>
<path fill="#61594D" d="M48.436,24.521v-7.178c0-7.178-5.839-13.02-13.018-13.02c-7.18,0-13.021,5.842-13.021,13.02v7.18
	l-3.781-0.128v25.138l17.234-0.331l16.166,0.334V24.396L48.436,24.521z M26.741,17.344c0-4.784,3.895-8.677,8.678-8.677
	c4.784,0,8.678,3.893,8.678,8.677v7.327l-8.471,0.297l-8.885-0.298V17.344z M49.86,47.332l-14.008-0.287l-15.077,0.288V26.629
	l1.623,0.054l4.343,0.145l8.886,0.298l8.47-0.296l4.34-0.15l1.424-0.048V47.332z"/>
</svg>
