<?xml version="1.0" encoding="utf-8"?>
<!-- Generator: Adobe Illustrator 15.1.0, SVG Export Plug-In  -->
<!DOCTYPE svg PUBLIC "-//W3C//DTD SVG 1.1//EN" "http://www.w3.org/Graphics/SVG/1.1/DTD/svg11.dtd" [
	<!ENTITY ns_flows "http://ns.adobe.com/Flows/1.0/">
]>
<svg version="1.1"
	 xmlns="http://www.w3.org/2000/svg" xmlns:xlink="http://www.w3.org/1999/xlink" xmlns:a="http://ns.adobe.com/AdobeSVGViewerExtensions/3.0/"
	 x="0px" y="0px" width="80px" height="80px" viewBox="-3.207 -13.122 80 80"
	 overflow="visible" enable-background="new -3.207 -13.122 80 80" xml:space="preserve">
<defs>
</defs>
<path fill="none" stroke="#61594D" stroke-width="2.4057" stroke-miterlimit="10" d="M12.981,48.299l22.554,0.168
	c0.114-0.186,0.235-0.387,0.364-0.604"/>
<path fill="none" stroke="#61594D" stroke-width="2.4057" stroke-miterlimit="10" d="M35.899,47.863
	c0.983-1.663,2.321-4.137,3.846-5.712c8.494,3.292,16.54,1.502,21.238-1.829c-2.895-5.689-3.551-7.998-14.021-7.794
	c2.274-8.456-3.161-13.591-6.828-17.14c-4.713,6.089-8.208,13.362-4.485,20.521c-7.006,0.11-19.571,7.109-22.434,11.953"/>
<rect x="5.766" y="5.767" fill="none" stroke="#61594D" stroke-width="1.0106" stroke-miterlimit="10" width="61.343" height="43.301"/>
<rect x="0.954" y="0.954" fill="none" stroke="#61594D" stroke-width="1.9073" stroke-miterlimit="10" width="70.968" height="52.925"/>
</svg>
