<?xml version="1.0" encoding="utf-8"?>
<!-- Generator: Adobe Illustrator 15.1.0, SVG Export Plug-In  -->
<!DOCTYPE svg PUBLIC "-//W3C//DTD SVG 1.1//EN" "http://www.w3.org/Graphics/SVG/1.1/DTD/svg11.dtd" [
	<!ENTITY ns_flows "http://ns.adobe.com/Flows/1.0/">
]>
<svg version="1.1"
	 xmlns="http://www.w3.org/2000/svg" xmlns:xlink="http://www.w3.org/1999/xlink" xmlns:a="http://ns.adobe.com/AdobeSVGViewerExtensions/3.0/"
	 x="0px" y="0px" width="80px" height="80px" viewBox="-3.209 -13.12 80 80"
	 overflow="visible" enable-background="new -3.209 -13.12 80 80" xml:space="preserve">
<defs>
</defs>
<rect x="5.767" y="5.767" fill="none" stroke="#61594D" stroke-width="1.0106" stroke-miterlimit="10" width="61.344" height="43.301"/>
<rect x="0.954" y="0.954" fill="none" stroke="#61594D" stroke-width="1.9073" stroke-miterlimit="10" width="70.969" height="52.926"/>
<g>
	<path fill="#FFFFFF" d="M59.302,26.634c0,12.289-9.963,22.254-22.254,22.254s-22.254-9.965-22.254-22.254
		c0-12.291,9.963-22.254,22.254-22.254S59.302,14.343,59.302,26.634z M37.048,11.228c-8.508,0-15.406,6.898-15.406,15.406
		s6.898,15.404,15.406,15.404s15.406-6.896,15.406-15.404S45.556,11.228,37.048,11.228z"/>
	<path fill="none" stroke="#FFFFFF" stroke-width="5.9714" stroke-miterlimit="10" d="M59.302,26.634
		c0,12.289-9.963,22.254-22.254,22.254s-22.254-9.965-22.254-22.254c0-12.291,9.963-22.254,22.254-22.254
		S59.302,14.343,59.302,26.634z M37.048,11.228c-8.508,0-15.406,6.898-15.406,15.406s6.898,15.404,15.406,15.404
		s15.406-6.896,15.406-15.404S45.556,11.228,37.048,11.228z"/>
	<path fill="none" stroke="#61594D" stroke-width="1.9677" stroke-miterlimit="10" d="M59.302,26.634
		c0,12.289-9.963,22.254-22.254,22.254s-22.254-9.965-22.254-22.254c0-12.291,9.963-22.254,22.254-22.254
		S59.302,14.343,59.302,26.634z M37.048,11.228c-8.508,0-15.406,6.898-15.406,15.406s6.898,15.404,15.406,15.404
		s15.406-6.896,15.406-15.404S45.556,11.228,37.048,11.228z"/>
</g>
<rect x="12.804" y="19.217" transform="matrix(0.9777 -0.2102 0.2102 0.9777 -4.8318 8.4803)" fill="#FFFFFF" stroke="#61594D" stroke-width="1.9677" stroke-miterlimit="10" width="49.352" height="15.509"/>
<path fill="#61594D" d="M18.196,28.699c-0.248-1.142,0.21-1.924,1.31-2.164c1.1-0.239,1.843,0.28,2.091,1.422l0.809,3.706
	c0.248,1.14-0.21,1.923-1.31,2.162c-1.1,0.24-1.843-0.28-2.091-1.42L18.196,28.699z M20.14,32.232
	c0.111,0.509,0.378,0.653,0.734,0.575c0.356-0.077,0.538-0.32,0.428-0.828l-0.84-3.85c-0.111-0.51-0.377-0.653-0.734-0.576
	c-0.355,0.078-0.538,0.32-0.427,0.83L20.14,32.232z"/>
<path fill="#61594D" d="M25.39,28.655l1.445-0.315l0.223,1.018l-1.445,0.315l0.642,2.942l-1.12,0.244l-1.555-7.127l2.963-0.646
	l0.223,1.018l-1.844,0.401L25.39,28.655z"/>
<path fill="#61594D" d="M30.524,27.535l1.445-0.314l0.223,1.018l-1.445,0.314l0.642,2.942l-1.12,0.245l-1.555-7.127l2.963-0.646
	l0.223,1.018l-1.844,0.401L30.524,27.535z"/>
<path fill="#61594D" d="M33.848,23.493l1.12-0.244l1.555,7.127l-1.12,0.244L33.848,23.493z"/>
<path fill="#61594D" d="M41.636,26.477l0.207,0.947c0.248,1.14-0.18,1.915-1.279,2.155s-1.812-0.287-2.061-1.427l-0.808-3.706
	c-0.249-1.142,0.179-1.917,1.278-2.157c1.1-0.239,1.812,0.287,2.061,1.429l0.151,0.691l-1.059,0.231l-0.167-0.763
	c-0.111-0.51-0.377-0.654-0.733-0.577c-0.356,0.078-0.538,0.32-0.428,0.83l0.84,3.849c0.11,0.509,0.375,0.644,0.731,0.565
	c0.356-0.077,0.541-0.31,0.43-0.818l-0.223-1.019L41.636,26.477z"/>
<path fill="#61594D" d="M42.976,21.502l1.12-0.244l1.555,7.127l-1.12,0.244L42.976,21.502z"/>
<path fill="#61594D" d="M51.721,27.061l-1.13,0.247l-0.477-1.25l-1.374,0.3l0.089,1.334L47.8,27.916l-0.414-7.376l1.641-0.357
	L51.721,27.061z M48.672,25.358l1.079-0.235l-1.326-3.486L48.672,25.358z"/>
<path fill="#61594D" d="M52.317,19.465l1.12-0.244l1.333,6.109l1.843-0.402l0.222,1.018l-2.963,0.646L52.317,19.465z"/>
</svg>
