<?xml version="1.0" encoding="utf-8"?>
<!-- Generator: Adobe Illustrator 15.1.0, SVG Export Plug-In  -->
<!DOCTYPE svg PUBLIC "-//W3C//DTD SVG 1.1//EN" "http://www.w3.org/Graphics/SVG/1.1/DTD/svg11.dtd" [
	<!ENTITY ns_flows "http://ns.adobe.com/Flows/1.0/">
]>
<svg version="1.1"
	 xmlns="http://www.w3.org/2000/svg" xmlns:xlink="http://www.w3.org/1999/xlink" xmlns:a="http://ns.adobe.com/AdobeSVGViewerExtensions/3.0/"
	 x="0px" y="0px" width="62px" height="45px" viewBox="0 0 62 45" overflow="visible" enable-background="new 0 0 62 45"
	 xml:space="preserve">
<defs>
</defs>
<path fill="none" stroke="#61594D" stroke-width="2.9284" stroke-miterlimit="10" d="M38.383,9.137
	c-2.225,0.218-4.288,0.993-6.051,2.18c2.956,2.723,4.81,6.621,4.81,10.945c0,8.204-6.674,14.881-14.88,14.881
	c-8.203,0-14.88-6.677-14.88-14.881s6.677-14.881,14.88-14.881c0.187,0,0.373,0.006,0.561,0.013
	c1.716-1.944,3.765-3.592,6.056-4.851c-2.08-0.699-4.305-1.078-6.616-1.078c-11.468,0-20.798,9.33-20.798,20.798
	s9.33,20.798,20.798,20.798c11.468,0,20.799-9.33,20.799-20.798C43.061,17.288,41.305,12.72,38.383,9.137z"/>
<path fill="none" stroke="#61594D" stroke-width="2.9284" stroke-miterlimit="10" d="M39.679,1.464
	c-11.466,0-20.797,9.33-20.797,20.798c0,4.974,1.754,9.542,4.678,13.125c2.225-0.219,4.288-0.991,6.052-2.177
	c-2.957-2.723-4.811-6.622-4.811-10.948c0-8.204,6.672-14.881,14.878-14.881c8.205,0,14.881,6.677,14.881,14.881
	s-6.677,14.881-14.881,14.881c-0.187,0-0.372-0.006-0.559-0.013c-1.719,1.944-3.767,3.592-6.056,4.851
	c2.078,0.701,4.303,1.078,6.615,1.078c11.47,0,20.799-9.33,20.799-20.798S51.148,1.464,39.679,1.464z"/>
</svg>
