<?xml version="1.0" encoding="utf-8"?>
<!-- Generator: Adobe Illustrator 15.1.0, SVG Export Plug-In  -->
<!DOCTYPE svg PUBLIC "-//W3C//DTD SVG 1.1//EN" "http://www.w3.org/Graphics/SVG/1.1/DTD/svg11.dtd" [
	<!ENTITY ns_flows "http://ns.adobe.com/Flows/1.0/">
]>
<svg version="1.1"
	 xmlns="http://www.w3.org/2000/svg" xmlns:xlink="http://www.w3.org/1999/xlink" xmlns:a="http://ns.adobe.com/AdobeSVGViewerExtensions/3.0/"
	 x="0px" y="0px" width="80px" height="80px" viewBox="-16.823 -9.444 80 80"
	 overflow="visible" enable-background="new -16.823 -9.444 80 80" xml:space="preserve">
<defs>
</defs>
<path fill="none" d="M34.125,27.253v-9.815c0-6.408-5.215-11.622-11.623-11.622S10.879,11.03,10.879,17.438v9.811l11.899,0.4
	L34.125,27.253z"/>
<path fill="#61594D" d="M39.94,27.05v-9.612C39.94,7.823,32.118,0,22.502,0S5.063,7.823,5.063,17.438v9.615L0,26.884v33.67
	l23.083-0.443l21.652,0.445V26.883L39.94,27.05z M10.879,17.438c0-6.408,5.215-11.622,11.623-11.622s11.623,5.214,11.623,11.622
	v9.815L22.778,27.65l-11.899-0.4V17.438z M41.846,57.605l-18.762-0.386L2.89,57.606V29.874l2.174,0.072l5.815,0.195l11.901,0.398
	l11.345-0.395l5.815-0.202l1.905-0.066V57.605z"/>
</svg>
