<svg version="1.1" xmlns="http://www.w3.org/2000/svg" xmlns:xlink="http://www.w3.org/1999/xlink" width="398" height="255.1428540910994"><style xmlns="http://www.w3.org/1999/xhtml"></style><defs><linearGradient id="eHLTJhLUxURP" x1="0px" x2="0px" y1="100px" y2="-50px" gradientUnits="userSpaceOnUse"><stop offset="0" stop-color="#3d85c6"/><stop offset="1" stop-color="#FFFFFF"/></linearGradient><linearGradient id="kiBCDNltUqyD" x1="0px" x2="0px" y1="100px" y2="-50px" gradientUnits="userSpaceOnUse"><stop offset="0" stop-color="#3d85c6"/><stop offset="1" stop-color="#FFFFFF"/></linearGradient><linearGradient id="eyDhrVTkoUqx" x1="0px" x2="0px" y1="100px" y2="-50px" gradientUnits="userSpaceOnUse"><stop offset="0" stop-color="#3d85c6"/><stop offset="1" stop-color="#FFFFFF"/></linearGradient></defs><g transform="translate(0,0)"><g><rect fill="#ffffff" stroke="none" x="0" y="0" width="398" height="255.1428540910994"/></g><g transform="translate(0,0) matrix(1,0,0,1,193,159.46785409109935)"><g><g transform="translate(0,0) scale(0.62,0.2946428571428572)"><g><path fill="url(#eHLTJhLUxURP)" stroke="none" d="M 0 0 L 100 0 Q 100 0 100 0 L 100 100 Q 100 100 100 100 L 0 100 Q 0 100 0 100 L 0 0 Q 0 0 0 0 Z"/><g transform="scale(1.6129032258064517,3.393939393939393)"><path fill="none" stroke="none" d="M 0 0 L 62 0 Q 62 0 62 0 L 62 29.464285714285722 Q 62 29.464285714285722 62 29.464285714285722 L 0 29.464285714285722 Q 0 29.464285714285722 0 29.464285714285722 L 0 0 Q 0 0 0 0 Z"/><path fill="url(#eHLTJhLUxURP)" stroke="#6fa8dc" d="M 0 0 M 0 0 L 62 0 Q 62 0 62 0 L 62 29.464285714285722 Q 62 29.464285714285722 62 29.464285714285722 L 0 29.464285714285722 Q 0 29.464285714285722 0 29.464285714285722 L 0 0 Q 0 0 0 0 Z" stroke-miterlimit="10" stroke-width="2"/></g></g></g></g></g><g transform="matrix(1,0,0,1,200.4593795664339,154.9678540910995)"><g transform="translate(0,0)"><g transform="translate(-202.92,-159.07499694824222) translate(2.4606204335660777,4.107142857142719) matrix(1,0,0,1,0,0)"><g><path fill="none" stroke="#0b5394" d="M 204.9593795664339 159.4678540910995 L 204.9593795664339 188.93213980538494" stroke-miterlimit="10" stroke-width="2"/></g></g></g></g><g transform="matrix(1,0,0,1,238.54062043356592,154.96785409109907)"><g transform="translate(0,0)"><g transform="translate(-244.46,-160.6464255196708) translate(5.919379566434088,5.678571428571729) matrix(1,0,0,1,0,0)"><g><path fill="none" stroke="#0b5394" d="M 243.04062043356592 159.46785409109907 L 243.04062043356592 188.93213980538522" stroke-miterlimit="10" stroke-width="2"/></g></g></g></g><g transform="matrix(1,0,0,1,219.5,154.96785409109935)"><g transform="translate(0,0)"><g transform="translate(-222.14,-160.6464255196708) translate(2.6399999999999864,5.678571428571445) matrix(1,0,0,1,0,0)"><g><path fill="none" stroke="#0b5394" d="M 224 159.46785409109935 L 224 188.93213980538508" stroke-miterlimit="10" stroke-width="2"/></g></g></g></g><g transform="matrix(1,0,0,1,151,196)"><g><g><rect fill="rgb(0,0,0)" stroke="none" x="0" y="0" width="146" height="14" fill-opacity="0"/></g></g><g><g><rect fill="rgb(0,0,0)" stroke="none" x="0" y="0" width="146" height="14" fill-opacity="0"/></g></g><g><g><rect fill="rgb(0,0,0)" stroke="none" x="44.97500228881836" y="0" width="57" height="14" fill-opacity="0"/></g></g><g><g><rect fill="rgb(0,0,0)" stroke="none" x="44.97500228881836" y="0" width="57" height="14" fill-opacity="0"/></g><text fill="rgb(0, 0, 0)" stroke="none" font-family="Arial" font-size="12px" font-style="normal" font-weight="normal" text-decoration="" line-height="14px" x="44.79999923706055" y="12">c</text><text fill="rgb(0, 0, 0)" stroke="none" font-family="Arial" font-size="12px" font-style="normal" font-weight="normal" text-decoration="" line-height="14px" x="51.20000076293945" y="12">o</text><text fill="rgb(0, 0, 0)" stroke="none" font-family="Arial" font-size="12px" font-style="normal" font-weight="normal" text-decoration="" line-height="14px" x="57.60000228881836" y="12">n</text><text fill="rgb(0, 0, 0)" stroke="none" font-family="Arial" font-size="12px" font-style="normal" font-weight="normal" text-decoration="" line-height="14px" x="64" y="12">t</text><text fill="rgb(0, 0, 0)" stroke="none" font-family="Arial" font-size="12px" font-style="normal" font-weight="normal" text-decoration="" line-height="14px" x="68" y="12">a</text><text fill="rgb(0, 0, 0)" stroke="none" font-family="Arial" font-size="12px" font-style="normal" font-weight="normal" text-decoration="" line-height="14px" x="74.4000015258789" y="12">i</text><text fill="rgb(0, 0, 0)" stroke="none" font-family="Arial" font-size="12px" font-style="normal" font-weight="normal" text-decoration="" line-height="14px" x="76.80000305175781" y="12">n</text><text fill="rgb(0, 0, 0)" stroke="none" font-family="Arial" font-size="12px" font-style="normal" font-weight="normal" text-decoration="" line-height="14px" x="84" y="12">e</text><text fill="rgb(0, 0, 0)" stroke="none" font-family="Arial" font-size="12px" font-style="normal" font-weight="normal" text-decoration="" line-height="14px" x="90.4000015258789" y="12">r</text><text fill="rgb(0, 0, 0)" stroke="none" font-family="Arial" font-size="12px" font-style="normal" font-weight="normal" text-decoration="" line-height="14px" x="94.4000015258789" y="12">2</text></g></g><g transform="translate(0,0) matrix(1,0,0,1,270,160.46785409109935)"><g><g transform="translate(0,0) scale(0.62,0.2946428571428572)"><g><path fill="url(#kiBCDNltUqyD)" stroke="none" d="M 0 0 L 100 0 Q 100 0 100 0 L 100 100 Q 100 100 100 100 L 0 100 Q 0 100 0 100 L 0 0 Q 0 0 0 0 Z"/><g transform="scale(1.6129032258064517,3.393939393939393)"><path fill="none" stroke="none" d="M 0 0 L 62 0 Q 62 0 62 0 L 62 29.464285714285722 Q 62 29.464285714285722 62 29.464285714285722 L 0 29.464285714285722 Q 0 29.464285714285722 0 29.464285714285722 L 0 0 Q 0 0 0 0 Z"/><path fill="url(#kiBCDNltUqyD)" stroke="#6fa8dc" d="M 0 0 M 0 0 L 62 0 Q 62 0 62 0 L 62 29.464285714285722 Q 62 29.464285714285722 62 29.464285714285722 L 0 29.464285714285722 Q 0 29.464285714285722 0 29.464285714285722 L 0 0 Q 0 0 0 0 Z" stroke-miterlimit="10" stroke-width="2"/></g></g></g></g></g><g transform="matrix(1,0,0,1,277.45937956643394,155.9678540910995)"><g transform="translate(0,0)"><g transform="translate(-279.92,-160.07499694824222) translate(2.4606204335660777,4.107142857142719) matrix(1,0,0,1,0,0)"><g><path fill="none" stroke="#0b5394" d="M 281.95937956643394 160.4678540910995 L 281.95937956643394 189.93213980538494" stroke-miterlimit="10" stroke-width="2"/></g></g></g></g><g transform="matrix(1,0,0,1,315.5406204335659,155.96785409109907)"><g transform="translate(0,0)"><g transform="translate(-321.46,-161.6464255196708) translate(5.919379566434088,5.678571428571729) matrix(1,0,0,1,0,0)"><g><path fill="none" stroke="#0b5394" d="M 320.0406204335659 160.46785409109907 L 320.0406204335659 189.93213980538522" stroke-miterlimit="10" stroke-width="2"/></g></g></g></g><g transform="matrix(1,0,0,1,296.5,155.96785409109935)"><g transform="translate(0,0)"><g transform="translate(-299.14,-161.6464255196708) translate(2.6399999999999864,5.678571428571445) matrix(1,0,0,1,0,0)"><g><path fill="none" stroke="#0b5394" d="M 301 160.46785409109935 L 301 189.93213980538508" stroke-miterlimit="10" stroke-width="2"/></g></g></g></g><g transform="matrix(1,0,0,1,228,197)"><g><g><rect fill="rgb(0,0,0)" stroke="none" x="0" y="0" width="146" height="14" fill-opacity="0"/></g></g><g><g><rect fill="rgb(0,0,0)" stroke="none" x="0" y="0" width="146" height="14" fill-opacity="0"/></g></g><g><g><rect fill="rgb(0,0,0)" stroke="none" x="44.97500228881836" y="0" width="57" height="14" fill-opacity="0"/></g></g><g><g><rect fill="rgb(0,0,0)" stroke="none" x="44.97500228881836" y="0" width="57" height="14" fill-opacity="0"/></g><text fill="rgb(0, 0, 0)" stroke="none" font-family="Arial" font-size="12px" font-style="normal" font-weight="normal" text-decoration="" line-height="14px" x="44.79999923706055" y="12">c</text><text fill="rgb(0, 0, 0)" stroke="none" font-family="Arial" font-size="12px" font-style="normal" font-weight="normal" text-decoration="" line-height="14px" x="51.20000076293945" y="12">o</text><text fill="rgb(0, 0, 0)" stroke="none" font-family="Arial" font-size="12px" font-style="normal" font-weight="normal" text-decoration="" line-height="14px" x="57.60000228881836" y="12">n</text><text fill="rgb(0, 0, 0)" stroke="none" font-family="Arial" font-size="12px" font-style="normal" font-weight="normal" text-decoration="" line-height="14px" x="64" y="12">t</text><text fill="rgb(0, 0, 0)" stroke="none" font-family="Arial" font-size="12px" font-style="normal" font-weight="normal" text-decoration="" line-height="14px" x="68" y="12">a</text><text fill="rgb(0, 0, 0)" stroke="none" font-family="Arial" font-size="12px" font-style="normal" font-weight="normal" text-decoration="" line-height="14px" x="74.4000015258789" y="12">i</text><text fill="rgb(0, 0, 0)" stroke="none" font-family="Arial" font-size="12px" font-style="normal" font-weight="normal" text-decoration="" line-height="14px" x="76.80000305175781" y="12">n</text><text fill="rgb(0, 0, 0)" stroke="none" font-family="Arial" font-size="12px" font-style="normal" font-weight="normal" text-decoration="" line-height="14px" x="84" y="12">e</text><text fill="rgb(0, 0, 0)" stroke="none" font-family="Arial" font-size="12px" font-style="normal" font-weight="normal" text-decoration="" line-height="14px" x="90.4000015258789" y="12">r</text><text fill="rgb(0, 0, 0)" stroke="none" font-family="Arial" font-size="12px" font-style="normal" font-weight="normal" text-decoration="" line-height="14px" x="94.4000015258789" y="12">3</text></g></g><g transform="translate(0,0) matrix(1,0,0,1,116,159.46785409109935)"><g><g transform="translate(0,0) scale(0.62,0.2946428571428572)"><g><path fill="url(#eyDhrVTkoUqx)" stroke="none" d="M 0 0 L 100 0 Q 100 0 100 0 L 100 100 Q 100 100 100 100 L 0 100 Q 0 100 0 100 L 0 0 Q 0 0 0 0 Z"/><g transform="scale(1.6129032258064517,3.393939393939393)"><path fill="none" stroke="none" d="M 0 0 L 62 0 Q 62 0 62 0 L 62 29.464285714285722 Q 62 29.464285714285722 62 29.464285714285722 L 0 29.464285714285722 Q 0 29.464285714285722 0 29.464285714285722 L 0 0 Q 0 0 0 0 Z"/><path fill="url(#eyDhrVTkoUqx)" stroke="#6fa8dc" d="M 0 0 M 0 0 L 62 0 Q 62 0 62 0 L 62 29.464285714285722 Q 62 29.464285714285722 62 29.464285714285722 L 0 29.464285714285722 Q 0 29.464285714285722 0 29.464285714285722 L 0 0 Q 0 0 0 0 Z" stroke-miterlimit="10" stroke-width="2"/></g></g></g></g></g><g transform="matrix(1,0,0,1,123.45937956643391,154.9678540910995)"><g transform="translate(0,0)"><g transform="translate(-125.91999999999999,-159.07499694824222) translate(2.4606204335660777,4.107142857142719) matrix(1,0,0,1,0,0)"><g><path fill="none" stroke="#0b5394" d="M 127.95937956643391 159.4678540910995 L 127.95937956643391 188.93213980538494" stroke-miterlimit="10" stroke-width="2"/></g></g></g></g><g transform="matrix(1,0,0,1,161.54062043356592,154.96785409109907)"><g transform="translate(0,0)"><g transform="translate(-167.46,-160.6464255196708) translate(5.919379566434088,5.678571428571729) matrix(1,0,0,1,0,0)"><g><path fill="none" stroke="#0b5394" d="M 166.04062043356592 159.46785409109907 L 166.04062043356592 188.93213980538522" stroke-miterlimit="10" stroke-width="2"/></g></g></g></g><g transform="matrix(1,0,0,1,142.5,154.96785409109935)"><g transform="translate(0,0)"><g transform="translate(-145.14,-160.6464255196708) translate(2.6399999999999864,5.678571428571445) matrix(1,0,0,1,0,0)"><g><path fill="none" stroke="#0b5394" d="M 147 159.46785409109935 L 147 188.93213980538508" stroke-miterlimit="10" stroke-width="2"/></g></g></g></g><g transform="matrix(1,0,0,1,74,196)"><g><g><rect fill="rgb(0,0,0)" stroke="none" x="0" y="0" width="146" height="14" fill-opacity="0"/></g></g><g><g><rect fill="rgb(0,0,0)" stroke="none" x="0" y="0" width="146" height="14" fill-opacity="0"/></g></g><g><g><rect fill="rgb(0,0,0)" stroke="none" x="44.97500228881836" y="0" width="57" height="14" fill-opacity="0"/></g></g><g><g><rect fill="rgb(0,0,0)" stroke="none" x="44.97500228881836" y="0" width="57" height="14" fill-opacity="0"/></g><text fill="rgb(0, 0, 0)" stroke="none" font-family="Arial" font-size="12px" font-style="normal" font-weight="normal" text-decoration="" line-height="14px" x="44.79999923706055" y="12">c</text><text fill="rgb(0, 0, 0)" stroke="none" font-family="Arial" font-size="12px" font-style="normal" font-weight="normal" text-decoration="" line-height="14px" x="51.20000076293945" y="12">o</text><text fill="rgb(0, 0, 0)" stroke="none" font-family="Arial" font-size="12px" font-style="normal" font-weight="normal" text-decoration="" line-height="14px" x="57.60000228881836" y="12">n</text><text fill="rgb(0, 0, 0)" stroke="none" font-family="Arial" font-size="12px" font-style="normal" font-weight="normal" text-decoration="" line-height="14px" x="64" y="12">t</text><text fill="rgb(0, 0, 0)" stroke="none" font-family="Arial" font-size="12px" font-style="normal" font-weight="normal" text-decoration="" line-height="14px" x="68" y="12">a</text><text fill="rgb(0, 0, 0)" stroke="none" font-family="Arial" font-size="12px" font-style="normal" font-weight="normal" text-decoration="" line-height="14px" x="74.4000015258789" y="12">i</text><text fill="rgb(0, 0, 0)" stroke="none" font-family="Arial" font-size="12px" font-style="normal" font-weight="normal" text-decoration="" line-height="14px" x="76.80000305175781" y="12">n</text><text fill="rgb(0, 0, 0)" stroke="none" font-family="Arial" font-size="12px" font-style="normal" font-weight="normal" text-decoration="" line-height="14px" x="84" y="12">e</text><text fill="rgb(0, 0, 0)" stroke="none" font-family="Arial" font-size="12px" font-style="normal" font-weight="normal" text-decoration="" line-height="14px" x="90.4000015258789" y="12">r</text><text fill="rgb(0, 0, 0)" stroke="none" font-family="Arial" font-size="12px" font-style="normal" font-weight="normal" text-decoration="" line-height="14px" x="94.4000015258789" y="12">1</text></g></g><g transform="translate(0.5,0.5) matrix(1,0,0,1,81.38636363636368,79.1428540910994)"><g><g transform="translate(0,0) scale(4.159090909090911,3.5454545454545454)"><g><g><g><path fill="#929292" stroke="rgb(0,0,0)" d="M 58.97 19.094 C 58.977 18.895 59 18.7 59 18.5 C 59 8.283 50.717 0 40.5 0 C 33.11 0 26.751 4.344 23.787 10.607 C 22.275 9.593 20.458 9 18.5 9 C 13.5 9 9.41 12.866 9.037 17.771 C 3.778 19.616 0 24.61 0 30.5 C 0 37.787 5.778 43.71 13 43.975 L 13 44 L 58 44 L 58 43.975 C 64.671 43.71 70 38.235 70 31.5 C 70 25.095 65.18 19.822 58.97 19.094 Z M 58 41.975 L 58 42 L 13 42 L 13 41.975 C 6.883 41.711 2 36.683 2 30.5 C 2 24.994 5.872 20.398 11.039 19.271 C 11.013 19.017 11 18.76 11 18.5 C 11 14.357 14.358 11 18.5 11 C 21.017 11 23.239 12.244 24.6 14.146 C 26.512 7.15 32.897 2 40.5 2 C 49.613 2 57 9.388 57 18.5 C 57 19.353 56.914 20.183 56.79 21 L 58 21 L 58 21.025 C 63.565 21.288 68 25.87 68 31.5 C 68 37.13 63.565 41.712 58 41.975 Z" stroke-opacity="0" stroke-miterlimit="10"/></g></g></g></g></g></g><g transform="matrix(1,0,0,1,159,124)"><g><g><rect fill="rgb(0,0,0)" stroke="none" x="0" y="0" width="146" height="27" fill-opacity="0"/></g></g><g><g><rect fill="rgb(0,0,0)" stroke="none" x="0" y="0" width="146" height="14" fill-opacity="0"/></g></g><g><g><rect fill="rgb(0,0,0)" stroke="none" x="38.66250228881836" y="0" width="70" height="14" fill-opacity="0"/></g><text fill="rgb(0, 0, 0)" stroke="none" font-family="Arial" font-size="12px" font-style="normal" font-weight="bold" text-decoration="" line-height="14px" x="38.400001525878906" y="12">i</text><text fill="rgb(0, 0, 0)" stroke="none" font-family="Arial" font-size="12px" font-style="normal" font-weight="bold" text-decoration="" line-height="14px" x="41.60000228881836" y="12">s</text><text fill="rgb(0, 0, 0)" stroke="none" font-family="Arial" font-size="12px" font-style="normal" font-weight="bold" text-decoration="" line-height="14px" x="48.79999923706055" y="12">o</text><text fill="rgb(0, 0, 0)" stroke="none" font-family="Arial" font-size="12px" font-style="normal" font-weight="bold" text-decoration="" line-height="14px" x="56" y="12">l</text><text fill="rgb(0, 0, 0)" stroke="none" font-family="Arial" font-size="12px" font-style="normal" font-weight="bold" text-decoration="" line-height="14px" x="59.20000076293945" y="12">a</text><text fill="rgb(0, 0, 0)" stroke="none" font-family="Arial" font-size="12px" font-style="normal" font-weight="bold" text-decoration="" line-height="14px" x="66.4000015258789" y="12">t</text><text fill="rgb(0, 0, 0)" stroke="none" font-family="Arial" font-size="12px" font-style="normal" font-weight="bold" text-decoration="" line-height="14px" x="70.4000015258789" y="12">e</text><text fill="rgb(0, 0, 0)" stroke="none" font-family="Arial" font-size="12px" font-style="normal" font-weight="bold" text-decoration="" line-height="14px" x="76.80000305175781" y="12">d</text><text fill="rgb(0, 0, 0)" stroke="none" font-family="Arial" font-size="12px" font-style="normal" font-weight="bold" text-decoration="" line-height="14px" x="84" y="12">_</text><text fill="rgb(0, 0, 0)" stroke="none" font-family="Arial" font-size="12px" font-style="normal" font-weight="bold" text-decoration="" line-height="14px" x="90.4000015258789" y="12">n</text><text fill="rgb(0, 0, 0)" stroke="none" font-family="Arial" font-size="12px" font-style="normal" font-weight="bold" text-decoration="" line-height="14px" x="98.4000015258789" y="12">w</text></g><g><g><rect fill="rgb(0,0,0)" stroke="none" x="0" y="13.600000381469727" width="146" height="14" fill-opacity="0"/></g></g><g><g><rect fill="rgb(0,0,0)" stroke="none" x="71.3375015258789" y="13.600000381469727" width="4" height="14" fill-opacity="0"/></g></g><g><g><rect fill="rgb(0,0,0)" stroke="none" x="71.3375015258789" y="13.600000381469727" width="4" height="14" fill-opacity="0"/></g></g></g><g transform="translate(0,0) matrix(1,0,0,1,15,5.1999969482421875)"><g><g transform="translate(0,0) scale(1.0376509657550772,1.0231999999999999)"><g><g><g><path fill="#3d85c6" stroke="#FFFFFF" d="M 52.371 16.22 L -1.393 16.22 L -1.393 99.52 L 52.371 99.52" stroke-miterlimit="10" stroke-width="1.3594"/></g><g><path fill="#3d85c6" stroke="#FFFFFF" d="M 52.371 99.52 L 69.07 82.82 L 69.07 -0.48 L 19.98 -0.48 L -1.393 16.22 L 52.371 16.22 L 52.371 99.52 Z" stroke-miterlimit="10" stroke-width="1.3594"/></g><g><path fill="rgb(0,0,0)" stroke="#FFFFFF" d="M 52.371 16.22 L 69.07 -0.48" fill-opacity="0" stroke-miterlimit="10" stroke-width="1.3594"/></g><g><path fill="rgb(0,0,0)" stroke="#FFFFFF" d="M 25.3 16.22 L 25.3 99.52" fill-opacity="0" stroke-miterlimit="10" stroke-width="1.3594"/></g><g><path fill="rgb(0,0,0)" stroke="#FFFFFF" d="M 26.149 16.22 L 44.316 -0.48" fill-opacity="0" stroke-miterlimit="10" stroke-width="1.3594"/></g></g><g><path fill="#3d85c6" stroke="#FFFFFF" d="M 3.263 23.823 L 21.317 23.823 Q 21.317 23.823 21.317 23.823 L 21.317 34.868 Q 21.317 34.868 21.317 34.868 L 3.263 34.868 Q 3.263 34.868 3.263 34.868 L 3.263 23.823 Q 3.263 23.823 3.263 23.823 Z" stroke-miterlimit="10" stroke-width="1.3594"/></g><g><path fill="#3d85c6" stroke="#FFFFFF" d="M 29.156 23.823 L 47.207 23.823 Q 47.207 23.823 47.207 23.823 L 47.207 34.868 Q 47.207 34.868 47.207 34.868 L 29.156 34.868 Q 29.156 34.868 29.156 34.868 L 29.156 23.823 Q 29.156 23.823 29.156 23.823 Z" stroke-miterlimit="10" stroke-width="1.3594"/></g><g><path fill="#3d85c6" stroke="#FFFFFF" d="M 3.263 64.604 L 21.317 64.604 Q 21.317 64.604 21.317 64.604 L 21.317 75.648 Q 21.317 75.648 21.317 75.648 L 3.263 75.648 Q 3.263 75.648 3.263 75.648 L 3.263 64.604 Q 3.263 64.604 3.263 64.604 Z" stroke-miterlimit="10" stroke-width="1.3594"/></g><g><path fill="#3d85c6" stroke="#FFFFFF" d="M 29.156 64.604 L 47.207 64.604 Q 47.207 64.604 47.207 64.604 L 47.207 75.648 Q 47.207 75.648 47.207 75.648 L 29.156 75.648 Q 29.156 75.648 29.156 75.648 L 29.156 64.604 Q 29.156 64.604 29.156 64.604 Z" stroke-miterlimit="10" stroke-width="1.3594"/></g><g><path fill="#3d85c6" stroke="#FFFFFF" d="M 3.263 82.445 L 21.317 82.445 Q 21.317 82.445 21.317 82.445 L 21.317 93.49 Q 21.317 93.49 21.317 93.49 L 3.263 93.49 Q 3.263 93.49 3.263 93.49 L 3.263 82.445 Q 3.263 82.445 3.263 82.445 Z" stroke-miterlimit="10" stroke-width="1.3594"/></g><g><path fill="#3d85c6" stroke="#FFFFFF" d="M 29.156 82.445 L 47.207 82.445 Q 47.207 82.445 47.207 82.445 L 47.207 93.49 Q 47.207 93.49 47.207 93.49 L 29.156 93.49 Q 29.156 93.49 29.156 93.49 L 29.156 82.445 Q 29.156 82.445 29.156 82.445 Z" stroke-miterlimit="10" stroke-width="1.3594"/></g></g></g></g></g><g transform="matrix(1,0,0,1,81.616,49.859996948242184)"><g transform="translate(0,0)"><g transform="translate(-53,-57.19999694824219) translate(-28.616,7.340000000000003) matrix(1,0,0,1,0,0)"><g><path fill="none" stroke="#999999" d="M 88.116 56.359996948242184 L 132 56.359996948242184 Q 142 56.359996948242184 142 66.35999694824218 L 142 114.19999694824219" stroke-miterlimit="10" stroke-width="6"/></g></g></g></g><g transform="matrix(1,0,0,1,198,108)"><g><g><rect fill="rgb(0,0,0)" stroke="none" x="0" y="0" width="146" height="14" fill-opacity="0"/></g></g><g><g/></g><g><g><rect fill="rgb(0,0,0)" stroke="none" x="73" y="-7.200000286102295" width="1" height="14" fill-opacity="0"/></g></g><g><g><rect fill="rgb(0,0,0)" stroke="none" x="73" y="-7.200000286102295" width="1" height="14" fill-opacity="0"/></g></g><g><g/></g></g><g transform="matrix(1,0,0,1,7,116)"><g><g><rect fill="rgb(0,0,0)" stroke="none" x="0" y="0" width="74" height="14" fill-opacity="0"/></g></g><g><g><rect fill="rgb(0,0,0)" stroke="none" x="0" y="0" width="74" height="14" fill-opacity="0"/></g></g><g><g><rect fill="rgb(0,0,0)" stroke="none" x="3.987499952316284" y="0" width="67" height="14" fill-opacity="0"/></g></g><g><g><rect fill="rgb(0,0,0)" stroke="none" x="3.987499952316284" y="0" width="67" height="14" fill-opacity="0"/></g><text fill="rgb(0, 0, 0)" stroke="none" font-family="Arial" font-size="12px" font-style="normal" font-weight="normal" text-decoration="" line-height="14px" x="4" y="12">D</text><text fill="rgb(0, 0, 0)" stroke="none" font-family="Arial" font-size="12px" font-style="normal" font-weight="normal" text-decoration="" line-height="14px" x="12.800000190734863" y="12">o</text><text fill="rgb(0, 0, 0)" stroke="none" font-family="Arial" font-size="12px" font-style="normal" font-weight="normal" text-decoration="" line-height="14px" x="19.200000762939453" y="12">c</text><text fill="rgb(0, 0, 0)" stroke="none" font-family="Arial" font-size="12px" font-style="normal" font-weight="normal" text-decoration="" line-height="14px" x="25.600000381469727" y="12">k</text><text fill="rgb(0, 0, 0)" stroke="none" font-family="Arial" font-size="12px" font-style="normal" font-weight="normal" text-decoration="" line-height="14px" x="31.200000762939453" y="12">e</text><text fill="rgb(0, 0, 0)" stroke="none" font-family="Arial" font-size="12px" font-style="normal" font-weight="normal" text-decoration="" line-height="14px" x="38.400001525878906" y="12">r</text><text fill="rgb(0, 0, 0)" stroke="none" font-family="Arial" font-size="12px" font-style="normal" font-weight="normal" text-decoration="" line-height="14px" x="45.60000228881836" y="12">H</text><text fill="rgb(0, 0, 0)" stroke="none" font-family="Arial" font-size="12px" font-style="normal" font-weight="normal" text-decoration="" line-height="14px" x="53.60000228881836" y="12">o</text><text fill="rgb(0, 0, 0)" stroke="none" font-family="Arial" font-size="12px" font-style="normal" font-weight="normal" text-decoration="" line-height="14px" x="60.79999923706055" y="12">s</text><text fill="rgb(0, 0, 0)" stroke="none" font-family="Arial" font-size="12px" font-style="normal" font-weight="normal" text-decoration="" line-height="14px" x="66.4000015258789" y="12">t</text></g></g></g></svg>