<svg version="1.1" xmlns="http://www.w3.org/2000/svg" xmlns:xlink="http://www.w3.org/1999/xlink" width="297" height="228.1999969482422"><style xmlns="http://www.w3.org/1999/xhtml"></style><defs/><g transform="translate(0,0)"><g><rect fill="#ffffff" stroke="none" x="0" y="0" width="297" height="228.1999969482422"/></g><g transform="translate(0,0) matrix(1,0,0,1,24,93.51999694824218)"><g><g transform="translate(0,0) scale(0.6084739830463705,0.6)"><g><g><g><path fill="#3d85c6" stroke="#FFFFFF" d="M 52.371 16.22 L -1.393 16.22 L -1.393 99.52 L 52.371 99.52" stroke-miterlimit="10" stroke-width="1.3594"/></g><g><path fill="#3d85c6" stroke="#FFFFFF" d="M 52.371 99.52 L 69.07 82.82 L 69.07 -0.48 L 19.98 -0.48 L -1.393 16.22 L 52.371 16.22 L 52.371 99.52 Z" stroke-miterlimit="10" stroke-width="1.3594"/></g><g><path fill="rgb(0,0,0)" stroke="#FFFFFF" d="M 52.371 16.22 L 69.07 -0.48" fill-opacity="0" stroke-miterlimit="10" stroke-width="1.3594"/></g><g><path fill="rgb(0,0,0)" stroke="#FFFFFF" d="M 25.3 16.22 L 25.3 99.52" fill-opacity="0" stroke-miterlimit="10" stroke-width="1.3594"/></g><g><path fill="rgb(0,0,0)" stroke="#FFFFFF" d="M 26.149 16.22 L 44.316 -0.48" fill-opacity="0" stroke-miterlimit="10" stroke-width="1.3594"/></g></g><g><path fill="#3d85c6" stroke="#FFFFFF" d="M 3.263 23.823 L 21.317 23.823 Q 21.317 23.823 21.317 23.823 L 21.317 34.868 Q 21.317 34.868 21.317 34.868 L 3.263 34.868 Q 3.263 34.868 3.263 34.868 L 3.263 23.823 Q 3.263 23.823 3.263 23.823 Z" stroke-miterlimit="10" stroke-width="1.3594"/></g><g><path fill="#3d85c6" stroke="#FFFFFF" d="M 29.156 23.823 L 47.207 23.823 Q 47.207 23.823 47.207 23.823 L 47.207 34.868 Q 47.207 34.868 47.207 34.868 L 29.156 34.868 Q 29.156 34.868 29.156 34.868 L 29.156 23.823 Q 29.156 23.823 29.156 23.823 Z" stroke-miterlimit="10" stroke-width="1.3594"/></g><g><path fill="#3d85c6" stroke="#FFFFFF" d="M 3.263 64.604 L 21.317 64.604 Q 21.317 64.604 21.317 64.604 L 21.317 75.648 Q 21.317 75.648 21.317 75.648 L 3.263 75.648 Q 3.263 75.648 3.263 75.648 L 3.263 64.604 Q 3.263 64.604 3.263 64.604 Z" stroke-miterlimit="10" stroke-width="1.3594"/></g><g><path fill="#3d85c6" stroke="#FFFFFF" d="M 29.156 64.604 L 47.207 64.604 Q 47.207 64.604 47.207 64.604 L 47.207 75.648 Q 47.207 75.648 47.207 75.648 L 29.156 75.648 Q 29.156 75.648 29.156 75.648 L 29.156 64.604 Q 29.156 64.604 29.156 64.604 Z" stroke-miterlimit="10" stroke-width="1.3594"/></g><g><path fill="#3d85c6" stroke="#FFFFFF" d="M 3.263 82.445 L 21.317 82.445 Q 21.317 82.445 21.317 82.445 L 21.317 93.49 Q 21.317 93.49 21.317 93.49 L 3.263 93.49 Q 3.263 93.49 3.263 93.49 L 3.263 82.445 Q 3.263 82.445 3.263 82.445 Z" stroke-miterlimit="10" stroke-width="1.3594"/></g><g><path fill="#3d85c6" stroke="#FFFFFF" d="M 29.156 82.445 L 47.207 82.445 Q 47.207 82.445 47.207 82.445 L 47.207 93.49 Q 47.207 93.49 47.207 93.49 L 29.156 93.49 Q 29.156 93.49 29.156 93.49 L 29.156 82.445 Q 29.156 82.445 29.156 82.445 Z" stroke-miterlimit="10" stroke-width="1.3594"/></g></g></g></g></g><g transform="matrix(1,0,0,1,3,157)"><g><g><rect fill="rgb(0,0,0)" stroke="none" x="0" y="0" width="74" height="14" fill-opacity="0"/></g></g><g><g><rect fill="rgb(0,0,0)" stroke="none" x="0" y="0" width="74" height="14" fill-opacity="0"/></g></g><g><g><rect fill="rgb(0,0,0)" stroke="none" x="24.662500381469727" y="0" width="26" height="14" fill-opacity="0"/></g></g><g><g><rect fill="rgb(0,0,0)" stroke="none" x="24.662500381469727" y="0" width="26" height="14" fill-opacity="0"/></g><text fill="rgb(0, 0, 0)" stroke="none" font-family="Arial" font-size="12px" font-style="normal" font-weight="normal" text-decoration="" line-height="14px" x="24.80000114440918" y="12">H</text><text fill="rgb(0, 0, 0)" stroke="none" font-family="Arial" font-size="12px" font-style="normal" font-weight="normal" text-decoration="" line-height="14px" x="33.60000228881836" y="12">o</text><text fill="rgb(0, 0, 0)" stroke="none" font-family="Arial" font-size="12px" font-style="normal" font-weight="normal" text-decoration="" line-height="14px" x="40" y="12">s</text><text fill="rgb(0, 0, 0)" stroke="none" font-family="Arial" font-size="12px" font-style="normal" font-weight="normal" text-decoration="" line-height="14px" x="46.400001525878906" y="12">t</text></g></g><g transform="translate(0,0) matrix(1,0,0,1,119,130.51999694824218)"><g><g transform="translate(0,0) scale(0.6084739830463705,0.6)"><g><g><g><path fill="#3d85c6" stroke="#FFFFFF" d="M 52.371 16.22 L -1.393 16.22 L -1.393 99.52 L 52.371 99.52" stroke-miterlimit="10" stroke-width="1.3594"/></g><g><path fill="#3d85c6" stroke="#FFFFFF" d="M 52.371 99.52 L 69.07 82.82 L 69.07 -0.48 L 19.98 -0.48 L -1.393 16.22 L 52.371 16.22 L 52.371 99.52 Z" stroke-miterlimit="10" stroke-width="1.3594"/></g><g><path fill="rgb(0,0,0)" stroke="#FFFFFF" d="M 52.371 16.22 L 69.07 -0.48" fill-opacity="0" stroke-miterlimit="10" stroke-width="1.3594"/></g><g><path fill="rgb(0,0,0)" stroke="#FFFFFF" d="M 25.3 16.22 L 25.3 99.52" fill-opacity="0" stroke-miterlimit="10" stroke-width="1.3594"/></g><g><path fill="rgb(0,0,0)" stroke="#FFFFFF" d="M 26.149 16.22 L 44.316 -0.48" fill-opacity="0" stroke-miterlimit="10" stroke-width="1.3594"/></g></g><g><path fill="#3d85c6" stroke="#FFFFFF" d="M 3.263 23.823 L 21.317 23.823 Q 21.317 23.823 21.317 23.823 L 21.317 34.868 Q 21.317 34.868 21.317 34.868 L 3.263 34.868 Q 3.263 34.868 3.263 34.868 L 3.263 23.823 Q 3.263 23.823 3.263 23.823 Z" stroke-miterlimit="10" stroke-width="1.3594"/></g><g><path fill="#3d85c6" stroke="#FFFFFF" d="M 29.156 23.823 L 47.207 23.823 Q 47.207 23.823 47.207 23.823 L 47.207 34.868 Q 47.207 34.868 47.207 34.868 L 29.156 34.868 Q 29.156 34.868 29.156 34.868 L 29.156 23.823 Q 29.156 23.823 29.156 23.823 Z" stroke-miterlimit="10" stroke-width="1.3594"/></g><g><path fill="#3d85c6" stroke="#FFFFFF" d="M 3.263 64.604 L 21.317 64.604 Q 21.317 64.604 21.317 64.604 L 21.317 75.648 Q 21.317 75.648 21.317 75.648 L 3.263 75.648 Q 3.263 75.648 3.263 75.648 L 3.263 64.604 Q 3.263 64.604 3.263 64.604 Z" stroke-miterlimit="10" stroke-width="1.3594"/></g><g><path fill="#3d85c6" stroke="#FFFFFF" d="M 29.156 64.604 L 47.207 64.604 Q 47.207 64.604 47.207 64.604 L 47.207 75.648 Q 47.207 75.648 47.207 75.648 L 29.156 75.648 Q 29.156 75.648 29.156 75.648 L 29.156 64.604 Q 29.156 64.604 29.156 64.604 Z" stroke-miterlimit="10" stroke-width="1.3594"/></g><g><path fill="#3d85c6" stroke="#FFFFFF" d="M 3.263 82.445 L 21.317 82.445 Q 21.317 82.445 21.317 82.445 L 21.317 93.49 Q 21.317 93.49 21.317 93.49 L 3.263 93.49 Q 3.263 93.49 3.263 93.49 L 3.263 82.445 Q 3.263 82.445 3.263 82.445 Z" stroke-miterlimit="10" stroke-width="1.3594"/></g><g><path fill="#3d85c6" stroke="#FFFFFF" d="M 29.156 82.445 L 47.207 82.445 Q 47.207 82.445 47.207 82.445 L 47.207 93.49 Q 47.207 93.49 47.207 93.49 L 29.156 93.49 Q 29.156 93.49 29.156 93.49 L 29.156 82.445 Q 29.156 82.445 29.156 82.445 Z" stroke-miterlimit="10" stroke-width="1.3594"/></g></g></g></g></g><g transform="matrix(1,0,0,1,98,194)"><g><g><rect fill="rgb(0,0,0)" stroke="none" x="0" y="0" width="74" height="14" fill-opacity="0"/></g></g><g><g><rect fill="rgb(0,0,0)" stroke="none" x="0" y="0" width="74" height="14" fill-opacity="0"/></g></g><g><g><rect fill="rgb(0,0,0)" stroke="none" x="24.662500381469727" y="0" width="26" height="14" fill-opacity="0"/></g></g><g><g><rect fill="rgb(0,0,0)" stroke="none" x="24.662500381469727" y="0" width="26" height="14" fill-opacity="0"/></g><text fill="rgb(0, 0, 0)" stroke="none" font-family="Arial" font-size="12px" font-style="normal" font-weight="normal" text-decoration="" line-height="14px" x="24.80000114440918" y="12">H</text><text fill="rgb(0, 0, 0)" stroke="none" font-family="Arial" font-size="12px" font-style="normal" font-weight="normal" text-decoration="" line-height="14px" x="33.60000228881836" y="12">o</text><text fill="rgb(0, 0, 0)" stroke="none" font-family="Arial" font-size="12px" font-style="normal" font-weight="normal" text-decoration="" line-height="14px" x="40" y="12">s</text><text fill="rgb(0, 0, 0)" stroke="none" font-family="Arial" font-size="12px" font-style="normal" font-weight="normal" text-decoration="" line-height="14px" x="46.400001525878906" y="12">t</text></g></g><g transform="translate(0,0) matrix(1,0,0,1,220,99.35999694824216)"><g><g transform="translate(0,0) scale(0.6084739830463705,0.6)"><g><g><g><path fill="#3d85c6" stroke="#FFFFFF" d="M 52.371 16.22 L -1.393 16.22 L -1.393 99.52 L 52.371 99.52" stroke-miterlimit="10" stroke-width="1.3594"/></g><g><path fill="#3d85c6" stroke="#FFFFFF" d="M 52.371 99.52 L 69.07 82.82 L 69.07 -0.48 L 19.98 -0.48 L -1.393 16.22 L 52.371 16.22 L 52.371 99.52 Z" stroke-miterlimit="10" stroke-width="1.3594"/></g><g><path fill="rgb(0,0,0)" stroke="#FFFFFF" d="M 52.371 16.22 L 69.07 -0.48" fill-opacity="0" stroke-miterlimit="10" stroke-width="1.3594"/></g><g><path fill="rgb(0,0,0)" stroke="#FFFFFF" d="M 25.3 16.22 L 25.3 99.52" fill-opacity="0" stroke-miterlimit="10" stroke-width="1.3594"/></g><g><path fill="rgb(0,0,0)" stroke="#FFFFFF" d="M 26.149 16.22 L 44.316 -0.48" fill-opacity="0" stroke-miterlimit="10" stroke-width="1.3594"/></g></g><g><path fill="#3d85c6" stroke="#FFFFFF" d="M 3.263 23.823 L 21.317 23.823 Q 21.317 23.823 21.317 23.823 L 21.317 34.868 Q 21.317 34.868 21.317 34.868 L 3.263 34.868 Q 3.263 34.868 3.263 34.868 L 3.263 23.823 Q 3.263 23.823 3.263 23.823 Z" stroke-miterlimit="10" stroke-width="1.3594"/></g><g><path fill="#3d85c6" stroke="#FFFFFF" d="M 29.156 23.823 L 47.207 23.823 Q 47.207 23.823 47.207 23.823 L 47.207 34.868 Q 47.207 34.868 47.207 34.868 L 29.156 34.868 Q 29.156 34.868 29.156 34.868 L 29.156 23.823 Q 29.156 23.823 29.156 23.823 Z" stroke-miterlimit="10" stroke-width="1.3594"/></g><g><path fill="#3d85c6" stroke="#FFFFFF" d="M 3.263 64.604 L 21.317 64.604 Q 21.317 64.604 21.317 64.604 L 21.317 75.648 Q 21.317 75.648 21.317 75.648 L 3.263 75.648 Q 3.263 75.648 3.263 75.648 L 3.263 64.604 Q 3.263 64.604 3.263 64.604 Z" stroke-miterlimit="10" stroke-width="1.3594"/></g><g><path fill="#3d85c6" stroke="#FFFFFF" d="M 29.156 64.604 L 47.207 64.604 Q 47.207 64.604 47.207 64.604 L 47.207 75.648 Q 47.207 75.648 47.207 75.648 L 29.156 75.648 Q 29.156 75.648 29.156 75.648 L 29.156 64.604 Q 29.156 64.604 29.156 64.604 Z" stroke-miterlimit="10" stroke-width="1.3594"/></g><g><path fill="#3d85c6" stroke="#FFFFFF" d="M 3.263 82.445 L 21.317 82.445 Q 21.317 82.445 21.317 82.445 L 21.317 93.49 Q 21.317 93.49 21.317 93.49 L 3.263 93.49 Q 3.263 93.49 3.263 93.49 L 3.263 82.445 Q 3.263 82.445 3.263 82.445 Z" stroke-miterlimit="10" stroke-width="1.3594"/></g><g><path fill="#3d85c6" stroke="#FFFFFF" d="M 29.156 82.445 L 47.207 82.445 Q 47.207 82.445 47.207 82.445 L 47.207 93.49 Q 47.207 93.49 47.207 93.49 L 29.156 93.49 Q 29.156 93.49 29.156 93.49 L 29.156 82.445 Q 29.156 82.445 29.156 82.445 Z" stroke-miterlimit="10" stroke-width="1.3594"/></g></g></g></g></g><g transform="matrix(1,0,0,1,199,163)"><g><g><rect fill="rgb(0,0,0)" stroke="none" x="0" y="0" width="74" height="14" fill-opacity="0"/></g></g><g><g><rect fill="rgb(0,0,0)" stroke="none" x="0" y="0" width="74" height="14" fill-opacity="0"/></g></g><g><g><rect fill="rgb(0,0,0)" stroke="none" x="24.662500381469727" y="0" width="26" height="14" fill-opacity="0"/></g></g><g><g><rect fill="rgb(0,0,0)" stroke="none" x="24.662500381469727" y="0" width="26" height="14" fill-opacity="0"/></g><text fill="rgb(0, 0, 0)" stroke="none" font-family="Arial" font-size="12px" font-style="normal" font-weight="normal" text-decoration="" line-height="14px" x="24.80000114440918" y="12">H</text><text fill="rgb(0, 0, 0)" stroke="none" font-family="Arial" font-size="12px" font-style="normal" font-weight="normal" text-decoration="" line-height="14px" x="33.60000228881836" y="12">o</text><text fill="rgb(0, 0, 0)" stroke="none" font-family="Arial" font-size="12px" font-style="normal" font-weight="normal" text-decoration="" line-height="14px" x="40" y="12">s</text><text fill="rgb(0, 0, 0)" stroke="none" font-family="Arial" font-size="12px" font-style="normal" font-weight="normal" text-decoration="" line-height="14px" x="46.400001525878906" y="12">t</text></g></g><g transform="translate(0,0) matrix(1,0,0,1,114,3.1889969482422202)"><g><g transform="translate(0,0) scale(0.4877347541024086,0.4893104486600422) translate(1.204592e-14,0)"><g><g><path fill="#02709F" stroke="#FFFFFF" d="M 99.554 18.074 C 99.554 28.302 77.168 36.592 49.552 36.592 C 21.939 36.592 -0.443 28.302 -0.443 18.074 L -0.443 60.746 C -0.443 70.972 21.943 79.262 49.559 79.262 C 77.171 79.262 99.557 70.969 99.557 60.746 L 99.557 18.074 L 99.554 18.074 Z" stroke-miterlimit="10" stroke-width="1.2853"/></g><g><path fill="#02709F" stroke="#FFFFFF" d="M 49.559 -0.442 C 77.171 -0.442 99.557 7.848 99.557 18.075 C 99.557 28.303 77.171 36.593 49.559 36.593 C 21.943 36.593 -0.443 28.303 -0.443 18.075 C -0.443 7.848 21.943 -0.442 49.559 -0.442 Z" stroke-miterlimit="10" stroke-width="1.2853"/></g></g></g></g></g><g transform="matrix(1,0,0,1,93,44)"><g><g><rect fill="rgb(0,0,0)" stroke="none" x="0" y="0" width="88" height="14" fill-opacity="0"/></g></g><g><g><rect fill="rgb(0,0,0)" stroke="none" x="0" y="0" width="88" height="14" fill-opacity="0"/></g></g><g><g><rect fill="rgb(0,0,0)" stroke="none" x="2.3125" y="0" width="85" height="14" fill-opacity="0"/></g><text fill="rgb(0, 0, 0)" stroke="none" font-family="Arial" font-size="12px" font-style="normal" font-weight="normal" text-decoration="" line-height="14px" x="2.4000000953674316" y="12">K</text><text fill="rgb(0, 0, 0)" stroke="none" font-family="Arial" font-size="12px" font-style="normal" font-weight="normal" text-decoration="" line-height="14px" x="10.40000057220459" y="12">e</text><text fill="rgb(0, 0, 0)" stroke="none" font-family="Arial" font-size="12px" font-style="normal" font-weight="normal" text-decoration="" line-height="14px" x="16.80000114440918" y="12">y</text><text fill="rgb(0, 0, 0)" stroke="none" font-family="Arial" font-size="12px" font-style="normal" font-weight="normal" text-decoration="" line-height="14px" x="23.200000762939453" y="12">-</text><text fill="rgb(0, 0, 0)" stroke="none" font-family="Arial" font-size="12px" font-style="normal" font-weight="normal" text-decoration="" line-height="14px" x="27.200000762939453" y="12">v</text><text fill="rgb(0, 0, 0)" stroke="none" font-family="Arial" font-size="12px" font-style="normal" font-weight="normal" text-decoration="" line-height="14px" x="32.79999923706055" y="12">a</text><text fill="rgb(0, 0, 0)" stroke="none" font-family="Arial" font-size="12px" font-style="normal" font-weight="normal" text-decoration="" line-height="14px" x="40" y="12">l</text><text fill="rgb(0, 0, 0)" stroke="none" font-family="Arial" font-size="12px" font-style="normal" font-weight="normal" text-decoration="" line-height="14px" x="42.400001525878906" y="12">u</text><text fill="rgb(0, 0, 0)" stroke="none" font-family="Arial" font-size="12px" font-style="normal" font-weight="normal" text-decoration="" line-height="14px" x="48.79999923706055" y="12">e</text><text fill="rgb(0, 0, 0)" stroke="none" font-family="Arial" font-size="12px" font-style="normal" font-weight="normal" text-decoration="" line-height="14px" x="59.20000076293945" y="12">s</text><text fill="rgb(0, 0, 0)" stroke="none" font-family="Arial" font-size="12px" font-style="normal" font-weight="normal" text-decoration="" line-height="14px" x="64.80000305175781" y="12">t</text><text fill="rgb(0, 0, 0)" stroke="none" font-family="Arial" font-size="12px" font-style="normal" font-weight="normal" text-decoration="" line-height="14px" x="68" y="12">o</text><text fill="rgb(0, 0, 0)" stroke="none" font-family="Arial" font-size="12px" font-style="normal" font-weight="normal" text-decoration="" line-height="14px" x="75.20000457763672" y="12">r</text><text fill="rgb(0, 0, 0)" stroke="none" font-family="Arial" font-size="12px" font-style="normal" font-weight="normal" text-decoration="" line-height="14px" x="79.20000457763672" y="12">e</text></g></g><g transform="matrix(1,0,0,1,133.88673770512042,37.68899694824222)"><g transform="translate(0,0)"><g transform="translate(-171,-25.199996948242188) translate(37.113262294879576,-12.489000000000033) matrix(1,0,0,1,0,0)"><g><path fill="none" stroke="#999999" d="M 138.38673770512042 42.18899694824222 M 138.38673770512042 42.18899694824222 L 140.13562398277034 43.15925299065982 M 140.13562398277034 43.15925299065982 M 141.88451026042026 44.129509033077426 L 143.63339653807014 45.09976507549503 M 143.63339653807014 45.09976507549503 M 145.38228281572006 46.07002111791263 L 147.13116909336998 47.040277160330234 M 147.13116909336998 47.040277160330234 M 148.88005537101986 48.01053320274784 L 150.62894164866975 48.98078924516544 M 150.62894164866975 48.98078924516544 M 152.37782792631967 49.95104528758304 L 154.12671420396958 50.921301330000645 M 154.12671420396958 50.921301330000645 M 155.87560048161947 51.89155737241825 L 157.62448675926936 52.86181341483585 M 157.62448675926936 52.86181341483585 M 159.37337303691928 53.83206945725345 L 161.1222593145692 54.802325499671056 M 161.1222593145692 54.802325499671056 M 162.87114559221908 55.77258154208866 L 164.62003186986897 56.74283758450626 M 164.62003186986897 56.74283758450626 M 166.36891814751885 57.713093626923865 L 168.11780442516877 58.68334966934147 M 168.11780442516877 58.68334966934147 M 169.8666907028187 59.65360571175907 L 171.61557698046857 60.62386175417667 M 171.61557698046857 60.62386175417667 M 173.36446325811846 61.594117796594276 L 175.11334953576838 62.56437383901188 M 175.11334953576838 62.56437383901188 M 176.8622358134183 63.53462988142948 L 178.61112209106818 64.50488592384708 M 178.61112209106818 64.50488592384708 M 180.36000836871807 65.47514196626469 L 182.108894646368 66.44539800868229 M 182.108894646368 66.44539800868229 M 183.8577809240179 67.41565405109989 L 185.6066672016678 68.3859100935175 M 185.6066672016678 68.3859100935175 M 187.35555347931768 69.3561661359351 L 189.1044397569676 70.3264221783527 M 189.1044397569676 70.3264221783527 M 190.85332603461748 71.2966782207703 L 192.60221231226737 72.2669342631879 M 192.60221231226737 72.2669342631879 M 194.35109858991729 73.23719030560551 L 196.09998486756717 74.20744634802311 M 196.09998486756717 74.20744634802311 M 197.84887114521706 75.17770239044071 L 199.59775742286695 76.14795843285832 M 199.59775742286695 76.14795843285832 M 201.34664370051686 77.11821447527592 L 203.09552997816678 78.08847051769352 M 203.09552997816678 78.08847051769352 M 204.8444162558167 79.05872656011113 L 206.59330253346658 80.02898260252873 M 206.59330253346658 80.02898260252873 M 208.3421888111165 80.99923864494633 L 210.0910750887664 81.96949468736393 M 210.0910750887664 81.96949468736393 M 211.83996136641628 82.93975072978154 L 213.5888476440662 83.91000677219914 M 213.5888476440662 83.91000677219914 M 215.33773392171608 84.88026281461674 L 217.086620199366 85.85051885703434 M 217.086620199366 85.85051885703434 M 218.83550647701588 86.82077489945195 L 220.58439275466577 87.79103094186955 M 220.58439275466577 87.79103094186955 M 222.3332790323157 88.76128698428715 L 224.0821653099656 89.73154302670476 M 224.0821653099656 89.73154302670476 M 225.8310515876155 90.70179906912236 L 227.57993786526538 91.67205511153996 M 227.57993786526538 91.67205511153996 M 229.3288241429153 92.64231115395756 L 231.0777104205652 93.61256719637517 M 231.0777104205652 93.61256719637517 M 232.8265966982151 94.58282323879277 L 234.575482975865 95.55307928121037 M 234.575482975865 95.55307928121037 M 236.3243692535149 96.52333532362798 L 238.0732555311648 97.49359136604558 M 238.0732555311648 97.49359136604558 M 239.8221418088147 98.46384740846318 L 241.4374511336982 99.35999694824216" stroke-miterlimit="10" stroke-width="2"/></g></g></g></g><g transform="matrix(1,0,0,1,133.88673770512042,37.68899694824222)"><g transform="translate(0,0)"><g transform="translate(-141,-37.19999694824219) translate(7.113262294879576,-0.48900000000003274) matrix(1,0,0,1,0,0)"><g><path fill="none" stroke="#999999" d="M 138.38673770512042 42.18899694824222 M 138.38673770512042 42.18899694824222 L 138.4331576707298 44.18845817237057 M 138.4331576707298 44.18845817237057 M 138.47957763633917 46.18791939649891 L 138.52599760194855 48.18738062062726 M 138.52599760194855 48.18738062062726 M 138.57241756755792 50.186841844755605 L 138.6188375331673 52.18630306888395 M 138.6188375331673 52.18630306888395 M 138.66525749877667 54.1857642930123 L 138.71167746438604 56.185225517140644 M 138.71167746438604 56.185225517140644 M 138.75809742999542 58.18468674126899 L 138.80451739560476 60.18414796539734 M 138.80451739560476 60.18414796539734 M 138.85093736121414 62.18360918952568 L 138.89735732682348 64.18307041365404 M 138.89735732682348 64.18307041365404 M 138.94377729243286 66.18253163778239 L 138.9901972580422 68.18199286191074 M 138.9901972580422 68.18199286191074 M 139.03661722365158 70.1814540860391 L 139.08303718926092 72.18091531016745 M 139.08303718926092 72.18091531016745 M 139.1294571548703 74.1803765342958 L 139.17587712047964 76.17983775842416 M 139.17587712047964 76.17983775842416 M 139.22229708608901 78.17929898255251 L 139.26871705169836 80.17876020668086 M 139.26871705169836 80.17876020668086 M 139.31513701730773 82.1782214308092 L 139.36155698291708 84.17768265493754 M 139.36155698291708 84.17768265493754 M 139.40797694852645 86.1771438790659 L 139.4543969141358 88.17660510319425 M 139.4543969141358 88.17660510319425 M 139.50081687974517 90.1760663273226 L 139.54723684535452 92.17552755145095 M 139.54723684535452 92.17552755145095 M 139.5936568109639 94.17498877557931 L 139.64007677657324 96.17444999970766 M 139.64007677657324 96.17444999970766 M 139.6864967421826 98.173911223836 L 139.73291670779196 100.17337244796434 M 139.73291670779196 100.17337244796434 M 139.77933667340133 102.1728336720927 L 139.82575663901068 104.17229489622105 M 139.82575663901068 104.17229489622105 M 139.87217660462005 106.1717561203494 L 139.9185965702294 108.17121734447775 M 139.9185965702294 108.17121734447775 M 139.96501653583877 110.1706785686061 L 140.01143650144812 112.17013979273446 M 140.01143650144812 112.17013979273446 M 140.0578564670575 114.16960101686281 L 140.10427643266684 116.16906224099117 M 140.10427643266684 116.16906224099117 M 140.1506963982762 118.1685234651195 L 140.19711636388556 120.16798468924786 M 140.19711636388556 120.16798468924786 M 140.24353632949493 122.16744591337621 L 140.28995629510428 124.16690713750457 M 140.28995629510428 124.16690713750457 M 140.33637626071365 126.16636836163292 L 140.382796226323 128.16582958576126 M 140.382796226323 128.16582958576126 M 140.42921619193237 130.1652908098896 L 140.4374511336982 130.51999694824218" stroke-miterlimit="10" stroke-width="2"/></g></g></g></g><g transform="matrix(1,0,0,1,40.937451133698204,37.68899694824222)"><g transform="translate(0,0)"><g transform="translate(-136,-42.19999694824219) translate(95.0625488663018,4.510999999999967) matrix(1,0,0,1,0,0)"><g><path fill="none" stroke="#999999" d="M 138.38673770512042 42.18899694824222 M 138.38673770512042 42.18899694824222 L 136.63596995202016 43.15585385322055 M 136.63596995202016 43.15585385322055 M 134.8852021989199 44.12271075819888 L 133.13443444581964 45.089567663177206 M 133.13443444581964 45.089567663177206 M 131.38366669271937 46.056424568155535 L 129.6328989396191 47.02328147313386 M 129.6328989396191 47.02328147313386 M 127.88213118651885 47.99013837811219 L 126.13136343341858 48.95699528309052 M 126.13136343341858 48.95699528309052 M 124.38059568031832 49.92385218806885 L 122.62982792721806 50.89070909304718 M 122.62982792721806 50.89070909304718 M 120.8790601741178 51.85756599802551 L 119.12829242101753 52.824422903003835 M 119.12829242101753 52.824422903003835 M 117.37752466791727 53.791279807982164 L 115.62675691481701 54.75813671296049 M 115.62675691481701 54.75813671296049 M 113.87598916171675 55.72499361793883 L 112.12522140861648 56.691850522917164 M 112.12522140861648 56.691850522917164 M 110.37445365551622 57.65870742789549 L 108.62368590241596 58.62556433287383 M 108.62368590241596 58.62556433287383 M 106.8729181493157 59.592421237852164 L 105.12215039621543 60.5592781428305 M 105.12215039621543 60.5592781428305 M 103.37138264311517 61.526135047808836 L 101.6206148900149 62.49299195278717 M 101.6206148900149 62.49299195278717 M 99.86984713691464 63.45984885776551 L 98.11907938381438 64.42670576274384 M 98.11907938381438 64.42670576274384 M 96.36831163071412 65.39356266772216 L 94.61754387761385 66.3604195727005 M 94.61754387761385 66.3604195727005 M 92.86677612451359 67.32727647767882 L 91.11600837141333 68.29413338265715 M 91.11600837141333 68.29413338265715 M 89.36524061831307 69.26099028763548 L 87.6144728652128 70.22784719261381 M 87.6144728652128 70.22784719261381 M 85.86370511211256 71.19470409759214 L 84.1129373590123 72.16156100257047 M 84.1129373590123 72.16156100257047 M 82.36216960591206 73.1284179075488 L 80.61140185281181 74.09527481252712 M 80.61140185281181 74.09527481252712 M 78.86063409971156 75.06213171750545 L 77.10986634661131 76.02898862248378 M 77.10986634661131 76.02898862248378 M 75.35909859351106 76.99584552746211 L 73.60833084041082 77.96270243244044 M 73.60833084041082 77.96270243244044 M 71.85756308731057 78.92955933741877 L 70.10679533421032 79.8964162423971 M 70.10679533421032 79.8964162423971 M 68.35602758111007 80.86327314737542 L 66.60525982800982 81.83013005235375 M 66.60525982800982 81.83013005235375 M 64.85449207490957 82.79698695733208 L 63.10372432180932 83.76384386231041 M 63.10372432180932 83.76384386231041 M 61.35295656870906 84.73070076728875 L 59.602188815608805 85.6975576722671 M 59.602188815608805 85.6975576722671 M 57.85142106250855 86.66441457724542 L 56.100653309408294 87.63127148222377 M 56.100653309408294 87.63127148222377 M 54.34988555630804 88.5981283872021 L 52.59911780320778 89.56498529218044 M 52.59911780320778 89.56498529218044 M 50.84835005010753 90.53184219715877 L 49.09758229700727 91.49869910213711 M 49.09758229700727 91.49869910213711 M 47.346814543907016 92.46555600711544 L 45.59604679080677 93.43241291209378 M 45.59604679080677 93.43241291209378" stroke-miterlimit="10" stroke-width="2"/></g></g></g></g><g transform="translate(0,0) matrix(1,0,0,1,223,117.3854006442422) scale(0.4503927504622071,0.45039275046220717) translate(-0.4429050300735753,-0.7077644040000006)"><g transform="translate(0,0) scale(1,1)"><g><g transform="translate(-604,-7)"><g><g transform="translate(604,7.071429)"><g><path fill="#FFFFFF" stroke="rbga(0,0,0,0)" d="M 3.756617 15.69689 L 9.798454 15.69689 L 9.798454 21.56925 L 3.756617 21.56925 L 3.756617 15.69689 Z" stroke-miterlimit="10"/></g><g><path fill="#FFFFFF" stroke="rbga(0,0,0,0)" d="M 11.1692 15.69689 L 17.21104 15.69689 L 17.21104 21.56925 L 11.1692 21.56925 L 11.1692 15.69689 Z" stroke-miterlimit="10"/></g><g><path fill="#FFFFFF" stroke="rbga(0,0,0,0)" d="M 11.1692 8.167081 L 17.21104 8.167081 L 17.21104 14.03944 L 11.1692 14.03944 L 11.1692 8.167081 Z" stroke-miterlimit="10"/></g><g><path fill="#FFFFFF" stroke="rbga(0,0,0,0)" d="M 18.58083 15.69689 L 24.62267 15.69689 L 24.62267 21.56925 L 18.58083 21.56925 L 18.58083 15.69689 Z" stroke-miterlimit="10"/></g><g><path fill="#FFFFFF" stroke="rbga(0,0,0,0)" d="M 18.58083 8.167081 L 24.62267 8.167081 L 24.62267 14.03944 L 18.58083 14.03944 L 18.58083 8.167081 Z" stroke-miterlimit="10"/></g><g><path fill="#FFFFFF" stroke="rbga(0,0,0,0)" d="M 25.99341 15.69689 L 32.03525 15.69689 L 32.03525 21.56925 L 25.99341 21.56925 L 25.99341 15.69689 Z" stroke-miterlimit="10"/></g><g><path fill="#FFFFFF" stroke="rbga(0,0,0,0)" d="M 25.99341 8.167081 L 32.03525 8.167081 L 32.03525 14.03944 L 25.99341 14.03944 L 25.99341 8.167081 Z" stroke-miterlimit="10"/></g><g><path fill="#FFFFFF" stroke="rbga(0,0,0,0)" d="M 33.40504 15.69689 L 39.44688 15.69689 L 39.44688 21.56925 L 33.40504 21.56925 L 33.40504 15.69689 Z" stroke-miterlimit="10"/></g><g><path fill="#FFFFFF" stroke="rbga(0,0,0,0)" d="M 25.99341 0.6363354 L 32.03525 0.6363354 L 32.03525 6.508696 L 25.99341 6.508696 L 25.99341 0.6363354 Z" stroke-miterlimit="10"/></g><g><path fill="#FFFFFF" stroke="rbga(0,0,0,0)" d="M 12.19391 30.04752 C 11.26506 30.04752 10.50971 30.78168 10.50971 31.68447 C 10.50971 32.58634 11.26506 33.31957 12.19391 33.31957 C 13.1218 33.31957 13.87715 32.58634 13.87715 31.68447 C 13.87715 30.78168 13.1218 30.04752 12.19391 30.04752" stroke-miterlimit="10"/></g><g><path fill="#FFFFFF" stroke="rbga(0,0,0,0)" d="M 58.90479 18.73416 C 56.87647 17.59658 54.17619 17.44099 51.87563 18.09876 C 51.5919 15.72205 49.98534 13.63789 48.07492 12.14534 L 47.3167 11.55279 L 46.67925 12.26832 C 45.40053 13.70683 45.01902 16.09752 45.19348 17.93478 C 45.32192 19.28571 45.75807 20.65621 46.61407 21.74068 C 45.96416 22.12081 45.22511 22.42267 44.56753 22.63975 C 43.22746 23.08043 41.77331 23.32547 40.35847 23.32547 L 0.6134818 23.32547 L 0.5281695 24.21615 C 0.2434756 27.18727 0.6623686 30.16211 1.925758 32.87702 L 2.470223 33.95404 L 2.531571 34.05466 C 6.269017 40.22329 12.83135 42.82174 19.98417 42.82174 C 33.82968 42.82174 45.24907 36.81056 50.49338 24.11366 C 53.99886 24.29161 57.58389 23.28447 59.29876 20.03106 L 59.73683 19.20093 L 58.90479 18.73416 L 58.90479 18.73416 Z M 12.19391 34.79068 C 10.43111 34.79068 8.997093 33.39689 8.997093 31.68447 C 8.997093 29.97112 10.43111 28.57733 12.19391 28.57733 C 13.95671 28.57733 15.39072 29.97112 15.39072 31.68447 C 15.39072 33.39689 13.95671 34.79068 12.19391 34.79068 L 12.19391 34.79068 Z" stroke-miterlimit="10"/></g></g></g></g></g></g></g><g transform="translate(0,0) matrix(1,0,0,1,122,150.3854006442422) scale(0.4503927504622071,0.45039275046220717) translate(-0.4429050300735753,-0.7077644040000006)"><g transform="translate(0,0) scale(1,1)"><g><g transform="translate(-604,-7)"><g><g transform="translate(604,7.071429)"><g><path fill="#FFFFFF" stroke="rbga(0,0,0,0)" d="M 3.756617 15.69689 L 9.798454 15.69689 L 9.798454 21.56925 L 3.756617 21.56925 L 3.756617 15.69689 Z" stroke-miterlimit="10"/></g><g><path fill="#FFFFFF" stroke="rbga(0,0,0,0)" d="M 11.1692 15.69689 L 17.21104 15.69689 L 17.21104 21.56925 L 11.1692 21.56925 L 11.1692 15.69689 Z" stroke-miterlimit="10"/></g><g><path fill="#FFFFFF" stroke="rbga(0,0,0,0)" d="M 11.1692 8.167081 L 17.21104 8.167081 L 17.21104 14.03944 L 11.1692 14.03944 L 11.1692 8.167081 Z" stroke-miterlimit="10"/></g><g><path fill="#FFFFFF" stroke="rbga(0,0,0,0)" d="M 18.58083 15.69689 L 24.62267 15.69689 L 24.62267 21.56925 L 18.58083 21.56925 L 18.58083 15.69689 Z" stroke-miterlimit="10"/></g><g><path fill="#FFFFFF" stroke="rbga(0,0,0,0)" d="M 18.58083 8.167081 L 24.62267 8.167081 L 24.62267 14.03944 L 18.58083 14.03944 L 18.58083 8.167081 Z" stroke-miterlimit="10"/></g><g><path fill="#FFFFFF" stroke="rbga(0,0,0,0)" d="M 25.99341 15.69689 L 32.03525 15.69689 L 32.03525 21.56925 L 25.99341 21.56925 L 25.99341 15.69689 Z" stroke-miterlimit="10"/></g><g><path fill="#FFFFFF" stroke="rbga(0,0,0,0)" d="M 25.99341 8.167081 L 32.03525 8.167081 L 32.03525 14.03944 L 25.99341 14.03944 L 25.99341 8.167081 Z" stroke-miterlimit="10"/></g><g><path fill="#FFFFFF" stroke="rbga(0,0,0,0)" d="M 33.40504 15.69689 L 39.44688 15.69689 L 39.44688 21.56925 L 33.40504 21.56925 L 33.40504 15.69689 Z" stroke-miterlimit="10"/></g><g><path fill="#FFFFFF" stroke="rbga(0,0,0,0)" d="M 25.99341 0.6363354 L 32.03525 0.6363354 L 32.03525 6.508696 L 25.99341 6.508696 L 25.99341 0.6363354 Z" stroke-miterlimit="10"/></g><g><path fill="#FFFFFF" stroke="rbga(0,0,0,0)" d="M 12.19391 30.04752 C 11.26506 30.04752 10.50971 30.78168 10.50971 31.68447 C 10.50971 32.58634 11.26506 33.31957 12.19391 33.31957 C 13.1218 33.31957 13.87715 32.58634 13.87715 31.68447 C 13.87715 30.78168 13.1218 30.04752 12.19391 30.04752" stroke-miterlimit="10"/></g><g><path fill="#FFFFFF" stroke="rbga(0,0,0,0)" d="M 58.90479 18.73416 C 56.87647 17.59658 54.17619 17.44099 51.87563 18.09876 C 51.5919 15.72205 49.98534 13.63789 48.07492 12.14534 L 47.3167 11.55279 L 46.67925 12.26832 C 45.40053 13.70683 45.01902 16.09752 45.19348 17.93478 C 45.32192 19.28571 45.75807 20.65621 46.61407 21.74068 C 45.96416 22.12081 45.22511 22.42267 44.56753 22.63975 C 43.22746 23.08043 41.77331 23.32547 40.35847 23.32547 L 0.6134818 23.32547 L 0.5281695 24.21615 C 0.2434756 27.18727 0.6623686 30.16211 1.925758 32.87702 L 2.470223 33.95404 L 2.531571 34.05466 C 6.269017 40.22329 12.83135 42.82174 19.98417 42.82174 C 33.82968 42.82174 45.24907 36.81056 50.49338 24.11366 C 53.99886 24.29161 57.58389 23.28447 59.29876 20.03106 L 59.73683 19.20093 L 58.90479 18.73416 L 58.90479 18.73416 Z M 12.19391 34.79068 C 10.43111 34.79068 8.997093 33.39689 8.997093 31.68447 C 8.997093 29.97112 10.43111 28.57733 12.19391 28.57733 C 13.95671 28.57733 15.39072 29.97112 15.39072 31.68447 C 15.39072 33.39689 13.95671 34.79068 12.19391 34.79068 L 12.19391 34.79068 Z" stroke-miterlimit="10"/></g></g></g></g></g></g></g><g transform="translate(0,0) matrix(1,0,0,1,27,113.3854006442422) scale(0.4503927504622071,0.45039275046220717) translate(-0.4429050300735753,-0.7077644040000006)"><g transform="translate(0,0) scale(1,1)"><g><g transform="translate(-604,-7)"><g><g transform="translate(604,7.071429)"><g><path fill="#FFFFFF" stroke="rbga(0,0,0,0)" d="M 3.756617 15.69689 L 9.798454 15.69689 L 9.798454 21.56925 L 3.756617 21.56925 L 3.756617 15.69689 Z" stroke-miterlimit="10"/></g><g><path fill="#FFFFFF" stroke="rbga(0,0,0,0)" d="M 11.1692 15.69689 L 17.21104 15.69689 L 17.21104 21.56925 L 11.1692 21.56925 L 11.1692 15.69689 Z" stroke-miterlimit="10"/></g><g><path fill="#FFFFFF" stroke="rbga(0,0,0,0)" d="M 11.1692 8.167081 L 17.21104 8.167081 L 17.21104 14.03944 L 11.1692 14.03944 L 11.1692 8.167081 Z" stroke-miterlimit="10"/></g><g><path fill="#FFFFFF" stroke="rbga(0,0,0,0)" d="M 18.58083 15.69689 L 24.62267 15.69689 L 24.62267 21.56925 L 18.58083 21.56925 L 18.58083 15.69689 Z" stroke-miterlimit="10"/></g><g><path fill="#FFFFFF" stroke="rbga(0,0,0,0)" d="M 18.58083 8.167081 L 24.62267 8.167081 L 24.62267 14.03944 L 18.58083 14.03944 L 18.58083 8.167081 Z" stroke-miterlimit="10"/></g><g><path fill="#FFFFFF" stroke="rbga(0,0,0,0)" d="M 25.99341 15.69689 L 32.03525 15.69689 L 32.03525 21.56925 L 25.99341 21.56925 L 25.99341 15.69689 Z" stroke-miterlimit="10"/></g><g><path fill="#FFFFFF" stroke="rbga(0,0,0,0)" d="M 25.99341 8.167081 L 32.03525 8.167081 L 32.03525 14.03944 L 25.99341 14.03944 L 25.99341 8.167081 Z" stroke-miterlimit="10"/></g><g><path fill="#FFFFFF" stroke="rbga(0,0,0,0)" d="M 33.40504 15.69689 L 39.44688 15.69689 L 39.44688 21.56925 L 33.40504 21.56925 L 33.40504 15.69689 Z" stroke-miterlimit="10"/></g><g><path fill="#FFFFFF" stroke="rbga(0,0,0,0)" d="M 25.99341 0.6363354 L 32.03525 0.6363354 L 32.03525 6.508696 L 25.99341 6.508696 L 25.99341 0.6363354 Z" stroke-miterlimit="10"/></g><g><path fill="#FFFFFF" stroke="rbga(0,0,0,0)" d="M 12.19391 30.04752 C 11.26506 30.04752 10.50971 30.78168 10.50971 31.68447 C 10.50971 32.58634 11.26506 33.31957 12.19391 33.31957 C 13.1218 33.31957 13.87715 32.58634 13.87715 31.68447 C 13.87715 30.78168 13.1218 30.04752 12.19391 30.04752" stroke-miterlimit="10"/></g><g><path fill="#FFFFFF" stroke="rbga(0,0,0,0)" d="M 58.90479 18.73416 C 56.87647 17.59658 54.17619 17.44099 51.87563 18.09876 C 51.5919 15.72205 49.98534 13.63789 48.07492 12.14534 L 47.3167 11.55279 L 46.67925 12.26832 C 45.40053 13.70683 45.01902 16.09752 45.19348 17.93478 C 45.32192 19.28571 45.75807 20.65621 46.61407 21.74068 C 45.96416 22.12081 45.22511 22.42267 44.56753 22.63975 C 43.22746 23.08043 41.77331 23.32547 40.35847 23.32547 L 0.6134818 23.32547 L 0.5281695 24.21615 C 0.2434756 27.18727 0.6623686 30.16211 1.925758 32.87702 L 2.470223 33.95404 L 2.531571 34.05466 C 6.269017 40.22329 12.83135 42.82174 19.98417 42.82174 C 33.82968 42.82174 45.24907 36.81056 50.49338 24.11366 C 53.99886 24.29161 57.58389 23.28447 59.29876 20.03106 L 59.73683 19.20093 L 58.90479 18.73416 L 58.90479 18.73416 Z M 12.19391 34.79068 C 10.43111 34.79068 8.997093 33.39689 8.997093 31.68447 C 8.997093 29.97112 10.43111 28.57733 12.19391 28.57733 C 13.95671 28.57733 15.39072 29.97112 15.39072 31.68447 C 15.39072 33.39689 13.95671 34.79068 12.19391 34.79068 L 12.19391 34.79068 Z" stroke-miterlimit="10"/></g></g></g></g></g></g></g></g></svg>