<svg version="1.1" xmlns="http://www.w3.org/2000/svg" xmlns:xlink="http://www.w3.org/1999/xlink" width="457" height="387.5199969482422"><style xmlns="http://www.w3.org/1999/xhtml"></style><defs><linearGradient id="gkKIwTXeLsVt" x1="0px" x2="0px" y1="100px" y2="-50px" gradientUnits="userSpaceOnUse"><stop offset="0" stop-color="#3d85c6"/><stop offset="1" stop-color="#FFFFFF"/></linearGradient><linearGradient id="rJZDrpvntsPa" x1="0px" x2="0px" y1="100px" y2="-50px" gradientUnits="userSpaceOnUse"><stop offset="0" stop-color="#3d85c6"/><stop offset="1" stop-color="#FFFFFF"/></linearGradient><linearGradient id="WEWeDZdUUERI" x1="0px" x2="0px" y1="100px" y2="-50px" gradientUnits="userSpaceOnUse"><stop offset="0" stop-color="#3d85c6"/><stop offset="1" stop-color="#FFFFFF"/></linearGradient><linearGradient id="NcdKbZtDcomm" x1="0px" x2="0px" y1="100px" y2="-50px" gradientUnits="userSpaceOnUse"><stop offset="0" stop-color="#3d85c6"/><stop offset="1" stop-color="#FFFFFF"/></linearGradient></defs><g transform="translate(0,0)"><g><rect fill="#ffffff" stroke="none" x="0" y="0" width="457" height="387.5199969482422"/></g><g transform="translate(0.5,0.5) matrix(1,0,0,1,126.38636363636371,74.1428540910994)"><g><g transform="translate(0,0) scale(4.159090909090911,3.3863636363636362)"><g><g><g><path fill="#929292" stroke="rgb(0,0,0)" d="M 58.97 19.094 C 58.977 18.895 59 18.7 59 18.5 C 59 8.283 50.717 0 40.5 0 C 33.11 0 26.751 4.344 23.787 10.607 C 22.275 9.593 20.458 9 18.5 9 C 13.5 9 9.41 12.866 9.037 17.771 C 3.778 19.616 0 24.61 0 30.5 C 0 37.787 5.778 43.71 13 43.975 L 13 44 L 58 44 L 58 43.975 C 64.671 43.71 70 38.235 70 31.5 C 70 25.095 65.18 19.822 58.97 19.094 Z M 58 41.975 L 58 42 L 13 42 L 13 41.975 C 6.883 41.711 2 36.683 2 30.5 C 2 24.994 5.872 20.398 11.039 19.271 C 11.013 19.017 11 18.76 11 18.5 C 11 14.357 14.358 11 18.5 11 C 21.017 11 23.239 12.244 24.6 14.146 C 26.512 7.15 32.897 2 40.5 2 C 49.613 2 57 9.388 57 18.5 C 57 19.353 56.914 20.183 56.79 21 L 58 21 L 58 21.025 C 63.565 21.288 68 25.87 68 31.5 C 68 37.13 63.565 41.712 58 41.975 Z" stroke-opacity="0" stroke-miterlimit="10"/></g></g></g></g></g></g><g transform="translate(0,0) matrix(1,0,0,1,243,155.46785409109935)"><g><g transform="translate(0,0) scale(0.62,0.2946428571428572)"><g><path fill="url(#gkKIwTXeLsVt)" stroke="none" d="M 0 0 L 100 0 Q 100 0 100 0 L 100 100 Q 100 100 100 100 L 0 100 Q 0 100 0 100 L 0 0 Q 0 0 0 0 Z"/><g transform="scale(1.6129032258064517,3.393939393939393)"><path fill="none" stroke="none" d="M 0 0 L 62 0 Q 62 0 62 0 L 62 29.464285714285722 Q 62 29.464285714285722 62 29.464285714285722 L 0 29.464285714285722 Q 0 29.464285714285722 0 29.464285714285722 L 0 0 Q 0 0 0 0 Z"/><path fill="url(#gkKIwTXeLsVt)" stroke="#6fa8dc" d="M 0 0 M 0 0 L 62 0 Q 62 0 62 0 L 62 29.464285714285722 Q 62 29.464285714285722 62 29.464285714285722 L 0 29.464285714285722 Q 0 29.464285714285722 0 29.464285714285722 L 0 0 Q 0 0 0 0 Z" stroke-miterlimit="10" stroke-width="2"/></g></g></g></g></g><g transform="matrix(1,0,0,1,250.4593795664339,150.9678540910995)"><g transform="translate(0,0)"><g transform="translate(-252.92,-155.07499694824222) translate(2.4606204335660777,4.107142857142719) matrix(1,0,0,1,0,0)"><g><path fill="none" stroke="#0b5394" d="M 254.9593795664339 155.4678540910995 L 254.9593795664339 184.93213980538494" stroke-miterlimit="10" stroke-width="2"/></g></g></g></g><g transform="matrix(1,0,0,1,288.5406204335659,150.96785409109907)"><g transform="translate(0,0)"><g transform="translate(-294.46,-156.6464255196708) translate(5.919379566434088,5.678571428571729) matrix(1,0,0,1,0,0)"><g><path fill="none" stroke="#0b5394" d="M 293.0406204335659 155.46785409109907 L 293.0406204335659 184.93213980538522" stroke-miterlimit="10" stroke-width="2"/></g></g></g></g><g transform="matrix(1,0,0,1,269.5,150.96785409109935)"><g transform="translate(0,0)"><g transform="translate(-272.14,-156.6464255196708) translate(2.6399999999999864,5.678571428571445) matrix(1,0,0,1,0,0)"><g><path fill="none" stroke="#0b5394" d="M 274 155.46785409109935 L 274 184.93213980538508" stroke-miterlimit="10" stroke-width="2"/></g></g></g></g><g transform="matrix(1,0,0,1,201,192)"><g><g><rect fill="rgb(0,0,0)" stroke="none" x="0" y="0" width="146" height="14" fill-opacity="0"/></g></g><g><g><rect fill="rgb(0,0,0)" stroke="none" x="0" y="0" width="146" height="14" fill-opacity="0"/></g></g><g><g><rect fill="rgb(0,0,0)" stroke="none" x="44.97500228881836" y="0" width="57" height="14" fill-opacity="0"/></g></g><g><g><rect fill="rgb(0,0,0)" stroke="none" x="44.97500228881836" y="0" width="57" height="14" fill-opacity="0"/></g><text fill="rgb(0, 0, 0)" stroke="none" font-family="Arial" font-size="12px" font-style="normal" font-weight="normal" text-decoration="" line-height="14px" x="44.79999923706055" y="12">c</text><text fill="rgb(0, 0, 0)" stroke="none" font-family="Arial" font-size="12px" font-style="normal" font-weight="normal" text-decoration="" line-height="14px" x="51.20000076293945" y="12">o</text><text fill="rgb(0, 0, 0)" stroke="none" font-family="Arial" font-size="12px" font-style="normal" font-weight="normal" text-decoration="" line-height="14px" x="57.60000228881836" y="12">n</text><text fill="rgb(0, 0, 0)" stroke="none" font-family="Arial" font-size="12px" font-style="normal" font-weight="normal" text-decoration="" line-height="14px" x="64" y="12">t</text><text fill="rgb(0, 0, 0)" stroke="none" font-family="Arial" font-size="12px" font-style="normal" font-weight="normal" text-decoration="" line-height="14px" x="68" y="12">a</text><text fill="rgb(0, 0, 0)" stroke="none" font-family="Arial" font-size="12px" font-style="normal" font-weight="normal" text-decoration="" line-height="14px" x="74.4000015258789" y="12">i</text><text fill="rgb(0, 0, 0)" stroke="none" font-family="Arial" font-size="12px" font-style="normal" font-weight="normal" text-decoration="" line-height="14px" x="76.80000305175781" y="12">n</text><text fill="rgb(0, 0, 0)" stroke="none" font-family="Arial" font-size="12px" font-style="normal" font-weight="normal" text-decoration="" line-height="14px" x="84" y="12">e</text><text fill="rgb(0, 0, 0)" stroke="none" font-family="Arial" font-size="12px" font-style="normal" font-weight="normal" text-decoration="" line-height="14px" x="90.4000015258789" y="12">r</text><text fill="rgb(0, 0, 0)" stroke="none" font-family="Arial" font-size="12px" font-style="normal" font-weight="normal" text-decoration="" line-height="14px" x="94.4000015258789" y="12">2</text></g></g><g transform="translate(0,0) matrix(1,0,0,1,253,289.46785409109935)"><g><g transform="translate(0,0) scale(0.62,0.2946428571428572)"><g><path fill="url(#rJZDrpvntsPa)" stroke="none" d="M 0 0 L 100 0 Q 100 0 100 0 L 100 100 Q 100 100 100 100 L 0 100 Q 0 100 0 100 L 0 0 Q 0 0 0 0 Z"/><g transform="scale(1.6129032258064517,3.393939393939393)"><path fill="none" stroke="none" d="M 0 0 L 62 0 Q 62 0 62 0 L 62 29.464285714285722 Q 62 29.464285714285722 62 29.464285714285722 L 0 29.464285714285722 Q 0 29.464285714285722 0 29.464285714285722 L 0 0 Q 0 0 0 0 Z"/><path fill="url(#rJZDrpvntsPa)" stroke="#6fa8dc" d="M 0 0 M 0 0 L 62 0 Q 62 0 62 0 L 62 29.464285714285722 Q 62 29.464285714285722 62 29.464285714285722 L 0 29.464285714285722 Q 0 29.464285714285722 0 29.464285714285722 L 0 0 Q 0 0 0 0 Z" stroke-miterlimit="10" stroke-width="2"/></g></g></g></g></g><g transform="matrix(1,0,0,1,260.45937956643394,284.96785409109947)"><g transform="translate(0,0)"><g transform="translate(-262.92,-289.0749969482422) translate(2.4606204335660777,4.107142857142719) matrix(1,0,0,1,0,0)"><g><path fill="none" stroke="#0b5394" d="M 264.95937956643394 289.46785409109947 L 264.95937956643394 318.9321398053849" stroke-miterlimit="10" stroke-width="2"/></g></g></g></g><g transform="matrix(1,0,0,1,298.5406204335659,284.967854091099)"><g transform="translate(0,0)"><g transform="translate(-304.46,-290.64642551967074) translate(5.919379566434088,5.678571428571729) matrix(1,0,0,1,0,0)"><g><path fill="none" stroke="#0b5394" d="M 303.0406204335659 289.467854091099 L 303.0406204335659 318.9321398053852" stroke-miterlimit="10" stroke-width="2"/></g></g></g></g><g transform="matrix(1,0,0,1,279.5,284.96785409109935)"><g transform="translate(0,0)"><g transform="translate(-282.14,-290.64642551967074) translate(2.6399999999999864,5.678571428571388) matrix(1,0,0,1,0,0)"><g><path fill="none" stroke="#0b5394" d="M 284 289.46785409109935 L 284 318.9321398053851" stroke-miterlimit="10" stroke-width="2"/></g></g></g></g><g transform="matrix(1,0,0,1,211,326)"><g><g><rect fill="rgb(0,0,0)" stroke="none" x="0" y="0" width="146" height="14" fill-opacity="0"/></g></g><g><g><rect fill="rgb(0,0,0)" stroke="none" x="0" y="0" width="146" height="14" fill-opacity="0"/></g></g><g><g><rect fill="rgb(0,0,0)" stroke="none" x="23.637500762939453" y="0" width="99" height="14" fill-opacity="0"/></g></g><g><g><rect fill="rgb(0,0,0)" stroke="none" x="23.637500762939453" y="0" width="99" height="14" fill-opacity="0"/></g><text fill="rgb(0, 0, 0)" stroke="none" font-family="Arial" font-size="12px" font-style="normal" font-weight="normal" text-decoration="" line-height="14px" x="24" y="12">e</text><text fill="rgb(0, 0, 0)" stroke="none" font-family="Arial" font-size="12px" font-style="normal" font-weight="normal" text-decoration="" line-height="14px" x="30.399999618530273" y="12">x</text><text fill="rgb(0, 0, 0)" stroke="none" font-family="Arial" font-size="12px" font-style="normal" font-weight="normal" text-decoration="" line-height="14px" x="36" y="12">t</text><text fill="rgb(0, 0, 0)" stroke="none" font-family="Arial" font-size="12px" font-style="normal" font-weight="normal" text-decoration="" line-height="14px" x="40" y="12">e</text><text fill="rgb(0, 0, 0)" stroke="none" font-family="Arial" font-size="12px" font-style="normal" font-weight="normal" text-decoration="" line-height="14px" x="46.400001525878906" y="12">r</text><text fill="rgb(0, 0, 0)" stroke="none" font-family="Arial" font-size="12px" font-style="normal" font-weight="normal" text-decoration="" line-height="14px" x="50.400001525878906" y="12">n</text><text fill="rgb(0, 0, 0)" stroke="none" font-family="Arial" font-size="12px" font-style="normal" font-weight="normal" text-decoration="" line-height="14px" x="56.79999923706055" y="12">a</text><text fill="rgb(0, 0, 0)" stroke="none" font-family="Arial" font-size="12px" font-style="normal" font-weight="normal" text-decoration="" line-height="14px" x="64" y="12">l</text><text fill="rgb(0, 0, 0)" stroke="none" font-family="Arial" font-size="12px" font-style="normal" font-weight="normal" text-decoration="" line-height="14px" x="66.4000015258789" y="12">_</text><text fill="rgb(0, 0, 0)" stroke="none" font-family="Arial" font-size="12px" font-style="normal" font-weight="normal" text-decoration="" line-height="14px" x="72.80000305175781" y="12">c</text><text fill="rgb(0, 0, 0)" stroke="none" font-family="Arial" font-size="12px" font-style="normal" font-weight="normal" text-decoration="" line-height="14px" x="79.20000457763672" y="12">o</text><text fill="rgb(0, 0, 0)" stroke="none" font-family="Arial" font-size="12px" font-style="normal" font-weight="normal" text-decoration="" line-height="14px" x="85.5999984741211" y="12">n</text><text fill="rgb(0, 0, 0)" stroke="none" font-family="Arial" font-size="12px" font-style="normal" font-weight="normal" text-decoration="" line-height="14px" x="92" y="12">t</text><text fill="rgb(0, 0, 0)" stroke="none" font-family="Arial" font-size="12px" font-style="normal" font-weight="normal" text-decoration="" line-height="14px" x="96" y="12">a</text><text fill="rgb(0, 0, 0)" stroke="none" font-family="Arial" font-size="12px" font-style="normal" font-weight="normal" text-decoration="" line-height="14px" x="102.4000015258789" y="12">i</text><text fill="rgb(0, 0, 0)" stroke="none" font-family="Arial" font-size="12px" font-style="normal" font-weight="normal" text-decoration="" line-height="14px" x="104.80000305175781" y="12">n</text><text fill="rgb(0, 0, 0)" stroke="none" font-family="Arial" font-size="12px" font-style="normal" font-weight="normal" text-decoration="" line-height="14px" x="112" y="12">e</text><text fill="rgb(0, 0, 0)" stroke="none" font-family="Arial" font-size="12px" font-style="normal" font-weight="normal" text-decoration="" line-height="14px" x="118.4000015258789" y="12">r</text></g></g><g transform="translate(0,0) matrix(1,0,0,1,166,155.46785409109935)"><g><g transform="translate(0,0) scale(0.62,0.2946428571428572)"><g><path fill="url(#WEWeDZdUUERI)" stroke="none" d="M 0 0 L 100 0 Q 100 0 100 0 L 100 100 Q 100 100 100 100 L 0 100 Q 0 100 0 100 L 0 0 Q 0 0 0 0 Z"/><g transform="scale(1.6129032258064517,3.393939393939393)"><path fill="none" stroke="none" d="M 0 0 L 62 0 Q 62 0 62 0 L 62 29.464285714285722 Q 62 29.464285714285722 62 29.464285714285722 L 0 29.464285714285722 Q 0 29.464285714285722 0 29.464285714285722 L 0 0 Q 0 0 0 0 Z"/><path fill="url(#WEWeDZdUUERI)" stroke="#6fa8dc" d="M 0 0 M 0 0 L 62 0 Q 62 0 62 0 L 62 29.464285714285722 Q 62 29.464285714285722 62 29.464285714285722 L 0 29.464285714285722 Q 0 29.464285714285722 0 29.464285714285722 L 0 0 Q 0 0 0 0 Z" stroke-miterlimit="10" stroke-width="2"/></g></g></g></g></g><g transform="matrix(1,0,0,1,173.4593795664339,150.9678540910995)"><g transform="translate(0,0)"><g transform="translate(-175.92,-155.07499694824222) translate(2.4606204335660777,4.107142857142719) matrix(1,0,0,1,0,0)"><g><path fill="none" stroke="#0b5394" d="M 177.9593795664339 155.4678540910995 L 177.9593795664339 184.93213980538494" stroke-miterlimit="10" stroke-width="2"/></g></g></g></g><g transform="matrix(1,0,0,1,211.54062043356592,150.96785409109907)"><g transform="translate(0,0)"><g transform="translate(-217.46,-156.6464255196708) translate(5.919379566434088,5.678571428571729) matrix(1,0,0,1,0,0)"><g><path fill="none" stroke="#0b5394" d="M 216.04062043356592 155.46785409109907 L 216.04062043356592 184.93213980538522" stroke-miterlimit="10" stroke-width="2"/></g></g></g></g><g transform="matrix(1,0,0,1,192.5,150.96785409109935)"><g transform="translate(0,0)"><g transform="translate(-195.14,-156.6464255196708) translate(2.6399999999999864,5.678571428571445) matrix(1,0,0,1,0,0)"><g><path fill="none" stroke="#0b5394" d="M 197 155.46785409109935 L 197 184.93213980538508" stroke-miterlimit="10" stroke-width="2"/></g></g></g></g><g transform="matrix(1,0,0,1,124,192)"><g><g><rect fill="rgb(0,0,0)" stroke="none" x="0" y="0" width="146" height="14" fill-opacity="0"/></g></g><g><g><rect fill="rgb(0,0,0)" stroke="none" x="0" y="0" width="146" height="14" fill-opacity="0"/></g></g><g><g><rect fill="rgb(0,0,0)" stroke="none" x="44.97500228881836" y="0" width="57" height="14" fill-opacity="0"/></g></g><g><g><rect fill="rgb(0,0,0)" stroke="none" x="44.97500228881836" y="0" width="57" height="14" fill-opacity="0"/></g><text fill="rgb(0, 0, 0)" stroke="none" font-family="Arial" font-size="12px" font-style="normal" font-weight="normal" text-decoration="" line-height="14px" x="44.79999923706055" y="12">c</text><text fill="rgb(0, 0, 0)" stroke="none" font-family="Arial" font-size="12px" font-style="normal" font-weight="normal" text-decoration="" line-height="14px" x="51.20000076293945" y="12">o</text><text fill="rgb(0, 0, 0)" stroke="none" font-family="Arial" font-size="12px" font-style="normal" font-weight="normal" text-decoration="" line-height="14px" x="57.60000228881836" y="12">n</text><text fill="rgb(0, 0, 0)" stroke="none" font-family="Arial" font-size="12px" font-style="normal" font-weight="normal" text-decoration="" line-height="14px" x="64" y="12">t</text><text fill="rgb(0, 0, 0)" stroke="none" font-family="Arial" font-size="12px" font-style="normal" font-weight="normal" text-decoration="" line-height="14px" x="68" y="12">a</text><text fill="rgb(0, 0, 0)" stroke="none" font-family="Arial" font-size="12px" font-style="normal" font-weight="normal" text-decoration="" line-height="14px" x="74.4000015258789" y="12">i</text><text fill="rgb(0, 0, 0)" stroke="none" font-family="Arial" font-size="12px" font-style="normal" font-weight="normal" text-decoration="" line-height="14px" x="76.80000305175781" y="12">n</text><text fill="rgb(0, 0, 0)" stroke="none" font-family="Arial" font-size="12px" font-style="normal" font-weight="normal" text-decoration="" line-height="14px" x="84" y="12">e</text><text fill="rgb(0, 0, 0)" stroke="none" font-family="Arial" font-size="12px" font-style="normal" font-weight="normal" text-decoration="" line-height="14px" x="90.4000015258789" y="12">r</text><text fill="rgb(0, 0, 0)" stroke="none" font-family="Arial" font-size="12px" font-style="normal" font-weight="normal" text-decoration="" line-height="14px" x="94.4000015258789" y="12">1</text></g></g><g transform="matrix(1,0,0,1,194,120)"><g><g><rect fill="rgb(0,0,0)" stroke="none" x="0" y="0" width="146" height="27" fill-opacity="0"/></g></g><g><g><rect fill="rgb(0,0,0)" stroke="none" x="0" y="0" width="146" height="14" fill-opacity="0"/></g></g><g><g><rect fill="rgb(0,0,0)" stroke="none" x="38.66250228881836" y="0" width="70" height="14" fill-opacity="0"/></g><text fill="rgb(0, 0, 0)" stroke="none" font-family="Arial" font-size="12px" font-style="normal" font-weight="bold" text-decoration="" line-height="14px" x="38.400001525878906" y="12">i</text><text fill="rgb(0, 0, 0)" stroke="none" font-family="Arial" font-size="12px" font-style="normal" font-weight="bold" text-decoration="" line-height="14px" x="41.60000228881836" y="12">s</text><text fill="rgb(0, 0, 0)" stroke="none" font-family="Arial" font-size="12px" font-style="normal" font-weight="bold" text-decoration="" line-height="14px" x="48.79999923706055" y="12">o</text><text fill="rgb(0, 0, 0)" stroke="none" font-family="Arial" font-size="12px" font-style="normal" font-weight="bold" text-decoration="" line-height="14px" x="56" y="12">l</text><text fill="rgb(0, 0, 0)" stroke="none" font-family="Arial" font-size="12px" font-style="normal" font-weight="bold" text-decoration="" line-height="14px" x="59.20000076293945" y="12">a</text><text fill="rgb(0, 0, 0)" stroke="none" font-family="Arial" font-size="12px" font-style="normal" font-weight="bold" text-decoration="" line-height="14px" x="66.4000015258789" y="12">t</text><text fill="rgb(0, 0, 0)" stroke="none" font-family="Arial" font-size="12px" font-style="normal" font-weight="bold" text-decoration="" line-height="14px" x="70.4000015258789" y="12">e</text><text fill="rgb(0, 0, 0)" stroke="none" font-family="Arial" font-size="12px" font-style="normal" font-weight="bold" text-decoration="" line-height="14px" x="76.80000305175781" y="12">d</text><text fill="rgb(0, 0, 0)" stroke="none" font-family="Arial" font-size="12px" font-style="normal" font-weight="bold" text-decoration="" line-height="14px" x="84" y="12">_</text><text fill="rgb(0, 0, 0)" stroke="none" font-family="Arial" font-size="12px" font-style="normal" font-weight="bold" text-decoration="" line-height="14px" x="90.4000015258789" y="12">n</text><text fill="rgb(0, 0, 0)" stroke="none" font-family="Arial" font-size="12px" font-style="normal" font-weight="bold" text-decoration="" line-height="14px" x="98.4000015258789" y="12">w</text></g><g><g><rect fill="rgb(0,0,0)" stroke="none" x="0" y="13.600000381469727" width="146" height="14" fill-opacity="0"/></g></g><g><g><rect fill="rgb(0,0,0)" stroke="none" x="71.3375015258789" y="13.600000381469727" width="4" height="14" fill-opacity="0"/></g></g><g><g><rect fill="rgb(0,0,0)" stroke="none" x="71.3375015258789" y="13.600000381469727" width="4" height="14" fill-opacity="0"/></g></g></g><g transform="translate(0,0) matrix(1,0,0,1,65,1.1999969482421875)"><g><g transform="translate(0,0) scale(1.0376509657550772,1.0231999999999999)"><g><g><g><path fill="#3d85c6" stroke="#FFFFFF" d="M 52.371 16.22 L -1.393 16.22 L -1.393 99.52 L 52.371 99.52" stroke-miterlimit="10" stroke-width="1.3594"/></g><g><path fill="#3d85c6" stroke="#FFFFFF" d="M 52.371 99.52 L 69.07 82.82 L 69.07 -0.48 L 19.98 -0.48 L -1.393 16.22 L 52.371 16.22 L 52.371 99.52 Z" stroke-miterlimit="10" stroke-width="1.3594"/></g><g><path fill="rgb(0,0,0)" stroke="#FFFFFF" d="M 52.371 16.22 L 69.07 -0.48" fill-opacity="0" stroke-miterlimit="10" stroke-width="1.3594"/></g><g><path fill="rgb(0,0,0)" stroke="#FFFFFF" d="M 25.3 16.22 L 25.3 99.52" fill-opacity="0" stroke-miterlimit="10" stroke-width="1.3594"/></g><g><path fill="rgb(0,0,0)" stroke="#FFFFFF" d="M 26.149 16.22 L 44.316 -0.48" fill-opacity="0" stroke-miterlimit="10" stroke-width="1.3594"/></g></g><g><path fill="#3d85c6" stroke="#FFFFFF" d="M 3.263 23.823 L 21.317 23.823 Q 21.317 23.823 21.317 23.823 L 21.317 34.868 Q 21.317 34.868 21.317 34.868 L 3.263 34.868 Q 3.263 34.868 3.263 34.868 L 3.263 23.823 Q 3.263 23.823 3.263 23.823 Z" stroke-miterlimit="10" stroke-width="1.3594"/></g><g><path fill="#3d85c6" stroke="#FFFFFF" d="M 29.156 23.823 L 47.207 23.823 Q 47.207 23.823 47.207 23.823 L 47.207 34.868 Q 47.207 34.868 47.207 34.868 L 29.156 34.868 Q 29.156 34.868 29.156 34.868 L 29.156 23.823 Q 29.156 23.823 29.156 23.823 Z" stroke-miterlimit="10" stroke-width="1.3594"/></g><g><path fill="#3d85c6" stroke="#FFFFFF" d="M 3.263 64.604 L 21.317 64.604 Q 21.317 64.604 21.317 64.604 L 21.317 75.648 Q 21.317 75.648 21.317 75.648 L 3.263 75.648 Q 3.263 75.648 3.263 75.648 L 3.263 64.604 Q 3.263 64.604 3.263 64.604 Z" stroke-miterlimit="10" stroke-width="1.3594"/></g><g><path fill="#3d85c6" stroke="#FFFFFF" d="M 29.156 64.604 L 47.207 64.604 Q 47.207 64.604 47.207 64.604 L 47.207 75.648 Q 47.207 75.648 47.207 75.648 L 29.156 75.648 Q 29.156 75.648 29.156 75.648 L 29.156 64.604 Q 29.156 64.604 29.156 64.604 Z" stroke-miterlimit="10" stroke-width="1.3594"/></g><g><path fill="#3d85c6" stroke="#FFFFFF" d="M 3.263 82.445 L 21.317 82.445 Q 21.317 82.445 21.317 82.445 L 21.317 93.49 Q 21.317 93.49 21.317 93.49 L 3.263 93.49 Q 3.263 93.49 3.263 93.49 L 3.263 82.445 Q 3.263 82.445 3.263 82.445 Z" stroke-miterlimit="10" stroke-width="1.3594"/></g><g><path fill="#3d85c6" stroke="#FFFFFF" d="M 29.156 82.445 L 47.207 82.445 Q 47.207 82.445 47.207 82.445 L 47.207 93.49 Q 47.207 93.49 47.207 93.49 L 29.156 93.49 Q 29.156 93.49 29.156 93.49 L 29.156 82.445 Q 29.156 82.445 29.156 82.445 Z" stroke-miterlimit="10" stroke-width="1.3594"/></g></g></g></g></g><g transform="matrix(1,0,0,1,131.61599999999999,45.859996948242184)"><g transform="translate(0,0)"><g transform="translate(-103,-53.19999694824219) translate(-28.615999999999985,7.340000000000003) matrix(1,0,0,1,0,0)"><g><path fill="none" stroke="#999999" d="M 138.11599999999999 52.359996948242184 L 180 52.359996948242184 Q 190 52.359996948242184 190 62.359996948242184 L 190 108.19999694824219" stroke-miterlimit="10" stroke-width="6"/></g></g></g></g><g transform="matrix(1,0,0,1,22,17)"><g><g><rect fill="rgb(0,0,0)" stroke="none" x="0" y="0" width="146" height="1" fill-opacity="0"/></g></g><g><g/></g><g><g><rect fill="rgb(0,0,0)" stroke="none" x="73" y="-7.200000286102295" width="1" height="14" fill-opacity="0"/></g></g><g><g><rect fill="rgb(0,0,0)" stroke="none" x="73" y="-7.200000286102295" width="1" height="14" fill-opacity="0"/></g></g><g><g/></g></g><g transform="matrix(1,0,0,1,57,112)"><g><g><rect fill="rgb(0,0,0)" stroke="none" x="0" y="0" width="74" height="14" fill-opacity="0"/></g></g><g><g><rect fill="rgb(0,0,0)" stroke="none" x="0" y="0" width="74" height="14" fill-opacity="0"/></g></g><g><g><rect fill="rgb(0,0,0)" stroke="none" x="3.987499952316284" y="0" width="67" height="14" fill-opacity="0"/></g></g><g><g><rect fill="rgb(0,0,0)" stroke="none" x="3.987499952316284" y="0" width="67" height="14" fill-opacity="0"/></g><text fill="rgb(0, 0, 0)" stroke="none" font-family="Arial" font-size="12px" font-style="normal" font-weight="normal" text-decoration="" line-height="14px" x="4" y="12">D</text><text fill="rgb(0, 0, 0)" stroke="none" font-family="Arial" font-size="12px" font-style="normal" font-weight="normal" text-decoration="" line-height="14px" x="12.800000190734863" y="12">o</text><text fill="rgb(0, 0, 0)" stroke="none" font-family="Arial" font-size="12px" font-style="normal" font-weight="normal" text-decoration="" line-height="14px" x="19.200000762939453" y="12">c</text><text fill="rgb(0, 0, 0)" stroke="none" font-family="Arial" font-size="12px" font-style="normal" font-weight="normal" text-decoration="" line-height="14px" x="25.600000381469727" y="12">k</text><text fill="rgb(0, 0, 0)" stroke="none" font-family="Arial" font-size="12px" font-style="normal" font-weight="normal" text-decoration="" line-height="14px" x="31.200000762939453" y="12">e</text><text fill="rgb(0, 0, 0)" stroke="none" font-family="Arial" font-size="12px" font-style="normal" font-weight="normal" text-decoration="" line-height="14px" x="38.400001525878906" y="12">r</text><text fill="rgb(0, 0, 0)" stroke="none" font-family="Arial" font-size="12px" font-style="normal" font-weight="normal" text-decoration="" line-height="14px" x="45.60000228881836" y="12">H</text><text fill="rgb(0, 0, 0)" stroke="none" font-family="Arial" font-size="12px" font-style="normal" font-weight="normal" text-decoration="" line-height="14px" x="53.60000228881836" y="12">o</text><text fill="rgb(0, 0, 0)" stroke="none" font-family="Arial" font-size="12px" font-style="normal" font-weight="normal" text-decoration="" line-height="14px" x="60.79999923706055" y="12">s</text><text fill="rgb(0, 0, 0)" stroke="none" font-family="Arial" font-size="12px" font-style="normal" font-weight="normal" text-decoration="" line-height="14px" x="66.4000015258789" y="12">t</text></g></g><g transform="translate(0.5,0.5) matrix(1,0,0,1,160,179)"><g><g transform="translate(0,0) scale(0.1,0.1)"><g><path fill="#00ffff" stroke="none" d="M 100 50 A 50 50 0 1 0 99.99997500000208 50.04999999166668 Z"/><g transform="scale(10,10)"><path fill="none" stroke="#00ffff" d="M 5 0 M 5 0 C 7.761423499999999 0 10 2.2385765 10 5 C 10 7.761423499999999 7.761423499999999 10 5 10 C 2.2385765 10 0 7.761423499999999 0 5 C 0 2.2385765 2.2385765 0 5 0 Z" stroke-miterlimit="10"/></g></g></g></g></g><g transform="translate(0,0) matrix(1,0,0,1,31.999999999999993,189.1999969482422)"><g><g transform="translate(0,0) scale(1.0376509657550772,1.0231999999999999)"><g><g><g><path fill="#3d85c6" stroke="#FFFFFF" d="M 52.371 16.22 L -1.393 16.22 L -1.393 99.52 L 52.371 99.52" stroke-miterlimit="10" stroke-width="1.3594"/></g><g><path fill="#3d85c6" stroke="#FFFFFF" d="M 52.371 99.52 L 69.07 82.82 L 69.07 -0.48 L 19.98 -0.48 L -1.393 16.22 L 52.371 16.22 L 52.371 99.52 Z" stroke-miterlimit="10" stroke-width="1.3594"/></g><g><path fill="rgb(0,0,0)" stroke="#FFFFFF" d="M 52.371 16.22 L 69.07 -0.48" fill-opacity="0" stroke-miterlimit="10" stroke-width="1.3594"/></g><g><path fill="rgb(0,0,0)" stroke="#FFFFFF" d="M 25.3 16.22 L 25.3 99.52" fill-opacity="0" stroke-miterlimit="10" stroke-width="1.3594"/></g><g><path fill="rgb(0,0,0)" stroke="#FFFFFF" d="M 26.149 16.22 L 44.316 -0.48" fill-opacity="0" stroke-miterlimit="10" stroke-width="1.3594"/></g></g><g><path fill="#3d85c6" stroke="#FFFFFF" d="M 3.263 23.823 L 21.317 23.823 Q 21.317 23.823 21.317 23.823 L 21.317 34.868 Q 21.317 34.868 21.317 34.868 L 3.263 34.868 Q 3.263 34.868 3.263 34.868 L 3.263 23.823 Q 3.263 23.823 3.263 23.823 Z" stroke-miterlimit="10" stroke-width="1.3594"/></g><g><path fill="#3d85c6" stroke="#FFFFFF" d="M 29.156 23.823 L 47.207 23.823 Q 47.207 23.823 47.207 23.823 L 47.207 34.868 Q 47.207 34.868 47.207 34.868 L 29.156 34.868 Q 29.156 34.868 29.156 34.868 L 29.156 23.823 Q 29.156 23.823 29.156 23.823 Z" stroke-miterlimit="10" stroke-width="1.3594"/></g><g><path fill="#3d85c6" stroke="#FFFFFF" d="M 3.263 64.604 L 21.317 64.604 Q 21.317 64.604 21.317 64.604 L 21.317 75.648 Q 21.317 75.648 21.317 75.648 L 3.263 75.648 Q 3.263 75.648 3.263 75.648 L 3.263 64.604 Q 3.263 64.604 3.263 64.604 Z" stroke-miterlimit="10" stroke-width="1.3594"/></g><g><path fill="#3d85c6" stroke="#FFFFFF" d="M 29.156 64.604 L 47.207 64.604 Q 47.207 64.604 47.207 64.604 L 47.207 75.648 Q 47.207 75.648 47.207 75.648 L 29.156 75.648 Q 29.156 75.648 29.156 75.648 L 29.156 64.604 Q 29.156 64.604 29.156 64.604 Z" stroke-miterlimit="10" stroke-width="1.3594"/></g><g><path fill="#3d85c6" stroke="#FFFFFF" d="M 3.263 82.445 L 21.317 82.445 Q 21.317 82.445 21.317 82.445 L 21.317 93.49 Q 21.317 93.49 21.317 93.49 L 3.263 93.49 Q 3.263 93.49 3.263 93.49 L 3.263 82.445 Q 3.263 82.445 3.263 82.445 Z" stroke-miterlimit="10" stroke-width="1.3594"/></g><g><path fill="#3d85c6" stroke="#FFFFFF" d="M 29.156 82.445 L 47.207 82.445 Q 47.207 82.445 47.207 82.445 L 47.207 93.49 Q 47.207 93.49 47.207 93.49 L 29.156 93.49 Q 29.156 93.49 29.156 93.49 L 29.156 82.445 Q 29.156 82.445 29.156 82.445 Z" stroke-miterlimit="10" stroke-width="1.3594"/></g></g></g></g></g><g transform="translate(0,0) matrix(1,0,0,1,346,265.1999969482422)"><g><g transform="translate(0,0) scale(1.0376509657550772,1.0231999999999999)"><g><g><g><path fill="#3d85c6" stroke="#FFFFFF" d="M 52.371 16.22 L -1.393 16.22 L -1.393 99.52 L 52.371 99.52" stroke-miterlimit="10" stroke-width="1.3594"/></g><g><path fill="#3d85c6" stroke="#FFFFFF" d="M 52.371 99.52 L 69.07 82.82 L 69.07 -0.48 L 19.98 -0.48 L -1.393 16.22 L 52.371 16.22 L 52.371 99.52 Z" stroke-miterlimit="10" stroke-width="1.3594"/></g><g><path fill="rgb(0,0,0)" stroke="#FFFFFF" d="M 52.371 16.22 L 69.07 -0.48" fill-opacity="0" stroke-miterlimit="10" stroke-width="1.3594"/></g><g><path fill="rgb(0,0,0)" stroke="#FFFFFF" d="M 25.3 16.22 L 25.3 99.52" fill-opacity="0" stroke-miterlimit="10" stroke-width="1.3594"/></g><g><path fill="rgb(0,0,0)" stroke="#FFFFFF" d="M 26.149 16.22 L 44.316 -0.48" fill-opacity="0" stroke-miterlimit="10" stroke-width="1.3594"/></g></g><g><path fill="#3d85c6" stroke="#FFFFFF" d="M 3.263 23.823 L 21.317 23.823 Q 21.317 23.823 21.317 23.823 L 21.317 34.868 Q 21.317 34.868 21.317 34.868 L 3.263 34.868 Q 3.263 34.868 3.263 34.868 L 3.263 23.823 Q 3.263 23.823 3.263 23.823 Z" stroke-miterlimit="10" stroke-width="1.3594"/></g><g><path fill="#3d85c6" stroke="#FFFFFF" d="M 29.156 23.823 L 47.207 23.823 Q 47.207 23.823 47.207 23.823 L 47.207 34.868 Q 47.207 34.868 47.207 34.868 L 29.156 34.868 Q 29.156 34.868 29.156 34.868 L 29.156 23.823 Q 29.156 23.823 29.156 23.823 Z" stroke-miterlimit="10" stroke-width="1.3594"/></g><g><path fill="#3d85c6" stroke="#FFFFFF" d="M 3.263 64.604 L 21.317 64.604 Q 21.317 64.604 21.317 64.604 L 21.317 75.648 Q 21.317 75.648 21.317 75.648 L 3.263 75.648 Q 3.263 75.648 3.263 75.648 L 3.263 64.604 Q 3.263 64.604 3.263 64.604 Z" stroke-miterlimit="10" stroke-width="1.3594"/></g><g><path fill="#3d85c6" stroke="#FFFFFF" d="M 29.156 64.604 L 47.207 64.604 Q 47.207 64.604 47.207 64.604 L 47.207 75.648 Q 47.207 75.648 47.207 75.648 L 29.156 75.648 Q 29.156 75.648 29.156 75.648 L 29.156 64.604 Q 29.156 64.604 29.156 64.604 Z" stroke-miterlimit="10" stroke-width="1.3594"/></g><g><path fill="#3d85c6" stroke="#FFFFFF" d="M 3.263 82.445 L 21.317 82.445 Q 21.317 82.445 21.317 82.445 L 21.317 93.49 Q 21.317 93.49 21.317 93.49 L 3.263 93.49 Q 3.263 93.49 3.263 93.49 L 3.263 82.445 Q 3.263 82.445 3.263 82.445 Z" stroke-miterlimit="10" stroke-width="1.3594"/></g><g><path fill="#3d85c6" stroke="#FFFFFF" d="M 29.156 82.445 L 47.207 82.445 Q 47.207 82.445 47.207 82.445 L 47.207 93.49 Q 47.207 93.49 47.207 93.49 L 29.156 93.49 Q 29.156 93.49 29.156 93.49 L 29.156 82.445 Q 29.156 82.445 29.156 82.445 Z" stroke-miterlimit="10" stroke-width="1.3594"/></g></g></g></g></g><g transform="matrix(1,0,0,1,310.5,299.6999969482422)"><g transform="translate(0,0)"><g transform="translate(-378,-276.1999969482422) translate(67.5,-23.5) matrix(1,0,0,1,0,0)"><g><path fill="none" stroke="#999999" d="M 346 316.35999694824216 L 338.25 316.35999694824216 Q 330.5 316.35999694824216 330.5 310.2799969482422 L 330.5 310.2799969482422 Q 330.5 304.1999969482422 322.75 304.1999969482422 L 315 304.1999969482422" stroke-miterlimit="10" stroke-width="2"/></g></g></g></g><g transform="matrix(1,0,0,1,160.5,184.5)"><g transform="translate(0,0)"><g transform="translate(-250,-282.1999969482422) translate(89.5,97.69999694824219) matrix(1,0,0,1,0,0)"><g><path fill="none" stroke="#666666" d="M 253 289.46785409109935 L 253 249.23392704554968 Q 253 239.23392704554968 243 239.23392704554968 L 175 239.23392704554968 Q 165 239.23392704554968 165 229.23392704554968 L 165 189" stroke-miterlimit="10" stroke-width="2"/></g></g></g></g><g transform="matrix(1,0,0,1,100.61599999999999,179.5)"><g transform="translate(0,0)"><g transform="translate(-103,-242.1999969482422) translate(2.3840000000000146,62.69999694824219) matrix(1,0,0,1,0,0)"><g><path fill="none" stroke="#999999" d="M 105.11599999999999 240.35999694824218 L 122.55799999999999 240.35999694824218 Q 132.558 240.35999694824218 132.558 230.35999694824218 L 132.558 194 Q 132.558 184 142.558 184 L 160 184" stroke-miterlimit="10" stroke-width="2"/></g></g></g></g><g transform="translate(0.5,0.5) matrix(1,0,0,1,250,286)"><g><g transform="translate(0,0) scale(0.1,0.1)"><g><path fill="#00ffff" stroke="none" d="M 100 50 A 50 50 0 1 0 99.99997500000208 50.04999999166668 Z"/><g transform="scale(10,10)"><path fill="none" stroke="#00ffff" d="M 5 0 M 5 0 C 7.761423499999999 0 10 2.2385765 10 5 C 10 7.761423499999999 7.761423499999999 10 5 10 C 2.2385765 10 0 7.761423499999999 0 5 C 0 2.2385765 2.2385765 0 5 0 Z" stroke-miterlimit="10"/></g></g></g></g></g><g transform="translate(0,0) matrix(1,0,0,1,322,154.46785409109935)"><g><g transform="translate(0,0) scale(0.62,0.2946428571428572)"><g><path fill="url(#NcdKbZtDcomm)" stroke="none" d="M 0 0 L 100 0 Q 100 0 100 0 L 100 100 Q 100 100 100 100 L 0 100 Q 0 100 0 100 L 0 0 Q 0 0 0 0 Z"/><g transform="scale(1.6129032258064517,3.393939393939393)"><path fill="none" stroke="none" d="M 0 0 L 62 0 Q 62 0 62 0 L 62 29.464285714285722 Q 62 29.464285714285722 62 29.464285714285722 L 0 29.464285714285722 Q 0 29.464285714285722 0 29.464285714285722 L 0 0 Q 0 0 0 0 Z"/><path fill="url(#NcdKbZtDcomm)" stroke="#6fa8dc" d="M 0 0 M 0 0 L 62 0 Q 62 0 62 0 L 62 29.464285714285722 Q 62 29.464285714285722 62 29.464285714285722 L 0 29.464285714285722 Q 0 29.464285714285722 0 29.464285714285722 L 0 0 Q 0 0 0 0 Z" stroke-miterlimit="10" stroke-width="2"/></g></g></g></g></g><g transform="matrix(1,0,0,1,329.45937956643394,149.9678540910995)"><g transform="translate(0,0)"><g transform="translate(-331.92,-154.07499694824222) translate(2.4606204335660777,4.107142857142719) matrix(1,0,0,1,0,0)"><g><path fill="none" stroke="#0b5394" d="M 333.95937956643394 154.4678540910995 L 333.95937956643394 183.93213980538494" stroke-miterlimit="10" stroke-width="2"/></g></g></g></g><g transform="matrix(1,0,0,1,367.5406204335659,149.96785409109907)"><g transform="translate(0,0)"><g transform="translate(-373.46,-155.6464255196708) translate(5.919379566434088,5.678571428571729) matrix(1,0,0,1,0,0)"><g><path fill="none" stroke="#0b5394" d="M 372.0406204335659 154.46785409109907 L 372.0406204335659 183.93213980538522" stroke-miterlimit="10" stroke-width="2"/></g></g></g></g><g transform="matrix(1,0,0,1,348.5,149.96785409109935)"><g transform="translate(0,0)"><g transform="translate(-351.14,-155.6464255196708) translate(2.6399999999999864,5.678571428571445) matrix(1,0,0,1,0,0)"><g><path fill="none" stroke="#0b5394" d="M 353 154.46785409109935 L 353 183.93213980538508" stroke-miterlimit="10" stroke-width="2"/></g></g></g></g><g transform="matrix(1,0,0,1,280,191)"><g><g><rect fill="rgb(0,0,0)" stroke="none" x="0" y="0" width="146" height="14" fill-opacity="0"/></g></g><g><g><rect fill="rgb(0,0,0)" stroke="none" x="0" y="0" width="146" height="14" fill-opacity="0"/></g></g><g><g><rect fill="rgb(0,0,0)" stroke="none" x="44.97500228881836" y="0" width="57" height="14" fill-opacity="0"/></g></g><g><g><rect fill="rgb(0,0,0)" stroke="none" x="44.97500228881836" y="0" width="57" height="14" fill-opacity="0"/></g><text fill="rgb(0, 0, 0)" stroke="none" font-family="Arial" font-size="12px" font-style="normal" font-weight="normal" text-decoration="" line-height="14px" x="44.79999923706055" y="12">c</text><text fill="rgb(0, 0, 0)" stroke="none" font-family="Arial" font-size="12px" font-style="normal" font-weight="normal" text-decoration="" line-height="14px" x="51.20000076293945" y="12">o</text><text fill="rgb(0, 0, 0)" stroke="none" font-family="Arial" font-size="12px" font-style="normal" font-weight="normal" text-decoration="" line-height="14px" x="57.60000228881836" y="12">n</text><text fill="rgb(0, 0, 0)" stroke="none" font-family="Arial" font-size="12px" font-style="normal" font-weight="normal" text-decoration="" line-height="14px" x="64" y="12">t</text><text fill="rgb(0, 0, 0)" stroke="none" font-family="Arial" font-size="12px" font-style="normal" font-weight="normal" text-decoration="" line-height="14px" x="68" y="12">a</text><text fill="rgb(0, 0, 0)" stroke="none" font-family="Arial" font-size="12px" font-style="normal" font-weight="normal" text-decoration="" line-height="14px" x="74.4000015258789" y="12">i</text><text fill="rgb(0, 0, 0)" stroke="none" font-family="Arial" font-size="12px" font-style="normal" font-weight="normal" text-decoration="" line-height="14px" x="76.80000305175781" y="12">n</text><text fill="rgb(0, 0, 0)" stroke="none" font-family="Arial" font-size="12px" font-style="normal" font-weight="normal" text-decoration="" line-height="14px" x="84" y="12">e</text><text fill="rgb(0, 0, 0)" stroke="none" font-family="Arial" font-size="12px" font-style="normal" font-weight="normal" text-decoration="" line-height="14px" x="90.4000015258789" y="12">r</text><text fill="rgb(0, 0, 0)" stroke="none" font-family="Arial" font-size="12px" font-style="normal" font-weight="normal" text-decoration="" line-height="14px" x="94.4000015258789" y="12">3</text></g></g><g transform="matrix(1,0,0,1,5,296)"><g><g><rect fill="rgb(0,0,0)" stroke="none" x="0" y="0" width="129" height="14" fill-opacity="0"/></g></g><g><g><rect fill="rgb(0,0,0)" stroke="none" x="0" y="0" width="129" height="14" fill-opacity="0"/></g></g><g><g><rect fill="rgb(0,0,0)" stroke="none" x="30.149999618530273" y="0" width="70" height="14" fill-opacity="0"/></g></g><g><g><rect fill="rgb(0,0,0)" stroke="none" x="30.149999618530273" y="0" width="70" height="14" fill-opacity="0"/></g><text fill="rgb(0, 0, 0)" stroke="none" font-family="Arial" font-size="12px" font-style="normal" font-weight="normal" text-decoration="" line-height="14px" x="30.399999618530273" y="12">e</text><text fill="rgb(0, 0, 0)" stroke="none" font-family="Arial" font-size="12px" font-style="normal" font-weight="normal" text-decoration="" line-height="14px" x="36.79999923706055" y="12">x</text><text fill="rgb(0, 0, 0)" stroke="none" font-family="Arial" font-size="12px" font-style="normal" font-weight="normal" text-decoration="" line-height="14px" x="43.20000076293945" y="12">t</text><text fill="rgb(0, 0, 0)" stroke="none" font-family="Arial" font-size="12px" font-style="normal" font-weight="normal" text-decoration="" line-height="14px" x="46.400001525878906" y="12">e</text><text fill="rgb(0, 0, 0)" stroke="none" font-family="Arial" font-size="12px" font-style="normal" font-weight="normal" text-decoration="" line-height="14px" x="52.79999923706055" y="12">r</text><text fill="rgb(0, 0, 0)" stroke="none" font-family="Arial" font-size="12px" font-style="normal" font-weight="normal" text-decoration="" line-height="14px" x="56.79999923706055" y="12">n</text><text fill="rgb(0, 0, 0)" stroke="none" font-family="Arial" font-size="12px" font-style="normal" font-weight="normal" text-decoration="" line-height="14px" x="63.20000076293945" y="12">a</text><text fill="rgb(0, 0, 0)" stroke="none" font-family="Arial" font-size="12px" font-style="normal" font-weight="normal" text-decoration="" line-height="14px" x="70.4000015258789" y="12">l</text><text fill="rgb(0, 0, 0)" stroke="none" font-family="Arial" font-size="12px" font-style="normal" font-weight="normal" text-decoration="" line-height="14px" x="76" y="12">h</text><text fill="rgb(0, 0, 0)" stroke="none" font-family="Arial" font-size="12px" font-style="normal" font-weight="normal" text-decoration="" line-height="14px" x="83.20000457763672" y="12">o</text><text fill="rgb(0, 0, 0)" stroke="none" font-family="Arial" font-size="12px" font-style="normal" font-weight="normal" text-decoration="" line-height="14px" x="89.5999984741211" y="12">s</text><text fill="rgb(0, 0, 0)" stroke="none" font-family="Arial" font-size="12px" font-style="normal" font-weight="normal" text-decoration="" line-height="14px" x="95.20000457763672" y="12">t</text></g></g><g transform="translate(0.5,0.5) matrix(1,0,0,1,337,25)"><g><g transform="translate(0,0) scale(0.1,0.1)"><g><path fill="#00ffff" stroke="none" d="M 100 50 A 50 50 0 1 0 99.99997500000208 50.04999999166668 Z"/><g transform="scale(10,10)"><path fill="none" stroke="#00ffff" d="M 5 0 M 5 0 C 7.761423499999999 0 10 2.2385765 10 5 C 10 7.761423499999999 7.761423499999999 10 5 10 C 2.2385765 10 0 7.761423499999999 0 5 C 0 2.2385765 2.2385765 0 5 0 Z" stroke-miterlimit="10"/></g></g></g></g></g><g transform="matrix(1,0,0,1,352,21)"><g><g><rect fill="rgb(0,0,0)" stroke="none" x="0" y="0" width="81" height="14" fill-opacity="0"/></g></g><g><g><rect fill="rgb(0,0,0)" stroke="none" x="0" y="0" width="81" height="14" fill-opacity="0"/></g></g><g><g><rect fill="rgb(0,0,0)" stroke="none" x="2.8125" y="0" width="76" height="14" fill-opacity="0"/></g></g><g><g><rect fill="rgb(0,0,0)" stroke="none" x="2.8125" y="0" width="76" height="14" fill-opacity="0"/></g><text fill="rgb(0, 0, 0)" stroke="none" font-family="Arial" font-size="12px" font-style="normal" font-weight="normal" text-decoration="" line-height="14px" x="3.200000047683716" y="12">p</text><text fill="rgb(0, 0, 0)" stroke="none" font-family="Arial" font-size="12px" font-style="normal" font-weight="normal" text-decoration="" line-height="14px" x="9.600000381469727" y="12">u</text><text fill="rgb(0, 0, 0)" stroke="none" font-family="Arial" font-size="12px" font-style="normal" font-weight="normal" text-decoration="" line-height="14px" x="16" y="12">b</text><text fill="rgb(0, 0, 0)" stroke="none" font-family="Arial" font-size="12px" font-style="normal" font-weight="normal" text-decoration="" line-height="14px" x="23.200000762939453" y="12">l</text><text fill="rgb(0, 0, 0)" stroke="none" font-family="Arial" font-size="12px" font-style="normal" font-weight="normal" text-decoration="" line-height="14px" x="25.600000381469727" y="12">i</text><text fill="rgb(0, 0, 0)" stroke="none" font-family="Arial" font-size="12px" font-style="normal" font-weight="normal" text-decoration="" line-height="14px" x="28" y="12">s</text><text fill="rgb(0, 0, 0)" stroke="none" font-family="Arial" font-size="12px" font-style="normal" font-weight="normal" text-decoration="" line-height="14px" x="34.400001525878906" y="12">h</text><text fill="rgb(0, 0, 0)" stroke="none" font-family="Arial" font-size="12px" font-style="normal" font-weight="normal" text-decoration="" line-height="14px" x="40.79999923706055" y="12">e</text><text fill="rgb(0, 0, 0)" stroke="none" font-family="Arial" font-size="12px" font-style="normal" font-weight="normal" text-decoration="" line-height="14px" x="47.20000076293945" y="12">d</text><text fill="rgb(0, 0, 0)" stroke="none" font-family="Arial" font-size="12px" font-style="normal" font-weight="normal" text-decoration="" line-height="14px" x="57.60000228881836" y="12">p</text><text fill="rgb(0, 0, 0)" stroke="none" font-family="Arial" font-size="12px" font-style="normal" font-weight="normal" text-decoration="" line-height="14px" x="64" y="12">o</text><text fill="rgb(0, 0, 0)" stroke="none" font-family="Arial" font-size="12px" font-style="normal" font-weight="normal" text-decoration="" line-height="14px" x="71.20000457763672" y="12">r</text><text fill="rgb(0, 0, 0)" stroke="none" font-family="Arial" font-size="12px" font-style="normal" font-weight="normal" text-decoration="" line-height="14px" x="75.20000457763672" y="12">t</text></g></g></g></svg>