<svg version="1.1" xmlns="http://www.w3.org/2000/svg" xmlns:xlink="http://www.w3.org/1999/xlink" width="395.38636363636374" height="260.14285409109937"><style xmlns="http://www.w3.org/1999/xhtml"></style><defs><linearGradient id="sPzEQVqdSRsT" x1="0px" x2="0px" y1="100px" y2="-50px" gradientUnits="userSpaceOnUse"><stop offset="0" stop-color="#3d85c6"/><stop offset="1" stop-color="#FFFFFF"/></linearGradient><linearGradient id="fqfAXxKRigOu" x1="0px" x2="0px" y1="100px" y2="-50px" gradientUnits="userSpaceOnUse"><stop offset="0" stop-color="#3d85c6"/><stop offset="1" stop-color="#FFFFFF"/></linearGradient><linearGradient id="yMasebRINhtx" x1="0px" x2="0px" y1="100px" y2="-50px" gradientUnits="userSpaceOnUse"><stop offset="0" stop-color="#3d85c6"/><stop offset="1" stop-color="#FFFFFF"/></linearGradient></defs><g transform="translate(0,0)"><g><rect fill="#ffffff" stroke="none" x="0" y="0" width="395.38636363636374" height="260.14285409109937"/></g><g transform="translate(0.5,0.5) matrix(1,0,0,1,113.38636363636374,116.14285409109937)"><g><g transform="translate(0,0) scale(3.742857142857143,2.8181818181818183)"><g><g><g><path fill="#929292" stroke="rgb(0,0,0)" d="M 58.97 19.094 C 58.977 18.895 59 18.7 59 18.5 C 59 8.283 50.717 0 40.5 0 C 33.11 0 26.751 4.344 23.787 10.607 C 22.275 9.593 20.458 9 18.5 9 C 13.5 9 9.41 12.866 9.037 17.771 C 3.778 19.616 0 24.61 0 30.5 C 0 37.787 5.778 43.71 13 43.975 L 13 44 L 58 44 L 58 43.975 C 64.671 43.71 70 38.235 70 31.5 C 70 25.095 65.18 19.822 58.97 19.094 Z M 58 41.975 L 58 42 L 13 42 L 13 41.975 C 6.883 41.711 2 36.683 2 30.5 C 2 24.994 5.872 20.398 11.039 19.271 C 11.013 19.017 11 18.76 11 18.5 C 11 14.357 14.358 11 18.5 11 C 21.017 11 23.239 12.244 24.6 14.146 C 26.512 7.15 32.897 2 40.5 2 C 49.613 2 57 9.388 57 18.5 C 57 19.353 56.914 20.183 56.79 21 L 58 21 L 58 21.025 C 63.565 21.288 68 25.87 68 31.5 C 68 37.13 63.565 41.712 58 41.975 Z" stroke-opacity="0" stroke-miterlimit="10"/></g></g></g></g></g></g><g transform="translate(0.5,0.5) matrix(1,0,0,1,15.386363636363683,113.14285409109937)"><g><g transform="translate(0,0) scale(3.3285714285714287,2.8863636363636362)"><g><g><g><path fill="#929292" stroke="rgb(0,0,0)" d="M 58.97 19.094 C 58.977 18.895 59 18.7 59 18.5 C 59 8.283 50.717 0 40.5 0 C 33.11 0 26.751 4.344 23.787 10.607 C 22.275 9.593 20.458 9 18.5 9 C 13.5 9 9.41 12.866 9.037 17.771 C 3.778 19.616 0 24.61 0 30.5 C 0 37.787 5.778 43.71 13 43.975 L 13 44 L 58 44 L 58 43.975 C 64.671 43.71 70 38.235 70 31.5 C 70 25.095 65.18 19.822 58.97 19.094 Z M 58 41.975 L 58 42 L 13 42 L 13 41.975 C 6.883 41.711 2 36.683 2 30.5 C 2 24.994 5.872 20.398 11.039 19.271 C 11.013 19.017 11 18.76 11 18.5 C 11 14.357 14.358 11 18.5 11 C 21.017 11 23.239 12.244 24.6 14.146 C 26.512 7.15 32.897 2 40.5 2 C 49.613 2 57 9.388 57 18.5 C 57 19.353 56.914 20.183 56.79 21 L 58 21 L 58 21.025 C 63.565 21.288 68 25.87 68 31.5 C 68 37.13 63.565 41.712 58 41.975 Z" stroke-opacity="0" stroke-miterlimit="10"/></g></g></g></g></g></g><g transform="translate(0,0) matrix(1,0,0,1,150,180.46785409109935)"><g><g transform="translate(0,0) scale(0.62,0.2946428571428572)"><g><path fill="url(#sPzEQVqdSRsT)" stroke="none" d="M 0 0 L 100 0 Q 100 0 100 0 L 100 100 Q 100 100 100 100 L 0 100 Q 0 100 0 100 L 0 0 Q 0 0 0 0 Z"/><g transform="scale(1.6129032258064517,3.393939393939393)"><path fill="none" stroke="none" d="M 0 0 L 62 0 Q 62 0 62 0 L 62 29.464285714285722 Q 62 29.464285714285722 62 29.464285714285722 L 0 29.464285714285722 Q 0 29.464285714285722 0 29.464285714285722 L 0 0 Q 0 0 0 0 Z"/><path fill="url(#sPzEQVqdSRsT)" stroke="#6fa8dc" d="M 0 0 M 0 0 L 62 0 Q 62 0 62 0 L 62 29.464285714285722 Q 62 29.464285714285722 62 29.464285714285722 L 0 29.464285714285722 Q 0 29.464285714285722 0 29.464285714285722 L 0 0 Q 0 0 0 0 Z" stroke-miterlimit="10" stroke-width="2"/></g></g></g></g></g><g transform="matrix(1,0,0,1,157.4593795664339,175.9678540910995)"><g transform="translate(0,0)"><g transform="translate(-159.92,-180.07499694824222) translate(2.4606204335660777,4.107142857142719) matrix(1,0,0,1,0,0)"><g><path fill="none" stroke="#0b5394" d="M 161.9593795664339 180.4678540910995 L 161.9593795664339 209.93213980538494" stroke-miterlimit="10" stroke-width="2"/></g></g></g></g><g transform="matrix(1,0,0,1,195.54062043356592,175.96785409109907)"><g transform="translate(0,0)"><g transform="translate(-201.46,-181.6464255196708) translate(5.919379566434088,5.678571428571729) matrix(1,0,0,1,0,0)"><g><path fill="none" stroke="#0b5394" d="M 200.04062043356592 180.46785409109907 L 200.04062043356592 209.93213980538522" stroke-miterlimit="10" stroke-width="2"/></g></g></g></g><g transform="matrix(1,0,0,1,176.5,175.96785409109935)"><g transform="translate(0,0)"><g transform="translate(-179.14,-181.6464255196708) translate(2.6399999999999864,5.678571428571445) matrix(1,0,0,1,0,0)"><g><path fill="none" stroke="#0b5394" d="M 181 180.46785409109935 L 181 209.93213980538508" stroke-miterlimit="10" stroke-width="2"/></g></g></g></g><g transform="matrix(1,0,0,1,108,217)"><g transform="translate(90,0) matrix(1,0,0,1,0,0) translate(-90,0)"><g><rect fill="rgb(0,0,0)" stroke="none" x="0" y="0" width="147" height="14" fill-opacity="0"/></g></g><g transform="translate(90,0) matrix(1,0,0,1,0,0) translate(-90,0)"><g><rect fill="rgb(0,0,0)" stroke="none" x="0" y="0" width="147" height="14" fill-opacity="0"/></g></g><g transform="translate(90,0) matrix(1,0,0,1,0,0) translate(-90,0)"><g><rect fill="rgb(0,0,0)" stroke="none" x="45" y="0" width="57" height="14" fill-opacity="0"/></g></g><g transform="translate(90,0) matrix(1,0,0,1,0,0) translate(-90,0)"><g><rect fill="rgb(0,0,0)" stroke="none" x="45" y="0" width="57" height="14" fill-opacity="0"/></g><text fill="rgb(0, 0, 0)" stroke="none" font-family="Arial" font-size="12px" font-style="normal" font-weight="normal" text-decoration="" line-height="14px" x="45" y="12">container2</text></g></g><g transform="translate(0,0) matrix(1,0,0,1,261,182.46785409109935)"><g><g transform="translate(0,0) scale(0.62,0.2946428571428572)"><g><path fill="url(#fqfAXxKRigOu)" stroke="none" d="M 0 0 L 100 0 Q 100 0 100 0 L 100 100 Q 100 100 100 100 L 0 100 Q 0 100 0 100 L 0 0 Q 0 0 0 0 Z"/><g transform="scale(1.6129032258064517,3.393939393939393)"><path fill="none" stroke="none" d="M 0 0 L 62 0 Q 62 0 62 0 L 62 29.464285714285722 Q 62 29.464285714285722 62 29.464285714285722 L 0 29.464285714285722 Q 0 29.464285714285722 0 29.464285714285722 L 0 0 Q 0 0 0 0 Z"/><path fill="url(#fqfAXxKRigOu)" stroke="#6fa8dc" d="M 0 0 M 0 0 L 62 0 Q 62 0 62 0 L 62 29.464285714285722 Q 62 29.464285714285722 62 29.464285714285722 L 0 29.464285714285722 Q 0 29.464285714285722 0 29.464285714285722 L 0 0 Q 0 0 0 0 Z" stroke-miterlimit="10" stroke-width="2"/></g></g></g></g></g><g transform="matrix(1,0,0,1,268.45937956643394,177.9678540910995)"><g transform="translate(0,0)"><g transform="translate(-270.92,-182.07499694824222) translate(2.4606204335660777,4.107142857142719) matrix(1,0,0,1,0,0)"><g><path fill="none" stroke="#0b5394" d="M 272.95937956643394 182.4678540910995 L 272.95937956643394 211.93213980538494" stroke-miterlimit="10" stroke-width="2"/></g></g></g></g><g transform="matrix(1,0,0,1,306.5406204335659,177.96785409109907)"><g transform="translate(0,0)"><g transform="translate(-312.46,-183.6464255196708) translate(5.919379566434088,5.678571428571729) matrix(1,0,0,1,0,0)"><g><path fill="none" stroke="#0b5394" d="M 311.0406204335659 182.46785409109907 L 311.0406204335659 211.93213980538522" stroke-miterlimit="10" stroke-width="2"/></g></g></g></g><g transform="matrix(1,0,0,1,287.5,177.96785409109935)"><g transform="translate(0,0)"><g transform="translate(-290.14,-183.6464255196708) translate(2.6399999999999864,5.678571428571445) matrix(1,0,0,1,0,0)"><g><path fill="none" stroke="#0b5394" d="M 292 182.46785409109935 L 292 211.93213980538508" stroke-miterlimit="10" stroke-width="2"/></g></g></g></g><g transform="matrix(1,0,0,1,219,219)"><g transform="translate(90,0) matrix(1,0,0,1,0,0) translate(-90,0)"><g><rect fill="rgb(0,0,0)" stroke="none" x="0" y="0" width="147" height="14" fill-opacity="0"/></g></g><g transform="translate(90,0) matrix(1,0,0,1,0,0) translate(-90,0)"><g><rect fill="rgb(0,0,0)" stroke="none" x="0" y="0" width="147" height="14" fill-opacity="0"/></g></g><g transform="translate(90,0) matrix(1,0,0,1,0,0) translate(-90,0)"><g><rect fill="rgb(0,0,0)" stroke="none" x="45" y="0" width="57" height="14" fill-opacity="0"/></g></g><g transform="translate(90,0) matrix(1,0,0,1,0,0) translate(-90,0)"><g><rect fill="rgb(0,0,0)" stroke="none" x="45" y="0" width="57" height="14" fill-opacity="0"/></g><text fill="rgb(0, 0, 0)" stroke="none" font-family="Arial" font-size="12px" font-style="normal" font-weight="normal" text-decoration="" line-height="14px" x="45" y="12">container3</text></g></g><g transform="translate(0,0) matrix(1,0,0,1,43,180.46785409109935)"><g><g transform="translate(0,0) scale(0.62,0.2946428571428572)"><g><path fill="url(#yMasebRINhtx)" stroke="none" d="M 0 0 L 100 0 Q 100 0 100 0 L 100 100 Q 100 100 100 100 L 0 100 Q 0 100 0 100 L 0 0 Q 0 0 0 0 Z"/><g transform="scale(1.6129032258064517,3.393939393939393)"><path fill="none" stroke="none" d="M 0 0 L 62 0 Q 62 0 62 0 L 62 29.464285714285722 Q 62 29.464285714285722 62 29.464285714285722 L 0 29.464285714285722 Q 0 29.464285714285722 0 29.464285714285722 L 0 0 Q 0 0 0 0 Z"/><path fill="url(#yMasebRINhtx)" stroke="#6fa8dc" d="M 0 0 M 0 0 L 62 0 Q 62 0 62 0 L 62 29.464285714285722 Q 62 29.464285714285722 62 29.464285714285722 L 0 29.464285714285722 Q 0 29.464285714285722 0 29.464285714285722 L 0 0 Q 0 0 0 0 Z" stroke-miterlimit="10" stroke-width="2"/></g></g></g></g></g><g transform="matrix(1,0,0,1,50.45937956643392,175.9678540910995)"><g transform="translate(0,0)"><g transform="translate(-52.919999999999995,-180.07499694824222) translate(2.4606204335660777,4.107142857142719) matrix(1,0,0,1,0,0)"><g><path fill="none" stroke="#0b5394" d="M 54.95937956643392 180.4678540910995 L 54.95937956643392 209.93213980538494" stroke-miterlimit="10" stroke-width="2"/></g></g></g></g><g transform="matrix(1,0,0,1,88.54062043356592,175.96785409109907)"><g transform="translate(0,0)"><g transform="translate(-94.46000000000001,-181.6464255196708) translate(5.919379566434088,5.678571428571729) matrix(1,0,0,1,0,0)"><g><path fill="none" stroke="#0b5394" d="M 93.04062043356592 180.46785409109907 L 93.04062043356592 209.93213980538522" stroke-miterlimit="10" stroke-width="2"/></g></g></g></g><g transform="matrix(1,0,0,1,69.5,175.96785409109935)"><g transform="translate(0,0)"><g transform="translate(-72.14,-181.6464255196708) translate(2.6400000000000006,5.678571428571445) matrix(1,0,0,1,0,0)"><g><path fill="none" stroke="#0b5394" d="M 74 180.46785409109935 L 74 209.93213980538508" stroke-miterlimit="10" stroke-width="2"/></g></g></g></g><g transform="matrix(1,0,0,1,1,217)"><g transform="translate(90,0) matrix(1,0,0,1,0,0) translate(-90,0)"><g><rect fill="rgb(0,0,0)" stroke="none" x="0" y="0" width="147" height="14" fill-opacity="0"/></g></g><g transform="translate(90,0) matrix(1,0,0,1,0,0) translate(-90,0)"><g><rect fill="rgb(0,0,0)" stroke="none" x="0" y="0" width="147" height="14" fill-opacity="0"/></g></g><g transform="translate(90,0) matrix(1,0,0,1,0,0) translate(-90,0)"><g><rect fill="rgb(0,0,0)" stroke="none" x="45" y="0" width="57" height="14" fill-opacity="0"/></g></g><g transform="translate(90,0) matrix(1,0,0,1,0,0) translate(-90,0)"><g><rect fill="rgb(0,0,0)" stroke="none" x="45" y="0" width="57" height="14" fill-opacity="0"/></g><text fill="rgb(0, 0, 0)" stroke="none" font-family="Arial" font-size="12px" font-style="normal" font-weight="normal" text-decoration="" line-height="14px" x="45" y="12">container1</text></g></g><g transform="matrix(1,0,0,1,187,143)"><g transform="translate(183,42) matrix(1,0,0,1,0,0) translate(-183,-42)"><g><rect fill="rgb(0,0,0)" stroke="none" x="0" y="0" width="147" height="28" fill-opacity="0"/></g></g><g transform="translate(183,42) matrix(1,0,0,1,0,0) translate(-183,-42)"><g><rect fill="rgb(0,0,0)" stroke="none" x="0" y="0" width="147" height="14" fill-opacity="0"/></g></g><g transform="translate(183,42) matrix(1,0,0,1,0,0) translate(-183,-42)"><g><rect fill="rgb(0,0,0)" stroke="none" x="39" y="0" width="69" height="14" fill-opacity="0"/></g><text fill="rgb(0, 0, 0)" stroke="none" font-family="Arial" font-size="12px" font-style="normal" font-weight="bold" text-decoration="" line-height="14px" x="39" y="12">isolated_nw</text></g><g transform="translate(183,42) matrix(1,0,0,1,0,0) translate(-183,-42)"><g><rect fill="rgb(0,0,0)" stroke="none" x="0" y="14" width="147" height="14" fill-opacity="0"/></g></g><g transform="translate(183,42) matrix(1,0,0,1,0,0) translate(-183,-42)"><g><rect fill="rgb(0,0,0)" stroke="none" x="72" y="14" width="5" height="14" fill-opacity="0"/></g></g><g transform="translate(183,42) matrix(1,0,0,1,0,0) translate(-183,-42)"><g><rect fill="rgb(0,0,0)" stroke="none" x="72" y="14" width="5" height="14" fill-opacity="0"/></g></g></g><g transform="translate(0,0) matrix(1,0,0,1,15,5.1999969482421875)"><g><g transform="translate(0,0) scale(1.0376509657550772,1.0231999999999999)"><g><g><g><path fill="#3d85c6" stroke="#FFFFFF" d="M 52.371 16.22 L -1.393 16.22 L -1.393 99.52 L 52.371 99.52" stroke-miterlimit="10" stroke-width="1.3594"/></g><g><path fill="#3d85c6" stroke="#FFFFFF" d="M 52.371 99.52 L 69.07 82.82 L 69.07 -0.48 L 19.98 -0.48 L -1.393 16.22 L 52.371 16.22 L 52.371 99.52 Z" stroke-miterlimit="10" stroke-width="1.3594"/></g><g><path fill="rgb(0,0,0)" stroke="#FFFFFF" d="M 52.371 16.22 L 69.07 -0.48" fill-opacity="0" stroke-miterlimit="10" stroke-width="1.3594"/></g><g><path fill="rgb(0,0,0)" stroke="#FFFFFF" d="M 25.3 16.22 L 25.3 99.52" fill-opacity="0" stroke-miterlimit="10" stroke-width="1.3594"/></g><g><path fill="rgb(0,0,0)" stroke="#FFFFFF" d="M 26.149 16.22 L 44.316 -0.48" fill-opacity="0" stroke-miterlimit="10" stroke-width="1.3594"/></g></g><g><path fill="#3d85c6" stroke="#FFFFFF" d="M 3.263 23.823 L 21.317 23.823 Q 21.317 23.823 21.317 23.823 L 21.317 34.868 Q 21.317 34.868 21.317 34.868 L 3.263 34.868 Q 3.263 34.868 3.263 34.868 L 3.263 23.823 Q 3.263 23.823 3.263 23.823 Z" stroke-miterlimit="10" stroke-width="1.3594"/></g><g><path fill="#3d85c6" stroke="#FFFFFF" d="M 29.156 23.823 L 47.207 23.823 Q 47.207 23.823 47.207 23.823 L 47.207 34.868 Q 47.207 34.868 47.207 34.868 L 29.156 34.868 Q 29.156 34.868 29.156 34.868 L 29.156 23.823 Q 29.156 23.823 29.156 23.823 Z" stroke-miterlimit="10" stroke-width="1.3594"/></g><g><path fill="#3d85c6" stroke="#FFFFFF" d="M 3.263 64.604 L 21.317 64.604 Q 21.317 64.604 21.317 64.604 L 21.317 75.648 Q 21.317 75.648 21.317 75.648 L 3.263 75.648 Q 3.263 75.648 3.263 75.648 L 3.263 64.604 Q 3.263 64.604 3.263 64.604 Z" stroke-miterlimit="10" stroke-width="1.3594"/></g><g><path fill="#3d85c6" stroke="#FFFFFF" d="M 29.156 64.604 L 47.207 64.604 Q 47.207 64.604 47.207 64.604 L 47.207 75.648 Q 47.207 75.648 47.207 75.648 L 29.156 75.648 Q 29.156 75.648 29.156 75.648 L 29.156 64.604 Q 29.156 64.604 29.156 64.604 Z" stroke-miterlimit="10" stroke-width="1.3594"/></g><g><path fill="#3d85c6" stroke="#FFFFFF" d="M 3.263 82.445 L 21.317 82.445 Q 21.317 82.445 21.317 82.445 L 21.317 93.49 Q 21.317 93.49 21.317 93.49 L 3.263 93.49 Q 3.263 93.49 3.263 93.49 L 3.263 82.445 Q 3.263 82.445 3.263 82.445 Z" stroke-miterlimit="10" stroke-width="1.3594"/></g><g><path fill="#3d85c6" stroke="#FFFFFF" d="M 29.156 82.445 L 47.207 82.445 Q 47.207 82.445 47.207 82.445 L 47.207 93.49 Q 47.207 93.49 47.207 93.49 L 29.156 93.49 Q 29.156 93.49 29.156 93.49 L 29.156 82.445 Q 29.156 82.445 29.156 82.445 Z" stroke-miterlimit="10" stroke-width="1.3594"/></g></g></g></g></g><g transform="matrix(1,0,0,1,81.616,49.859996948242184)"><g transform="translate(0,0)"><g transform="translate(-53,-57.19999694824219) translate(-28.616,7.340000000000003) matrix(1,0,0,1,0,0)"><g><path fill="none" stroke="#999999" d="M 88.116 56.359996948242184 L 132 56.359996948242184 Q 142 56.359996948242184 142 66.35999694824218 L 142 114.19999694824219" stroke-miterlimit="10" stroke-width="6"/></g></g></g></g><g transform="matrix(1,0,0,1,198,108)"><g transform="translate(148,-14) matrix(1,0,0,1,0,0) translate(-148,14)"><g><rect fill="rgb(0,0,0)" stroke="none" x="0" y="0" width="147" height="14" fill-opacity="0"/></g></g><g transform="translate(148,-14) matrix(1,0,0,1,0,0) translate(-148,14)"><g/></g><g transform="translate(148,-14) matrix(1,0,0,1,0,0) translate(-148,14)"><g><rect fill="rgb(0,0,0)" stroke="none" x="74" y="-7" width="1" height="14" fill-opacity="0"/></g></g><g transform="translate(148,-14) matrix(1,0,0,1,0,0) translate(-148,14)"><g><rect fill="rgb(0,0,0)" stroke="none" x="74" y="-7" width="1" height="14" fill-opacity="0"/></g></g><g transform="translate(148,-14) matrix(1,0,0,1,0,0) translate(-148,14)"><g/></g></g><g transform="matrix(1,0,0,1,7,116)"><g transform="translate(8,0) matrix(1,0,0,1,0,0) translate(-8,0)"><g><rect fill="rgb(0,0,0)" stroke="none" x="0" y="0" width="75" height="14" fill-opacity="0"/></g></g><g transform="translate(8,0) matrix(1,0,0,1,0,0) translate(-8,0)"><g><rect fill="rgb(0,0,0)" stroke="none" x="0" y="0" width="75" height="14" fill-opacity="0"/></g></g><g transform="translate(8,0) matrix(1,0,0,1,0,0) translate(-8,0)"><g><rect fill="rgb(0,0,0)" stroke="none" x="4" y="0" width="67" height="14" fill-opacity="0"/></g></g><g transform="translate(8,0) matrix(1,0,0,1,0,0) translate(-8,0)"><g><rect fill="rgb(0,0,0)" stroke="none" x="4" y="0" width="67" height="14" fill-opacity="0"/></g><text fill="rgb(0, 0, 0)" stroke="none" font-family="Arial" font-size="12px" font-style="normal" font-weight="normal" text-decoration="" line-height="14px" x="5" y="12">Docker</text><text fill="rgb(0, 0, 0)" stroke="none" font-family="Arial" font-size="12px" font-style="normal" font-weight="normal" text-decoration="" line-height="14px" x="46" y="12">Host</text></g></g><g transform="matrix(1,0,0,1,57,139)"><g transform="translate(108,0) matrix(1,0,0,1,0,0) translate(-108,0)"><g><rect fill="rgb(0,0,0)" stroke="none" x="0" y="0" width="147" height="14" fill-opacity="0"/></g></g><g transform="translate(108,0) matrix(1,0,0,1,0,0) translate(-108,0)"><g><rect fill="rgb(0,0,0)" stroke="none" x="0" y="0" width="147" height="14" fill-opacity="0"/></g></g><g transform="translate(108,0) matrix(1,0,0,1,0,0) translate(-108,0)"><g><rect fill="rgb(0,0,0)" stroke="none" x="54" y="0" width="41" height="14" fill-opacity="0"/></g></g><g transform="translate(108,0) matrix(1,0,0,1,0,0) translate(-108,0)"><g><rect fill="rgb(0,0,0)" stroke="none" x="54" y="0" width="38" height="14" fill-opacity="0"/></g><text fill="rgb(0, 0, 0)" stroke="none" font-family="Arial" font-size="12px" font-style="normal" font-weight="bold" text-decoration="" line-height="14px" x="54" y="12">bridge</text></g></g><g transform="matrix(1,0,0,1,81.616,49.859996948242184)"><g transform="translate(0,0)"><g transform="translate(-85,-50) translate(3.3840000000000003,0.1400030517578159) matrix(1,0,0,1,0,0)"><g><path fill="none" stroke="#999999" d="M 88.116 56.359996948242184 L 255.558 56.359996948242184 Q 265.558 56.359996948242184 265.558 66.35999694824218 L 265.558 107 Q 265.558 117 265.279 117 L 265 117" stroke-miterlimit="10" stroke-width="6"/></g></g></g></g></g></svg>